<svg width="48" height="48" viewBox="0 0 48 48" fill="none" xmlns="http://www.w3.org/2000/svg">
<g clip-path="url(#clip0_1671_258)">
<path d="M18.0985 39.7016L10.3183 47.8917L10.0279 38.1842L1.12402 37.7177L11.0135 28.604L16.2654 33.4483L18.0985 39.7016Z" fill="#FDF27A"/>
<path d="M18.8405 39.1077L10.2366 47.6276L9.86523 43.2263L18.4168 35.0928L18.8405 39.1077Z" fill="#C4AD2F"/>
<path d="M4.48556 37.9817L0.509766 37.9487L10.3755 27.8643L10.4088 32.2373L4.48556 37.9817Z" fill="#C4AD2F"/>
<path d="M39.344 30.2769L47.6146 37.9721L37.8061 38.2643L37.3395 47.0764L28.1309 37.2888L33.0208 32.0864L39.344 30.2769Z" fill="#FDF27A"/>
<path d="M38.7442 29.5415L47.3482 38.0567L42.901 38.4196L34.6875 29.9609L38.7442 29.5415Z" fill="#C4AD2F"/>
<path d="M37.6007 43.7447L37.5722 47.6842L27.3779 37.9155L31.7965 37.8872L37.6007 43.7447Z" fill="#C4AD2F"/>
<path d="M10.4271 47.9998C10.3462 47.9998 10.27 47.9857 10.1938 47.9527C9.96527 47.8584 9.81767 47.6417 9.81767 47.3919V39.0133L0.575729 38.4667C0.337657 38.4526 0.128154 38.3018 0.0424481 38.0756C-0.0432577 37.8541 0.0138795 37.5996 0.18053 37.4347L10.2557 27.4634L10.9271 28.1278L1.38993 37.5714L10.77 38.1274V46.5814L18.7025 38.7306L19.3739 39.395L10.8604 47.8207C10.7414 47.9385 10.589 47.9998 10.4271 47.9998Z" fill="#231F20"/>
<path d="M9.80537 32.675L4.5127 37.9131L5.18606 38.5795L10.4787 33.3414L9.80537 32.675Z" fill="#231F20"/>
<path d="M15.7302 37.4104L9.95605 43.125L10.6294 43.7914L16.4036 38.0768L15.7302 37.4104Z" fill="#231F20"/>
<path d="M37.5676 47.9998C37.4105 47.9998 37.2533 47.9385 37.1343 47.8207L28.459 39.2348L29.1303 38.5704L37.2248 46.5814V38.1274L46.6048 37.5714L36.5582 27.6283L37.2295 26.9639L47.8142 37.4394C47.9856 37.6091 48.038 37.8588 47.9523 38.0803C47.8666 38.3018 47.6571 38.4526 47.419 38.4714L38.1771 39.0181V47.3966C38.1771 47.6417 38.0295 47.8631 37.8009 47.9574C37.7247 47.9904 37.6438 48.0045 37.5676 48.0045V47.9998Z" fill="#231F20"/>
<path d="M37.8335 32.3189L37.1602 32.9854L42.8131 38.58L43.4865 37.9136L37.8335 32.3189Z" fill="#231F20"/>
<path d="M32.148 37.2965L31.4746 37.9629L37.3632 43.7908L38.0366 43.1244L32.148 37.2965Z" fill="#231F20"/>
<path d="M20.7977 2.13447C21.969 4.21261 25.002 4.17963 26.1305 2.07792C27.7017 -0.862589 32.2251 0.536979 31.8204 3.84034C31.5347 6.20594 34.0059 7.94479 36.1676 6.89394C39.1863 5.4284 42.0146 9.19357 39.7244 11.6299C38.0864 13.3734 39.0578 16.2197 41.429 16.6297C44.7429 17.1999 44.7953 21.8886 41.4956 22.5342C39.1339 22.996 38.2293 25.8612 39.9053 27.567C42.2479 29.9562 39.5053 33.7779 36.4533 32.3783C34.2725 31.3746 31.8347 33.17 32.1727 35.5262C32.6489 38.8201 28.1588 40.3186 26.5209 37.4111C25.3496 35.333 22.3166 35.366 21.1881 37.4677C19.6168 40.4082 15.0935 39.0086 15.4982 35.7052C15.7839 33.3396 13.3127 31.6008 11.151 32.6516C8.13225 34.1172 5.30396 30.352 7.59421 27.9157C9.23214 26.1722 8.26081 23.3259 5.88962 22.9159C2.57566 22.3457 2.52329 17.6569 5.82296 17.0114C8.18463 16.5495 9.0893 13.6844 7.41328 11.9786C5.07065 9.5894 7.81324 5.76769 10.8653 7.16726C13.0461 8.17099 15.4839 6.37558 15.1458 4.01941C14.6697 0.725473 19.1597 -0.773054 20.7977 2.13447Z" fill="#FDF27A"/>
<path d="M18.5502 39.546C18.174 39.546 17.7979 39.4895 17.455 39.3811C16.0695 38.9523 14.7791 37.6328 15.0172 35.6489C15.1315 34.7112 14.7363 33.8299 13.9602 33.2833C13.184 32.7367 12.2079 32.6613 11.3556 33.076C9.54631 33.9572 7.86076 33.1844 6.99418 32.0298C6.1276 30.8753 5.86572 29.0563 7.23701 27.5955C7.88456 26.9028 8.08931 25.9603 7.78457 25.065C7.47984 24.1696 6.73706 23.5429 5.79906 23.3827C3.81354 23.0387 2.90887 21.4365 2.88982 19.9992C2.87554 18.5619 3.74212 16.9409 5.72287 16.5545C6.65612 16.3707 7.38461 15.7251 7.6703 14.825C7.95599 13.925 7.72744 12.9825 7.0656 12.3086C5.66098 10.8761 5.88476 9.05241 6.72278 7.87903C7.56555 6.70566 9.23205 5.89984 11.0604 6.73864C11.927 7.13448 12.8984 7.03552 13.6602 6.47475C14.4268 5.91398 14.8029 5.01863 14.6648 4.08559C14.3792 2.11111 15.6409 0.763382 17.017 0.301572C18.393 -0.155526 20.2214 0.160201 21.2023 1.90377C21.6642 2.72843 22.5164 3.23265 23.464 3.20438C24.4163 3.19495 25.2495 2.69073 25.6971 1.85665C26.6398 0.0942283 28.4587 -0.26391 29.8491 0.164914C31.2346 0.593737 32.525 1.9132 32.2869 3.8971C32.1726 4.83485 32.5678 5.71606 33.3439 6.26269C34.1201 6.80933 35.0962 6.88473 35.9485 6.47004C37.7578 5.59354 39.4433 6.36165 40.3099 7.51618C41.1765 8.67071 41.4384 10.4897 40.0671 11.9505C39.4195 12.6432 39.2148 13.5857 39.5195 14.481C39.8243 15.3764 40.567 16.0031 41.505 16.1633C43.4906 16.5073 44.3952 18.1095 44.4143 19.5468C44.4333 20.9841 43.562 22.6098 41.5812 22.9915C40.648 23.1753 39.9195 23.8209 39.6338 24.7163C39.3481 25.6163 39.5767 26.5588 40.2385 27.2327C41.6431 28.6652 41.4193 30.4889 40.5813 31.6623C39.7386 32.8356 38.0721 33.6415 36.2437 32.8027C35.3771 32.4068 34.4057 32.5058 33.6439 33.0665C32.8773 33.6273 32.5012 34.5227 32.6393 35.4557C32.9249 37.4302 31.6632 38.7779 30.2871 39.2397C28.9111 39.6968 27.0827 39.3811 26.1018 37.6375C25.6447 36.8223 24.8115 36.3369 23.8687 36.3369H23.8401C22.8878 36.3463 22.0546 36.8506 21.607 37.6846C20.8976 39.0088 19.6929 39.5413 18.5502 39.5413V39.546ZM12.4889 31.8696C13.1983 31.8696 13.8983 32.0864 14.5125 32.5199C15.579 33.2692 16.1218 34.485 15.9647 35.7667C15.779 37.3077 16.8027 38.1936 17.7407 38.4857C18.6787 38.7779 20.031 38.6271 20.7642 37.2558C21.3737 36.1107 22.5212 35.4227 23.8258 35.4086H23.8687C25.159 35.4086 26.3018 36.073 26.9303 37.1898C27.6969 38.547 29.0491 38.6648 29.9824 38.3538C30.9109 38.0428 31.9203 37.138 31.6965 35.5971C31.5108 34.3153 32.0298 33.0901 33.0773 32.3173C34.1248 31.5445 35.4628 31.4125 36.6484 31.9544C38.072 32.6047 39.2386 31.9167 39.81 31.1251C40.3766 30.3334 40.6527 29.0139 39.5624 27.8971C38.6529 26.9688 38.3434 25.6776 38.7339 24.4429C39.1243 23.2083 40.1242 22.3224 41.4051 22.0726C42.943 21.771 43.481 20.5317 43.4668 19.5609C43.4572 18.5902 42.8954 17.3603 41.3479 17.0964C40.0623 16.8749 39.0434 16.0125 38.6244 14.7826C38.2054 13.5527 38.4863 12.2568 39.3767 11.3096C40.4432 10.1692 40.1385 8.8592 39.5529 8.07695C38.9672 7.29941 37.7864 6.63026 36.377 7.31355C35.2057 7.88374 33.8677 7.77536 32.8011 7.0261C31.7346 6.27683 31.1918 5.06105 31.3489 3.77929C31.5346 2.23835 30.5109 1.35243 29.5729 1.06026C28.6349 0.772807 27.2826 0.918889 26.5494 2.29018C25.9399 3.43528 24.7924 4.12329 23.4878 4.13742C22.1927 4.16099 21.0214 3.48712 20.3833 2.35616L20.7976 2.12525L20.3786 2.35616C19.6167 0.998999 18.2597 0.881191 17.3312 1.18749C16.4028 1.49851 15.3933 2.40328 15.6171 3.94422C15.8028 5.22598 15.2838 6.45119 14.2363 7.22401C13.1888 7.99684 11.8508 8.1335 10.6652 7.58687C9.24157 6.93185 8.07502 7.62456 7.50365 8.41624C6.93228 9.20791 6.66088 10.5274 7.75125 11.6442C8.66068 12.5725 8.97017 13.8637 8.57973 15.0984C8.1893 16.333 7.1894 17.2189 5.90857 17.4687C4.37063 17.7703 3.83259 19.0096 3.84687 19.9803C3.86115 20.9511 4.41824 22.181 5.96571 22.4449C7.25129 22.6664 8.27024 23.5287 8.68925 24.7587C9.10825 25.9886 8.82733 27.2845 7.93694 28.2317C6.87038 29.3721 7.17511 30.6821 7.76077 31.4643C8.34642 32.2419 9.52726 32.911 10.9366 32.2277C11.4366 31.9874 11.9651 31.8649 12.4889 31.8649V31.8696Z" fill="#231F20"/>
<path d="M23.6548 33.062C16.2508 33.062 10.2275 27.1009 10.2275 19.7732C10.2275 12.4455 16.2508 6.48438 23.6548 6.48438C31.0588 6.48438 37.082 12.4455 37.082 19.7732C37.082 27.1009 31.0588 33.062 23.6548 33.062ZM23.6548 7.89808C17.0364 7.89808 11.656 13.223 11.656 19.7732C11.656 26.3234 17.0364 31.6483 23.6548 31.6483C30.2732 31.6483 35.6536 26.3234 35.6536 19.7732C35.6536 13.223 30.2732 7.89808 23.6548 7.89808Z" fill="#231F20"/>
<path d="M22.2214 16.0644C22.2214 16.3942 22.1833 16.7382 22.1071 17.0964L25.2925 19.1038L24.1355 20.5741L21.2786 18.7645C20.9167 19.1792 20.4501 19.5421 19.8787 19.8531C19.3074 20.1641 18.6027 20.4091 17.7647 20.5882L16.8076 19.0331C17.9218 18.7975 18.7312 18.4441 19.2264 17.9729C19.7264 17.5016 19.9787 16.8607 19.9787 16.0502V13.9155H22.2214V16.0644ZM23.2213 26.3279C22.3642 26.3279 21.5929 26.276 20.912 26.1724C20.2311 26.0687 19.655 25.9085 19.1836 25.6917C18.7122 25.4749 18.3503 25.2063 18.1075 24.8859C17.8599 24.5654 17.7361 24.1837 17.7361 23.7408C17.7361 23.2978 17.8599 22.9303 18.1075 22.6004C18.3551 22.2752 18.7122 22.0066 19.1836 21.7946C19.655 21.5825 20.2311 21.4223 20.912 21.3233C21.5929 21.2244 22.3594 21.1678 23.2213 21.1678C24.0831 21.1678 24.8449 21.2197 25.5258 21.3233C26.2067 21.427 26.7828 21.5825 27.2542 21.7946C27.7256 22.0066 28.0875 22.2752 28.3303 22.6004C28.5779 22.9255 28.7017 23.3072 28.7017 23.7408C28.7017 24.1743 28.5779 24.5654 28.3303 24.8859C28.0827 25.2063 27.7256 25.4749 27.2542 25.6917C26.7828 25.9085 26.2067 26.0687 25.5258 26.1724C24.8449 26.276 24.0783 26.3279 23.2213 26.3279ZM23.2213 24.6031C24.2402 24.6031 25.0354 24.5372 25.6067 24.4052C26.1781 24.2733 26.4638 24.0518 26.4638 23.7408C26.4638 23.4298 26.1781 23.2083 25.6067 23.0763C25.0354 22.9444 24.2402 22.8784 23.2213 22.8784C22.2023 22.8784 21.4072 22.9444 20.8358 23.0763C20.2644 23.2083 19.9787 23.4298 19.9787 23.7408C19.9787 24.0518 20.2644 24.2733 20.8358 24.4052C21.4072 24.5372 22.2023 24.6031 23.2213 24.6031ZM28.4208 17.888V20.8144H26.1781V13.9438H28.4208V16.1633H29.6635V17.888H28.4208Z" fill="#231F20"/>
</g>
<defs>
<clipPath id="clip0_1671_258">
<rect width="48" height="48" fill="white"/>
</clipPath>
</defs>
</svg>
