<svg width="32" height="32" viewBox="0 0 32 32" fill="none" xmlns="http://www.w3.org/2000/svg">
<path fill-rule="evenodd" clip-rule="evenodd" d="M11.3032 1.40387C11.5174 1.19993 11.7986 1 12.1233 1C12.5199 1 12.846 1.05377 13.1239 1.16694C13.4064 1.28202 13.6153 1.4489 13.7885 1.63961C13.9396 1.80598 14.0692 1.99809 14.1899 2.17698L14.1899 2.177L14.1899 2.17702L14.2229 2.22581C14.3581 2.42573 14.4976 2.62696 14.6814 2.8337C15.2382 3.46009 15.7855 3.47018 15.8979 3.44544C15.9308 3.43683 15.9651 3.43232 16 3.43234C16.0349 3.43232 16.0692 3.43683 16.1021 3.44544C16.2145 3.47018 16.7618 3.46009 17.3186 2.8337C17.5024 2.62696 17.6419 2.42573 17.7771 2.22581L17.8101 2.17702L17.8101 2.177C17.9308 1.99811 18.0604 1.80598 18.2115 1.63961C18.3847 1.4489 18.5936 1.28202 18.8761 1.16694C19.154 1.05377 19.4801 1 19.8767 1C20.2014 1 20.4826 1.19993 20.6968 1.40387C20.9258 1.62192 21.158 1.92217 21.3881 2.26905C21.8499 2.96538 22.3443 3.91311 22.8254 4.93937C23.7687 6.95155 24.6865 9.32041 25.2403 10.8333C26.2187 11.2702 27.6045 12.0417 28.7673 13.0277C29.9501 14.0306 31 15.3387 31 16.8108C31 17.5775 30.6578 18.2873 30.157 18.9147C29.6554 19.543 28.9725 20.1176 28.2323 20.6244C26.7922 21.6103 25.0759 22.3798 23.8764 22.8104C23.2606 24.192 22.1807 26.1808 20.8493 27.8466C20.1676 28.6994 19.4098 29.4806 18.6031 30.0515C17.7977 30.6214 16.9173 31 16 31C15.0827 31 14.2023 30.6214 13.3969 30.0515C12.5902 29.4806 11.8324 28.6994 11.1507 27.8466C9.81931 26.1808 8.73941 24.192 8.12362 22.8104C6.92405 22.3798 5.20776 21.6103 3.76772 20.6244C3.02752 20.1176 2.34457 19.543 1.84304 18.9147C1.34223 18.2873 1 17.5775 1 16.8108C1 15.3387 2.0499 14.0306 3.23269 13.0277C4.39555 12.0417 5.78127 11.2702 6.75967 10.8333C7.31354 9.32041 8.23128 6.95155 9.17462 4.93937C9.65574 3.91311 10.1501 2.96538 10.6119 2.26905C10.842 1.92217 11.0742 1.62192 11.3032 1.40387ZM14.0754 3.37238C14.7576 4.13992 15.5416 4.31705 16 4.25034C16.4584 4.31705 17.2424 4.13992 17.9246 3.37238C18.1463 3.12304 18.3108 2.88402 18.4487 2.68012L18.4737 2.64322L18.4737 2.64319L18.4737 2.64318L18.4737 2.64313C18.6041 2.45031 18.7017 2.30586 18.8117 2.18471C18.9204 2.06504 19.033 1.97853 19.182 1.91784C19.3357 1.85523 19.5512 1.81081 19.8767 1.81081C19.8765 1.81081 19.8767 1.81084 19.8771 1.81093C19.8843 1.81239 19.9678 1.82938 20.1377 1.9911C20.3036 2.14906 20.4971 2.39267 20.7124 2.7172C21.1411 3.36368 21.6156 4.26899 22.0912 5.28355C22.9165 7.04379 23.7255 9.09008 24.2817 10.5788C16.8657 9.00418 10.6478 9.7602 7.74052 10.5194C8.29588 9.03595 9.09445 7.02049 9.90875 5.28355C10.3844 4.26899 10.8589 3.36368 11.2876 2.7172C11.5029 2.39267 11.6964 2.14906 11.8623 1.9911C12.0322 1.82938 12.1157 1.81239 12.1229 1.81093C12.1233 1.81084 12.1235 1.81081 12.1233 1.81081C12.4488 1.81081 12.6643 1.85523 12.818 1.91784C12.967 1.97853 13.0796 2.06504 13.1883 2.18471C13.2983 2.30587 13.3959 2.45033 13.5263 2.64317L13.5263 2.64321L13.5263 2.64322L13.5513 2.68012C13.6892 2.88402 13.8537 3.12304 14.0754 3.37238ZM7.21259 11.5186C7.20194 11.5241 7.19109 11.5292 7.18005 11.534C6.25072 11.9392 4.88392 12.6906 3.75706 13.6461C2.61144 14.6175 1.81081 15.7169 1.81081 16.8108C1.81081 17.3293 2.04266 17.8651 2.47672 18.4089C2.91007 18.9517 3.5228 19.474 4.22578 19.9554C5.35059 20.7255 6.6662 21.3636 7.74007 21.7964C7.6684 21.5856 7.61102 21.3969 7.56738 21.2379C6.58523 21.0424 5.86491 19.9936 5.86491 18.4324C5.86491 17.7271 6.13804 17.2244 6.52516 16.897C6.82793 16.6409 7.18163 16.507 7.48653 16.4468V16.0383C7.48653 15.9505 7.50698 15.8614 7.54907 15.7798C8.29781 14.3281 9.94376 13.6269 11.5645 13.3075C13.1803 12.9891 14.89 13.0256 16 13.1591C17.11 13.0256 18.8197 12.9891 20.4355 13.3075C22.0562 13.6269 23.7022 14.3281 24.4509 15.7798C24.493 15.8614 24.5135 15.9505 24.5135 16.0383V16.4468C24.8184 16.507 25.1721 16.6409 25.4748 16.897C25.862 17.2244 26.1351 17.7271 26.1351 18.4324C26.1351 19.9936 25.4148 21.0424 24.4326 21.2379C24.389 21.3969 24.3316 21.5856 24.2599 21.7964C25.3338 21.3636 26.6494 20.7255 27.7742 19.9554C28.4772 19.474 29.0899 18.9517 29.5233 18.4089C29.9573 17.8651 30.1892 17.3293 30.1892 16.8108C30.1892 15.7169 29.3886 14.6175 28.2429 13.6461C27.1161 12.6906 25.7493 11.9392 24.82 11.534C24.8118 11.5305 24.8038 11.5267 24.7958 11.5228C16.4535 9.60457 9.57356 10.7327 7.21259 11.5186ZM22.3104 24.1411C22.3034 24.0556 22.3233 23.9672 22.3731 23.8894C23.1165 22.7291 23.54 21.4729 23.685 20.8931C23.7494 20.6355 23.9704 20.4789 24.195 20.4548C24.6669 20.4041 25.3243 19.8616 25.3243 18.4324C25.3243 17.9599 25.1518 17.6857 24.9512 17.516C24.7359 17.3339 24.4556 17.2465 24.2279 17.2228C23.9574 17.1946 23.7027 16.9702 23.7027 16.6486V16.0993C23.1162 15.0221 21.8104 14.4048 20.2788 14.103C18.7469 13.8012 17.1046 13.839 16.0597 13.9687C16.0401 13.9715 16.0202 13.973 16 13.973C15.9798 13.973 15.9599 13.9715 15.9403 13.9687C14.8954 13.839 13.2531 13.8012 11.7212 14.103C10.1896 14.4048 8.88377 15.0221 8.29734 16.0993V16.6486C8.29734 16.9702 8.04258 17.1946 7.77213 17.2228C7.54442 17.2465 7.26406 17.3339 7.0488 17.516C6.84817 17.6857 6.67572 17.9599 6.67572 18.4324C6.67572 19.8616 7.33313 20.4041 7.80501 20.4548C8.02965 20.4789 8.25061 20.6355 8.31505 20.8931C8.46004 21.4729 8.88353 22.7291 9.62688 23.8894C9.67672 23.9672 9.69664 24.0556 9.6896 24.1411C10.2577 25.1833 10.9745 26.3274 11.7841 27.3404C12.4379 28.1583 13.1418 28.8776 13.8653 29.3896C14.5901 29.9026 15.3083 30.1892 16 30.1892C16.6917 30.1892 17.4099 29.9026 18.1347 29.3896C18.8582 28.8776 19.5621 28.1583 20.2159 27.3404C21.0255 26.3274 21.7423 25.1833 22.3104 24.1411Z" fill="#376A4F"/>
<path d="M11.3032 1.40387L10.9585 1.04174V1.04174L11.3032 1.40387ZM13.1239 1.16694L12.9353 1.62999V1.62999L13.1239 1.16694ZM13.7885 1.63961L14.1586 1.30346L14.1586 1.30346L13.7885 1.63961ZM14.1899 2.17698L13.7754 2.45661L13.7803 2.46393L13.7855 2.47107L14.1899 2.17698ZM14.1899 2.177L14.6139 1.912L14.6046 1.89711L14.5943 1.88292L14.1899 2.177ZM14.1899 2.17702L13.7659 2.44202L13.7706 2.44951L13.7755 2.45683L14.1899 2.17702ZM14.2229 2.22581L13.8085 2.50562L13.8087 2.50597L14.2229 2.22581ZM14.6814 2.8337L15.0551 2.50152L14.6814 2.8337ZM15.8979 3.44544L16.0054 3.93373L16.0149 3.93165L16.0242 3.9292L15.8979 3.44544ZM16 3.43234L15.9996 3.93234L16.0004 3.93234L16 3.43234ZM16.1021 3.44544L15.9758 3.9292L15.9851 3.93165L15.9946 3.93373L16.1021 3.44544ZM17.3186 2.8337L16.9449 2.50152L17.3186 2.8337ZM17.7771 2.22581L18.1913 2.50597L18.1915 2.50563L17.7771 2.22581ZM17.8101 2.17702L17.4172 1.86783L17.4059 1.88212L17.3957 1.8972L17.8101 2.17702ZM17.8101 2.177L18.203 2.4862L18.2144 2.47181L18.2246 2.45663L17.8101 2.177ZM18.2115 1.63961L18.5816 1.97576L18.5816 1.97576L18.2115 1.63961ZM18.8761 1.16694L18.6875 0.703879L18.6875 0.703879L18.8761 1.16694ZM20.6968 1.40387L20.352 1.766V1.766L20.6968 1.40387ZM21.3881 2.26905L20.9714 2.54541V2.54541L21.3881 2.26905ZM22.8254 4.93937L23.2781 4.72713V4.72713L22.8254 4.93937ZM25.2403 10.8333L24.7708 11.0052L24.8435 11.2037L25.0365 11.2898L25.2403 10.8333ZM28.7673 13.0277L29.0907 12.6463V12.6463L28.7673 13.0277ZM30.157 18.9147L29.7662 18.6028L30.157 18.9147ZM28.2323 20.6244L28.5148 21.0369V21.0369L28.2323 20.6244ZM23.8764 22.8104L23.7075 22.3398L23.5066 22.4119L23.4197 22.6069L23.8764 22.8104ZM20.8493 27.8466L20.4587 27.5344V27.5344L20.8493 27.8466ZM18.6031 30.0515L18.3142 29.6433L18.3142 29.6433L18.6031 30.0515ZM13.3969 30.0515L13.6858 29.6433L13.6858 29.6433L13.3969 30.0515ZM11.1507 27.8466L11.5413 27.5344V27.5344L11.1507 27.8466ZM8.12362 22.8104L8.58031 22.6069L8.49342 22.4119L8.29254 22.3398L8.12362 22.8104ZM3.76772 20.6244L3.48525 21.0369L3.76772 20.6244ZM1.84304 18.9147L2.23381 18.6028H2.23381L1.84304 18.9147ZM3.23269 13.0277L2.90933 12.6463H2.90933L3.23269 13.0277ZM6.75967 10.8333L6.96353 11.2898L7.15653 11.2037L7.22919 11.0052L6.75967 10.8333ZM9.17462 4.93937L9.62734 5.15162V5.15161L9.17462 4.93937ZM10.6119 2.26905L10.1952 1.99269V1.99269L10.6119 2.26905ZM16 4.25034L16.072 3.75555L16 3.74507L15.928 3.75555L16 4.25034ZM14.0754 3.37238L14.4491 3.0402V3.04019L14.0754 3.37238ZM17.9246 3.37238L17.5509 3.04019V3.0402L17.9246 3.37238ZM18.4487 2.68012L18.8629 2.96027L18.8629 2.96018L18.4487 2.68012ZM18.4737 2.64322L18.8879 2.92328L18.8884 2.92258L18.4737 2.64322ZM18.4737 2.64319L18.8884 2.92256L18.8897 2.92054L18.4737 2.64319ZM18.4737 2.64318L18.0658 2.35403L18.0617 2.35987L18.0577 2.36583L18.4737 2.64318ZM18.4737 2.64313L18.8817 2.93236L18.888 2.92313L18.4737 2.64313ZM18.8117 2.18471L18.4416 1.84857V1.84857L18.8117 2.18471ZM19.182 1.91784L19.3706 2.3809V2.3809L19.182 1.91784ZM19.8771 1.81093L19.9768 1.32096L19.9766 1.32092L19.8771 1.81093ZM20.1377 1.9911L20.4825 1.62897L20.4824 1.62897L20.1377 1.9911ZM20.7124 2.7172L21.1291 2.44084V2.44084L20.7124 2.7172ZM22.0912 5.28355L22.544 5.07131V5.07131L22.0912 5.28355ZM24.2817 10.5788L24.1778 11.0679L25.0688 11.2571L24.7501 10.4038L24.2817 10.5788ZM7.74052 10.5194L7.27226 10.3441L6.93436 11.2467L7.86685 11.0032L7.74052 10.5194ZM9.90875 5.28355L9.45604 5.07131V5.07131L9.90875 5.28355ZM11.2876 2.7172L10.8709 2.44084V2.44084L11.2876 2.7172ZM11.8623 1.9911L12.2071 2.35323L12.2071 2.35323L11.8623 1.9911ZM12.1229 1.81093L12.0233 1.32096L12.0232 1.32096L12.1229 1.81093ZM12.818 1.91784L12.6294 2.3809L12.6294 2.3809L12.818 1.91784ZM13.1883 2.18471L12.8181 2.52086L12.8181 2.52086L13.1883 2.18471ZM13.5263 2.64317L13.112 2.92318L13.1143 2.92644L13.5263 2.64317ZM13.5263 2.64321L13.9551 2.38596L13.9471 2.3727L13.9383 2.35995L13.5263 2.64321ZM13.5263 2.64322L13.0976 2.90047L13.1045 2.91207L13.1121 2.92328L13.5263 2.64322ZM13.5513 2.68012L13.1371 2.96018L13.1371 2.96027L13.5513 2.68012ZM7.18005 11.534L6.98022 11.0757L6.9802 11.0757L7.18005 11.534ZM7.21259 11.5186L7.05468 11.0442L7.01856 11.0562L6.98468 11.0736L7.21259 11.5186ZM3.75706 13.6461L4.08043 14.0275L3.75706 13.6461ZM2.47672 18.4089L2.08595 18.7208L2.47672 18.4089ZM4.22578 19.9554L4.50826 19.5428H4.50826L4.22578 19.9554ZM7.74007 21.7964L7.55317 22.2601L8.56459 22.6677L8.21344 21.6353L7.74007 21.7964ZM7.56738 21.2379L8.04954 21.1055L7.9678 20.8078L7.66499 20.7475L7.56738 21.2379ZM6.52516 16.897L6.20225 16.5152L6.20225 16.5152L6.52516 16.897ZM7.48653 16.4468L7.58339 16.9373L7.98653 16.8577V16.4468H7.48653ZM7.54907 15.7798L7.99344 16.009V16.009L7.54907 15.7798ZM11.5645 13.3075L11.4678 12.8169L11.5645 13.3075ZM16 13.1591L15.9403 13.6555L16 13.6627L16.0597 13.6555L16 13.1591ZM20.4355 13.3075L20.5322 12.8169L20.4355 13.3075ZM24.4509 15.7798L24.8953 15.5506V15.5506L24.4509 15.7798ZM24.5135 16.4468H24.0135V16.8577L24.4166 16.9373L24.5135 16.4468ZM25.4748 16.897L25.1519 17.2787V17.2787L25.4748 16.897ZM24.4326 21.2379L24.335 20.7475L24.0322 20.8078L23.9505 21.1055L24.4326 21.2379ZM24.2599 21.7964L23.7866 21.6353L23.4354 22.6677L24.4468 22.2601L24.2599 21.7964ZM27.7742 19.9554L28.0567 20.3679H28.0567L27.7742 19.9554ZM29.5233 18.4089L29.914 18.7208L29.5233 18.4089ZM28.2429 13.6461L28.5663 13.2647V13.2647L28.2429 13.6461ZM24.82 11.534L25.0198 11.0757L25.0198 11.0757L24.82 11.534ZM24.7958 11.5228L25.0164 11.0741L24.9644 11.0486L24.9079 11.0356L24.7958 11.5228ZM22.3731 23.8894L21.9521 23.6197L22.3731 23.8894ZM22.3104 24.1411L22.7494 24.3804L22.821 24.2491L22.8087 24.1L22.3104 24.1411ZM23.685 20.8931L24.17 21.0144L23.685 20.8931ZM24.195 20.4548L24.2484 20.9519H24.2484L24.195 20.4548ZM24.9512 17.516L24.6283 17.8978H24.6283L24.9512 17.516ZM24.2279 17.2228L24.1761 17.7201L24.2279 17.2228ZM23.7027 16.0993H24.2027V15.972L24.1418 15.8602L23.7027 16.0993ZM20.2788 14.103L20.1821 14.5936H20.1821L20.2788 14.103ZM16.0597 13.9687L15.9981 13.4723L15.9864 13.4741L16.0597 13.9687ZM16 13.973L16.0007 13.473L15.9993 13.473L16 13.973ZM15.9403 13.9687L16.0136 13.4739L16.0019 13.4725L15.9403 13.9687ZM11.7212 14.103L11.8179 14.5936L11.7212 14.103ZM8.29734 16.0993L7.8582 15.8602L7.79734 15.972V16.0993H8.29734ZM7.77213 17.2228L7.82392 17.7201H7.82392L7.77213 17.2228ZM7.0488 17.516L7.37171 17.8978L7.0488 17.516ZM7.80501 20.4548L7.75155 20.9519H7.75155L7.80501 20.4548ZM8.31505 20.8931L7.82999 21.0144L8.31505 20.8931ZM9.62688 23.8894L10.0479 23.6197L9.62688 23.8894ZM9.6896 24.1411L9.19128 24.1L9.179 24.2491L9.25057 24.3804L9.6896 24.1411ZM11.7841 27.3404L11.3935 27.6525L11.7841 27.3404ZM13.8653 29.3896L13.5765 29.7978H13.5765L13.8653 29.3896ZM18.1347 29.3896L18.4235 29.7978L18.1347 29.3896ZM20.2159 27.3404L20.6065 27.6525L20.2159 27.3404ZM12.1233 0.5C11.5966 0.5 11.1933 0.818186 10.9585 1.04174L11.648 1.766C11.8416 1.58168 12.0005 1.5 12.1233 1.5V0.5ZM13.3125 0.703879C12.9581 0.559527 12.5638 0.5 12.1233 0.5V1.5C12.4761 1.5 12.734 1.548 12.9353 1.62999L13.3125 0.703879ZM14.1586 1.30346C13.9457 1.06899 13.6774 0.852528 13.3125 0.703879L12.9353 1.62999C13.1354 1.71152 13.2849 1.82881 13.4184 1.97576L14.1586 1.30346ZM14.6044 1.89735C14.4872 1.72368 14.338 1.50099 14.1586 1.30346L13.4184 1.97576C13.5411 2.11096 13.6512 2.27251 13.7754 2.45661L14.6044 1.89735ZM14.5943 1.88292L14.5942 1.8829L13.7855 2.47107L13.7855 2.47109L14.5943 1.88292ZM14.6139 1.91202L14.6139 1.912L13.7659 2.442L13.7659 2.44202L14.6139 1.91202ZM14.6372 1.94601L14.6043 1.89721L13.7755 2.45683L13.8085 2.50562L14.6372 1.94601ZM15.0551 2.50152C14.8947 2.32108 14.7706 2.1432 14.637 1.94566L13.8087 2.50597C13.9456 2.70826 14.1005 2.93284 14.3077 3.16589L15.0551 2.50152ZM15.7903 2.95714C15.8735 2.93882 15.5048 3.00746 15.0551 2.50152L14.3077 3.16589C14.9715 3.91271 15.6976 4.00154 16.0054 3.93373L15.7903 2.95714ZM16.0004 2.93234C15.9221 2.93228 15.8452 2.94241 15.7715 2.96167L16.0242 3.9292C16.0164 3.93124 16.0081 3.93235 15.9996 3.93234L16.0004 2.93234ZM16.2285 2.96167C16.1548 2.94241 16.0779 2.93228 15.9996 2.93234L16.0004 3.93234C15.9919 3.93235 15.9836 3.93124 15.9758 3.9292L16.2285 2.96167ZM16.9449 2.50152C16.4952 3.00746 16.1265 2.93882 16.2097 2.95714L15.9946 3.93373C16.3024 4.00154 17.0285 3.91271 17.6923 3.16589L16.9449 2.50152ZM17.363 1.94566C17.2294 2.1432 17.1053 2.32108 16.9449 2.50152L17.6923 3.16589C17.8995 2.93284 18.0544 2.70826 18.1913 2.50597L17.363 1.94566ZM17.3957 1.8972L17.3628 1.946L18.1915 2.50563L18.2245 2.45684L17.3957 1.8972ZM17.4172 1.86781L17.4172 1.86783L18.203 2.48622L18.203 2.4862L17.4172 1.86781ZM17.8414 1.30346C17.662 1.50099 17.5128 1.7237 17.3956 1.89738L18.2246 2.45663C18.3488 2.27251 18.4588 2.11097 18.5816 1.97576L17.8414 1.30346ZM18.6875 0.703879C18.3226 0.852527 18.0543 1.06899 17.8414 1.30346L18.5816 1.97576C18.7151 1.82881 18.8646 1.71152 19.0647 1.62999L18.6875 0.703879ZM19.8767 0.5C19.4362 0.5 19.0419 0.559527 18.6875 0.703879L19.0647 1.62999C19.266 1.548 19.5239 1.5 19.8767 1.5V0.5ZM21.0415 1.04174C20.8067 0.818186 20.4034 0.5 19.8767 0.5V1.5C19.9995 1.5 20.1584 1.58168 20.352 1.766L21.0415 1.04174ZM21.8048 1.99269C21.5655 1.63199 21.3095 1.29683 21.0415 1.04174L20.352 1.766C20.5421 1.94701 20.7505 2.21235 20.9714 2.54541L21.8048 1.99269ZM23.2781 4.72713C22.7936 3.69364 22.287 2.71976 21.8048 1.99269L20.9714 2.54541C21.4128 3.21101 21.8949 4.13258 22.3727 5.15162L23.2781 4.72713ZM25.7099 10.6614C25.1539 9.14282 24.2304 6.75844 23.2781 4.72713L22.3727 5.15162C23.307 7.14465 24.219 9.49801 24.7708 11.0052L25.7099 10.6614ZM29.0907 12.6463C27.8829 11.6222 26.4537 10.8275 25.4442 10.3767L25.0365 11.2898C25.9838 11.7129 27.326 12.4611 28.4439 13.409L29.0907 12.6463ZM31.5 16.8108C31.5 15.1053 30.2962 13.6686 29.0907 12.6463L28.4439 13.409C29.604 14.3926 30.5 15.572 30.5 16.8108H31.5ZM30.5477 19.2266C31.0896 18.5478 31.5 17.7307 31.5 16.8108H30.5C30.5 17.4244 30.2259 18.0268 29.7662 18.6028L30.5477 19.2266ZM28.5148 21.0369C29.2779 20.5144 30.0042 19.9076 30.5477 19.2266L29.7662 18.6028C29.3067 19.1784 28.667 19.7207 27.9498 20.2118L28.5148 21.0369ZM24.0453 23.281C25.2718 22.8408 27.0295 22.0539 28.5148 21.0369L27.9498 20.2118C26.555 21.1668 24.8801 21.9189 23.7075 22.3398L24.0453 23.281ZM21.2398 28.1588C22.6048 26.451 23.7051 24.4228 24.3331 23.014L23.4197 22.6069C22.816 23.9612 21.7566 25.9105 20.4587 27.5344L21.2398 28.1588ZM18.8919 30.4596C19.7499 29.8524 20.541 29.0331 21.2398 28.1588L20.4587 27.5344C19.7942 28.3657 19.0696 29.1088 18.3142 29.6433L18.8919 30.4596ZM16 31.5C17.0565 31.5 18.0369 31.0647 18.8919 30.4596L18.3142 29.6433C17.5585 30.1782 16.7781 30.5 16 30.5V31.5ZM13.1081 30.4596C13.9631 31.0647 14.9435 31.5 16 31.5V30.5C15.2219 30.5 14.4415 30.1782 13.6858 29.6433L13.1081 30.4596ZM10.7602 28.1588C11.459 29.0331 12.2501 29.8524 13.1081 30.4596L13.6858 29.6433C12.9304 29.1088 12.2058 28.3657 11.5413 27.5344L10.7602 28.1588ZM7.66693 23.014C8.29486 24.4228 9.39524 26.451 10.7602 28.1588L11.5413 27.5344C10.2434 25.9105 9.18397 23.9612 8.58031 22.6069L7.66693 23.014ZM3.48525 21.0369C4.97051 22.0539 6.72824 22.8408 7.95469 23.281L8.29254 22.3398C7.11986 21.9189 5.44501 21.1668 4.05019 20.2118L3.48525 21.0369ZM1.45227 19.2266C1.99584 19.9076 2.72208 20.5144 3.48525 21.0369L4.05019 20.2118C3.33295 19.7207 2.6933 19.1784 2.23381 18.6028L1.45227 19.2266ZM0.5 16.8108C0.5 17.7307 0.910401 18.5478 1.45227 19.2266L2.23381 18.6028C1.77406 18.0268 1.5 17.4244 1.5 16.8108H0.5ZM2.90933 12.6463C1.70376 13.6686 0.5 15.1053 0.5 16.8108H1.5C1.5 15.572 2.39605 14.3926 3.55605 13.409L2.90933 12.6463ZM6.5558 10.3767C5.54631 10.8275 4.11714 11.6222 2.90933 12.6463L3.55605 13.409C4.67396 12.4611 6.01622 11.7129 6.96353 11.2898L6.5558 10.3767ZM8.7219 4.72713C7.76959 6.75844 6.8461 9.14281 6.29014 10.6614L7.22919 11.0052C7.78097 9.49801 8.69297 7.14465 9.62734 5.15162L8.7219 4.72713ZM10.1952 1.99269C9.71302 2.71976 9.20641 3.69364 8.7219 4.72713L9.62734 5.15161C10.1051 4.13258 10.5872 3.21101 11.0286 2.54541L10.1952 1.99269ZM10.9585 1.04174C10.6905 1.29683 10.4345 1.63199 10.1952 1.99269L11.0286 2.54541C11.2495 2.21235 11.4579 1.94701 11.648 1.766L10.9585 1.04174ZM15.928 3.75555C15.652 3.79572 15.0307 3.6945 14.4491 3.0402L13.7017 3.70456C14.4846 4.58533 15.4313 4.83838 16.072 4.74513L15.928 3.75555ZM17.5509 3.0402C16.9693 3.6945 16.348 3.79572 16.072 3.75555L15.928 4.74513C16.5687 4.83838 17.5154 4.58533 18.2983 3.70456L17.5509 3.0402ZM18.0346 2.39996C17.8984 2.60134 17.7492 2.81709 17.5509 3.04019L18.2983 3.70456C18.5433 3.42899 18.7232 3.16671 18.8629 2.96027L18.0346 2.39996ZM18.0595 2.36316L18.0345 2.40006L18.8629 2.96018L18.8879 2.92328L18.0595 2.36316ZM18.059 2.36383L18.059 2.36386L18.8884 2.92258L18.8884 2.92256L18.059 2.36383ZM18.0577 2.36583L18.0577 2.36584L18.8897 2.92054L18.8897 2.92053L18.0577 2.36583ZM18.0658 2.35398L18.0658 2.35403L18.8816 2.93233L18.8816 2.93229L18.0658 2.35398ZM18.4416 1.84857C18.3026 2.00164 18.184 2.179 18.0595 2.36314L18.888 2.92313C19.0242 2.72162 19.1008 2.61009 19.1819 2.52086L18.4416 1.84857ZM18.9934 1.45478C18.7621 1.54899 18.5901 1.68502 18.4416 1.84857L19.1819 2.52086C19.2507 2.44505 19.3039 2.40807 19.3706 2.3809L18.9934 1.45478ZM19.8767 1.31081C19.5073 1.31081 19.2236 1.361 18.9934 1.45478L19.3706 2.3809C19.4478 2.34946 19.5951 2.31081 19.8767 2.31081V1.31081ZM19.9766 1.32092C19.9669 1.31896 19.9856 1.32253 20.0023 1.32687C20.005 1.32758 20.0293 1.33365 20.0586 1.34511C20.0668 1.34833 20.1157 1.36679 20.1692 1.40533C20.193 1.42256 20.2607 1.47352 20.3126 1.56607C20.378 1.68258 20.4116 1.86012 20.3232 2.0357C20.2541 2.17294 20.1451 2.23465 20.1082 2.25394C20.0615 2.27837 20.0213 2.28981 20.0026 2.2947C19.9635 2.30486 19.932 2.30783 19.9226 2.3087C19.8989 2.31089 19.8801 2.31081 19.8767 2.31081V1.31081C19.8732 1.31081 19.8544 1.31074 19.8307 1.31293C19.8212 1.3138 19.7898 1.31677 19.7507 1.32693C19.7319 1.33181 19.6918 1.34326 19.645 1.36769C19.6081 1.38698 19.4992 1.44869 19.43 1.58594C19.3416 1.76151 19.3752 1.93905 19.4406 2.05557C19.4926 2.14811 19.5602 2.19908 19.5841 2.21631C19.6375 2.25486 19.6864 2.27331 19.6947 2.27654C19.724 2.288 19.7483 2.29408 19.7511 2.2948C19.7589 2.29683 19.765 2.29822 19.7676 2.29879C19.7706 2.29946 19.773 2.29997 19.7742 2.30022C19.7754 2.30049 19.7764 2.30069 19.7769 2.30078C19.7771 2.30083 19.7773 2.30087 19.7774 2.3009C19.7776 2.30092 19.7777 2.30094 19.7777 2.30094L19.9766 1.32092ZM20.4824 1.62897C20.2658 1.42268 20.1011 1.34625 19.9768 1.32096L19.7775 2.3009C19.7775 2.30091 19.7757 2.30055 19.7735 2.30007C19.7712 2.29959 19.7687 2.29902 19.7659 2.29837C19.7603 2.29707 19.7547 2.29565 19.7492 2.29412C19.7382 2.29104 19.7287 2.28787 19.7209 2.28492C19.7053 2.27905 19.6975 2.27459 19.6978 2.27474C19.699 2.27545 19.7306 2.2939 19.7929 2.35323L20.4824 1.62897ZM21.1291 2.44084C20.9047 2.10258 20.6873 1.82401 20.4825 1.62897L19.7929 2.35323C19.9199 2.47411 20.0896 2.68276 20.2957 2.99356L21.1291 2.44084ZM22.544 5.07131C22.0649 4.04954 21.5782 3.11807 21.1291 2.44084L20.2957 2.99356C20.7041 3.60929 21.1663 4.48843 21.6385 5.49579L22.544 5.07131ZM24.7501 10.4038C24.1919 8.90956 23.3774 6.84909 22.544 5.07131L21.6385 5.49579C22.4555 7.2385 23.2592 9.2706 23.8133 10.7538L24.7501 10.4038ZM7.86685 11.0032C10.7039 10.2623 16.8429 9.51048 24.1778 11.0679L24.3855 10.0897C16.8885 8.49788 10.5917 9.25809 7.6142 10.0356L7.86685 11.0032ZM9.45604 5.07131C8.63359 6.82561 7.82969 8.85512 7.27226 10.3441L8.20879 10.6947C8.76207 9.21679 9.55531 7.21537 10.3615 5.49579L9.45604 5.07131ZM10.8709 2.44084C10.4218 3.11807 9.93505 4.04954 9.45604 5.07131L10.3615 5.49579C10.8337 4.48843 11.2959 3.60929 11.7043 2.99356L10.8709 2.44084ZM11.5176 1.62897C11.3127 1.82401 11.0953 2.10258 10.8709 2.44084L11.7043 2.99356C11.9104 2.68276 12.0801 2.47411 12.2071 2.35323L11.5176 1.62897ZM12.0232 1.32096C11.8989 1.34624 11.7342 1.42268 11.5175 1.62898L12.2071 2.35323C12.2694 2.2939 12.301 2.27545 12.3022 2.27474C12.3025 2.27459 12.2947 2.27905 12.2791 2.28492C12.2713 2.28787 12.2618 2.29104 12.2508 2.29412C12.2453 2.29565 12.2397 2.29707 12.2341 2.29837C12.2313 2.29902 12.2288 2.29959 12.2265 2.30007C12.2243 2.30055 12.2225 2.30091 12.2225 2.30091L12.0232 1.32096ZM12.1233 2.31081C12.1198 2.31081 12.1013 2.31088 12.0777 2.30873C12.0683 2.30786 12.0373 2.30495 11.9988 2.29505C11.9803 2.29028 11.941 2.2792 11.8951 2.25568C11.8591 2.2372 11.7526 2.17815 11.6821 2.04594C11.5912 1.87526 11.6171 1.69672 11.6829 1.57429C11.7345 1.47819 11.8036 1.42523 11.8279 1.40744C11.8823 1.36765 11.9323 1.3487 11.9404 1.34549C11.9701 1.33382 11.9947 1.32766 11.9974 1.32696C12.0142 1.32257 12.033 1.31897 12.0233 1.32096L12.2225 2.30091C12.2225 2.30091 12.2226 2.30089 12.2227 2.30086C12.2228 2.30084 12.223 2.3008 12.2233 2.30075C12.2237 2.30066 12.2247 2.30045 12.226 2.30018C12.2272 2.29994 12.2296 2.29943 12.2326 2.29874C12.2352 2.29818 12.2414 2.29677 12.2493 2.29472C12.252 2.29401 12.2766 2.28784 12.3063 2.27616C12.3145 2.27294 12.3645 2.254 12.4188 2.21421C12.4431 2.19641 12.5123 2.14345 12.5639 2.04734C12.6296 1.92492 12.6556 1.74637 12.5646 1.57569C12.4942 1.44348 12.3876 1.38443 12.3516 1.36595C12.3058 1.34243 12.2665 1.33135 12.2479 1.32658C12.2094 1.31667 12.1784 1.31376 12.169 1.3129C12.1454 1.31074 12.1268 1.31081 12.1233 1.31081V2.31081ZM13.0066 1.45478C12.7764 1.361 12.4927 1.31081 12.1233 1.31081V2.31081C12.4049 2.31081 12.5522 2.34946 12.6294 2.3809L13.0066 1.45478ZM13.5584 1.84857C13.4099 1.68502 13.2379 1.54899 13.0066 1.45478L12.6294 2.3809C12.6961 2.40807 12.7493 2.44505 12.8181 2.52086L13.5584 1.84857ZM13.9405 2.36318C13.8161 2.17902 13.6974 2.00165 13.5584 1.84857L12.8181 2.52086C12.8992 2.6101 12.9758 2.72164 13.112 2.92317L13.9405 2.36318ZM13.9383 2.35995L13.9383 2.35991L13.1143 2.92644L13.1143 2.92648L13.9383 2.35995ZM13.9551 2.38598L13.9551 2.38596L13.0976 2.90046L13.0976 2.90047L13.9551 2.38598ZM13.9655 2.40006L13.9405 2.36316L13.1121 2.92328L13.1371 2.96018L13.9655 2.40006ZM14.4491 3.04019C14.2508 2.81709 14.1016 2.60134 13.9654 2.39997L13.1371 2.96027C13.2768 3.16671 13.4567 3.42899 13.7017 3.70456L14.4491 3.04019ZM7.37988 11.9924C7.4004 11.9834 7.42062 11.9738 7.44051 11.9636L6.98468 11.0736C6.98325 11.0743 6.98177 11.075 6.98022 11.0757L7.37988 11.9924ZM4.08043 14.0275C5.16121 13.111 6.48319 12.3833 7.37989 11.9923L6.9802 11.0757C6.01826 11.4951 4.60662 12.2702 3.4337 13.2647L4.08043 14.0275ZM2.31081 16.8108C2.31081 15.9501 2.95788 14.9793 4.08043 14.0275L3.4337 13.2647C2.265 14.2557 1.31081 15.4838 1.31081 16.8108H2.31081ZM2.8675 18.0969C2.47472 17.6049 2.31081 17.1764 2.31081 16.8108H1.31081C1.31081 17.4823 1.6106 18.1253 2.08595 18.7208L2.8675 18.0969ZM4.50826 19.5428C3.82821 19.0772 3.25879 18.5871 2.8675 18.0969L2.08595 18.7208C2.56135 19.3164 3.21739 19.8709 3.94331 20.3679L4.50826 19.5428ZM7.92698 21.3326C6.87494 20.9086 5.59424 20.2863 4.50826 19.5428L3.94331 20.3679C5.10695 21.1646 6.45746 21.8185 7.55317 22.2601L7.92698 21.3326ZM7.08522 21.3703C7.13164 21.5393 7.19199 21.7377 7.26671 21.9574L8.21344 21.6353C8.14481 21.4336 8.0904 21.2544 8.04954 21.1055L7.08522 21.3703ZM5.36491 18.4324C5.36491 20.1155 6.1556 21.4667 7.46978 21.7283L7.66499 20.7475C7.01485 20.6181 6.36491 19.8718 6.36491 18.4324H5.36491ZM6.20225 16.5152C5.70009 16.94 5.36491 17.5836 5.36491 18.4324H6.36491C6.36491 17.8706 6.57599 17.5089 6.84807 17.2787L6.20225 16.5152ZM7.38967 15.9563C7.02327 16.0286 6.58503 16.1915 6.20225 16.5152L6.84807 17.2787C7.07084 17.0903 7.33999 16.9854 7.58339 16.9373L7.38967 15.9563ZM6.98653 16.0383V16.4468H7.98653V16.0383H6.98653ZM7.10469 15.5506C7.0249 15.7053 6.98653 15.8733 6.98653 16.0383H7.98653C7.98653 16.0277 7.98905 16.0175 7.99344 16.009L7.10469 15.5506ZM11.4678 12.8169C9.80759 13.1441 7.96234 13.8878 7.10469 15.5506L7.99344 16.009C8.63328 14.7685 10.0799 14.1096 11.6611 13.7981L11.4678 12.8169ZM16.0597 12.6627C14.9113 12.5245 13.1471 12.486 11.4678 12.8169L11.6611 13.7981C13.2136 13.4922 14.8688 13.5266 15.9403 13.6555L16.0597 12.6627ZM20.5322 12.8169C18.8529 12.486 17.0887 12.5245 15.9403 12.6627L16.0597 13.6555C17.1312 13.5266 18.7864 13.4922 20.3388 13.7981L20.5322 12.8169ZM24.8953 15.5506C24.0377 13.8878 22.1924 13.1441 20.5322 12.8169L20.3388 13.7981C21.9201 14.1096 23.3667 14.7685 24.0066 16.009L24.8953 15.5506ZM25.0135 16.0383C25.0135 15.8733 24.9751 15.7053 24.8953 15.5506L24.0066 16.009C24.011 16.0175 24.0135 16.0277 24.0135 16.0383H25.0135ZM25.0135 16.4468V16.0383H24.0135V16.4468H25.0135ZM25.7978 16.5152C25.415 16.1915 24.9767 16.0286 24.6103 15.9563L24.4166 16.9373C24.66 16.9854 24.9292 17.0903 25.1519 17.2787L25.7978 16.5152ZM26.6351 18.4324C26.6351 17.5836 26.2999 16.94 25.7978 16.5152L25.1519 17.2787C25.424 17.5089 25.6351 17.8706 25.6351 18.4324H26.6351ZM24.5302 21.7283C25.8444 21.4667 26.6351 20.1155 26.6351 18.4324H25.6351C25.6351 19.8718 24.9851 20.6181 24.335 20.7475L24.5302 21.7283ZM24.7333 21.9574C24.808 21.7377 24.8684 21.5393 24.9148 21.3703L23.9505 21.1055C23.9096 21.2544 23.8552 21.4336 23.7866 21.6353L24.7333 21.9574ZM27.4917 19.5428C26.4058 20.2863 25.1251 20.9086 24.073 21.3326L24.4468 22.2601C25.5425 21.8185 26.8931 21.1646 28.0567 20.3679L27.4917 19.5428ZM29.1325 18.0969C28.7412 18.5871 28.1718 19.0772 27.4917 19.5428L28.0567 20.3679C28.7826 19.8709 29.4386 19.3164 29.914 18.7208L29.1325 18.0969ZM29.6892 16.8108C29.6892 17.1764 29.5253 17.6049 29.1325 18.0969L29.914 18.7208C30.3894 18.1253 30.6892 17.4823 30.6892 16.8108H29.6892ZM27.9196 14.0275C29.0421 14.9793 29.6892 15.9501 29.6892 16.8108H30.6892C30.6892 15.4838 29.735 14.2557 28.5663 13.2647L27.9196 14.0275ZM24.6201 11.9923C25.5168 12.3833 26.8388 13.111 27.9196 14.0275L28.5663 13.2647C27.3934 12.2702 25.9817 11.4951 25.0198 11.0757L24.6201 11.9923ZM24.5753 11.9716C24.59 11.9788 24.605 11.9857 24.6201 11.9923L25.0198 11.0757C25.0187 11.0752 25.0176 11.0747 25.0164 11.0741L24.5753 11.9716ZM7.3705 11.993C9.64323 11.2365 16.4297 10.1122 24.6838 12.0101L24.9079 11.0356C16.4772 9.09699 9.50389 10.229 7.05468 11.0442L7.3705 11.993ZM21.9521 23.6197C21.8411 23.793 21.7964 23.9912 21.8121 24.1822L22.8087 24.1C22.8104 24.12 22.8055 24.1414 22.7941 24.1591L21.9521 23.6197ZM23.1999 20.7718C23.0646 21.3128 22.6594 22.5157 21.9521 23.6197L22.7941 24.1591C23.5736 22.9424 24.0153 21.6329 24.17 21.0144L23.1999 20.7718ZM24.1415 19.9577C23.7361 20.0012 23.3216 20.2851 23.1999 20.7718L24.17 21.0144C24.1744 20.9967 24.1827 20.9846 24.1955 20.9742C24.2107 20.9618 24.2307 20.9538 24.2484 20.9519L24.1415 19.9577ZM24.8243 18.4324C24.8243 19.7241 24.2573 19.9452 24.1415 19.9577L24.2484 20.9519C25.0764 20.8629 25.8243 19.9992 25.8243 18.4324H24.8243ZM24.6283 17.8978C24.6794 17.941 24.7244 17.9946 24.7584 18.069C24.7928 18.144 24.8243 18.2582 24.8243 18.4324H25.8243C25.8243 17.8163 25.5897 17.4012 25.2741 17.1343L24.6283 17.8978ZM24.1761 17.7201C24.3337 17.7365 24.5098 17.7976 24.6283 17.8978L25.2741 17.1343C24.962 16.8703 24.5774 16.7565 24.2797 16.7255L24.1761 17.7201ZM23.2027 16.6486C23.2027 17.2615 23.6875 17.6692 24.1761 17.7201L24.2797 16.7255C24.2613 16.7236 24.238 16.7132 24.2215 16.6964C24.2144 16.6891 24.21 16.682 24.2074 16.6759C24.2051 16.6703 24.2027 16.6619 24.2027 16.6486H23.2027ZM23.2027 16.0993V16.6486H24.2027V16.0993H23.2027ZM20.1821 14.5936C21.6732 14.8874 22.7871 15.4633 23.2635 16.3384L24.1418 15.8602C23.4453 14.5809 21.9476 13.9222 20.3754 13.6124L20.1821 14.5936ZM16.1212 14.4649C17.127 14.3401 18.7143 14.3043 20.1821 14.5936L20.3754 13.6124C18.7796 13.298 17.0821 13.338 15.9981 13.4725L16.1212 14.4649ZM15.9993 14.473C16.0444 14.4731 16.0891 14.4698 16.1329 14.4633L15.9864 13.4741C15.9912 13.4733 15.996 13.473 16.0007 13.473L15.9993 14.473ZM15.8671 14.4633C15.9109 14.4698 15.9556 14.4731 16.0007 14.473L15.9993 13.473C16.004 13.473 16.0088 13.4733 16.0136 13.4741L15.8671 14.4633ZM11.8179 14.5936C13.2857 14.3043 14.873 14.3401 15.8788 14.4649L16.0019 13.4725C14.9179 13.338 13.2204 13.298 11.6246 13.6124L11.8179 14.5936ZM8.73648 16.3384C9.21286 15.4633 10.3268 14.8874 11.8179 14.5936L11.6246 13.6124C10.0524 13.9222 8.55468 14.5809 7.8582 15.8602L8.73648 16.3384ZM8.79734 16.6486V16.0993H7.79734V16.6486H8.79734ZM7.82392 17.7201C8.3125 17.6692 8.79734 17.2615 8.79734 16.6486H7.79734C7.79734 16.6619 7.79492 16.6703 7.79256 16.6759C7.78996 16.682 7.78561 16.6891 7.77846 16.6964C7.76201 16.7132 7.73872 16.7236 7.72034 16.7255L7.82392 17.7201ZM7.37171 17.8978C7.49015 17.7976 7.66627 17.7365 7.82392 17.7201L7.72034 16.7255C7.42256 16.7565 7.03796 16.8703 6.72589 17.1343L7.37171 17.8978ZM7.17572 18.4324C7.17572 18.2582 7.20718 18.144 7.24157 18.069C7.27562 17.9946 7.32062 17.941 7.37171 17.8978L6.72589 17.1343C6.41033 17.4012 6.17572 17.8163 6.17572 18.4324H7.17572ZM7.85846 19.9577C7.74269 19.9452 7.17572 19.7241 7.17572 18.4324H6.17572C6.17572 19.9992 6.92358 20.8629 7.75155 20.9519L7.85846 19.9577ZM8.80011 20.7718C8.67839 20.2851 8.2639 20.0012 7.85846 19.9577L7.75155 20.9519C7.76928 20.9538 7.78929 20.9618 7.80453 20.9742C7.81726 20.9846 7.82555 20.9967 7.82999 21.0144L8.80011 20.7718ZM10.0479 23.6197C9.34064 22.5157 8.93542 21.3128 8.80011 20.7718L7.82999 21.0144C7.98467 21.6329 8.42643 22.9424 9.20586 24.1591L10.0479 23.6197ZM10.1879 24.1822C10.2036 23.9912 10.1589 23.793 10.0479 23.6197L9.20586 24.1591C9.19453 24.1414 9.18964 24.12 9.19128 24.1L10.1879 24.1822ZM12.1747 27.0282C11.3881 26.044 10.6869 24.9261 10.1286 23.9018L9.25057 24.3804C9.82846 25.4406 10.5609 26.6108 11.3935 27.6525L12.1747 27.0282ZM14.1541 28.9815C13.482 28.5058 12.8112 27.8246 12.1747 27.0282L11.3935 27.6525C12.0645 28.492 12.8017 29.2495 13.5765 29.7978L14.1541 28.9815ZM16 29.6892C15.4474 29.6892 14.8291 29.4592 14.1541 28.9815L13.5765 29.7978C14.351 30.3459 15.1692 30.6892 16 30.6892V29.6892ZM17.8459 28.9815C17.1709 29.4592 16.5526 29.6892 16 29.6892V30.6892C16.8308 30.6892 17.649 30.3459 18.4235 29.7978L17.8459 28.9815ZM19.8253 27.0282C19.1888 27.8246 18.518 28.5058 17.8459 28.9815L18.4235 29.7978C19.1983 29.2495 19.9355 28.492 20.6065 27.6525L19.8253 27.0282ZM21.8714 23.9018C21.3131 24.9261 20.6119 26.044 19.8253 27.0282L20.6065 27.6525C21.4391 26.6108 22.1715 25.4406 22.7494 24.3804L21.8714 23.9018Z" fill="#376A4F"/>
</svg>
