<svg width="24" height="24" viewBox="0 0 24 24" fill="none" xmlns="http://www.w3.org/2000/svg">
<path fill-rule="evenodd" clip-rule="evenodd" d="M12 2.55324L10.4732 7.54786C10.0749 8.8508 8.87928 9.73986 7.52541 9.73986H2.38344L6.6843 13.0611C7.7073 13.8511 8.13441 15.1985 7.75513 16.4392L6.15252 21.6817L10.1231 18.6155C11.2303 17.7605 12.7697 17.7605 13.8769 18.6155L17.8475 21.6817L16.2449 16.4392C15.8656 15.1985 16.2927 13.8511 17.3157 13.0611L21.6166 9.73986H16.4746C15.1207 9.73986 13.9251 8.85081 13.5268 7.54786L12 2.55324ZM13.3101 0.974224C12.913 -0.324738 11.087 -0.324743 10.6899 0.974219L8.83552 7.04026C8.6585 7.61935 8.12713 8.01448 7.52541 8.01448H1.37346C0.063558 8.01448 -0.500155 9.6874 0.539268 10.4901L5.64156 14.4302C6.09623 14.7813 6.28606 15.3802 6.11749 15.9316L4.19903 22.2073C3.80623 23.4923 5.28386 24.5269 6.34333 23.7087L11.1658 19.9846C11.6579 19.6046 12.3421 19.6046 12.8342 19.9846L17.6567 23.7087C18.7161 24.5269 20.1938 23.4923 19.801 22.2073L17.8825 15.9316C17.7139 15.3802 17.9038 14.7813 18.3584 14.4302L23.4607 10.4901C24.5002 9.6874 23.9364 8.01448 22.6265 8.01448H16.4746C15.8729 8.01448 15.3415 7.61935 15.1645 7.04026L13.3101 0.974224Z" fill="#787878"/>
</svg>
