<svg width="139" height="150" viewBox="0 0 139 150" fill="none" xmlns="http://www.w3.org/2000/svg">
<path d="M123.595 113.218H122.672C120.517 108.074 113.334 88.9904 113.334 59.2069C113.334 48.7132 109.999 40.0714 103.483 33.6415C98.7623 29.0119 93.0672 26.1313 87.6799 24.3309V18.0038C87.6799 8.07601 79.6246 0 69.7223 0C59.8199 0 51.7647 8.07601 51.7647 18.0038V24.3309C46.3774 26.1313 40.6822 29.0119 35.9619 33.6415C29.4459 40.0714 26.1109 48.6618 26.1109 59.2069C26.1109 88.9904 18.9278 108.074 16.7729 113.218H15.8494C10.2056 113.218 5.58789 117.848 5.58789 123.506C5.58789 129.165 10.2056 133.794 15.8494 133.794H52.0212C53.3039 142.488 60.6922 149.226 69.7223 149.226C78.7524 149.226 86.1407 142.488 87.4234 133.794H123.595C129.239 133.794 133.857 129.165 133.857 123.506C133.857 117.848 129.239 113.218 123.595 113.218ZM56.8954 18.0553C56.8954 10.9566 62.6419 5.19539 69.7223 5.19539C76.8027 5.19539 82.5492 10.9566 82.5492 18.0553V22.942C75.8279 21.3988 70.4919 21.3988 69.7736 21.3988C69.7736 21.3988 69.7736 21.3988 69.7223 21.3988C69.004 21.3988 63.668 21.3988 56.9467 22.942V18.0553H56.8954ZM31.2417 59.2069C31.2417 50.1535 34.0123 42.7977 39.5535 37.3451C50.6872 26.337 69.4658 26.4914 69.671 26.5428H69.7736C69.7736 26.5428 88.7574 26.337 99.8911 37.3451C105.381 42.7977 108.203 50.1535 108.203 59.2069C108.203 87.0871 114.206 105.708 117.13 113.218H22.3141C25.2387 105.708 31.2417 87.0871 31.2417 59.2069ZM69.7223 144.082C63.5141 144.082 58.332 139.658 57.152 133.794H82.2926C81.1126 139.658 75.9305 144.082 69.7223 144.082ZM123.595 128.65H15.8494C13.0275 128.65 10.7186 126.335 10.7186 123.506C10.7186 120.677 13.0275 118.362 15.8494 118.362H123.595C126.417 118.362 128.726 120.677 128.726 123.506C128.726 126.335 126.417 128.65 123.595 128.65Z" fill="#2D2D2D"/>
<path d="M13.2841 56.6355C11.8475 56.6355 10.7188 55.5038 10.7188 54.0635C10.7188 21.4508 38.1683 15.5867 38.4248 15.5353C39.8101 15.2267 41.1441 16.1526 41.452 17.5414C41.7085 18.9303 40.8363 20.2677 39.451 20.5764C38.4761 20.7821 15.8495 25.7718 15.8495 54.0635C15.8495 55.5038 14.7207 56.6355 13.2841 56.6355Z" fill="#30996D"/>
<path d="M3.02433 61.7787C1.74164 61.7787 0.612876 60.8014 0.458953 59.5154C-4.87703 11.3166 38.0674 3.90926 38.5291 3.85782C39.9144 3.60062 41.2484 4.57797 41.4537 5.96684C41.6589 7.35571 40.7354 8.69314 39.3501 8.89889C37.7595 9.15609 0.766798 15.6375 5.5897 58.8981C5.74363 60.287 4.71748 61.573 3.33217 61.7273C3.22956 61.7273 3.12694 61.7273 3.02433 61.7273V61.7787Z" fill="#30996D"/>
<path d="M125.696 56.6355C124.259 56.6355 123.131 55.5038 123.131 54.0635C123.131 25.7718 100.504 20.7821 99.5291 20.5764C98.1438 20.2677 97.2715 18.9303 97.5281 17.5414C97.7846 16.1526 99.1699 15.2267 100.555 15.5353C100.812 15.5867 128.261 21.4508 128.261 54.0635C128.261 55.5038 127.133 56.6355 125.696 56.6355Z" fill="#30996D"/>
<path d="M135.96 61.7787C135.96 61.7787 135.755 61.7787 135.652 61.7787C134.267 61.6244 133.241 60.3384 133.395 58.9495C138.218 15.586 101.225 9.20752 99.6344 8.95033C98.2491 8.74457 97.2742 7.40714 97.4794 6.01827C97.6847 4.62941 99.0187 3.65205 100.404 3.85781C100.814 3.90925 143.81 11.3165 138.474 59.4639C138.32 60.8014 137.191 61.7273 135.909 61.7273L135.96 61.7787Z" fill="#30996D"/>
<path d="M69.7206 144.082C63.5124 144.082 58.3304 139.658 57.1503 133.794H52.0195C53.3022 142.487 60.6905 149.226 69.7206 149.226C78.7507 149.226 86.139 142.487 87.4217 133.794H82.291C81.1109 139.658 75.9288 144.082 69.7206 144.082Z" fill="#30996D"/>
</svg>
