<svg width="150" height="170" viewBox="0 0 150 170" fill="none" xmlns="http://www.w3.org/2000/svg">
<path d="M82.5916 137.803H66.5232V104.304C63.2023 101.886 61.167 98.0778 61.167 94.0642C61.167 86.9631 67.1659 81.1998 74.5574 81.1998C81.9489 81.1998 87.9478 86.9631 87.9478 94.0642C87.9478 98.0778 85.9125 101.886 82.5916 104.304V137.803ZM71.8793 132.657H77.2355V101.474L78.5745 100.754C81.0919 99.3643 82.5916 96.8429 82.5916 94.1156C82.5916 89.8447 79.003 86.397 74.5574 86.397C70.1118 86.397 66.5232 89.8447 66.5232 94.1156C66.5232 96.8429 68.0229 99.3643 70.5403 100.754L71.8793 101.474V132.657Z" fill="#30996D"/>
<path d="M125.484 169.809H24.4823C19.8249 169.809 16.0654 166.361 16.0654 162.09V151.799C16.0654 147.528 19.8249 144.08 24.4823 144.08H125.484C130.142 144.08 133.901 147.528 133.901 151.799V162.09C133.901 166.361 130.142 169.809 125.484 169.809ZM24.4823 149.226C22.9111 149.226 21.6766 150.358 21.6766 151.799V162.09C21.6766 163.531 22.9111 164.663 24.4823 164.663H125.484C127.055 164.663 128.29 163.531 128.29 162.09V151.799C128.29 150.358 127.055 149.226 125.484 149.226H24.4823Z" fill="#2D2D2D"/>
<path d="M117.305 148.711H31.6065C27.1609 148.711 23.5723 145.263 23.5723 140.993C23.5723 136.722 27.1609 133.274 31.6065 133.274H117.305C121.751 133.274 125.339 136.722 125.339 140.993C125.339 145.263 121.751 148.711 117.305 148.711ZM31.6065 138.42C30.1068 138.42 28.9284 139.552 28.9284 140.993C28.9284 142.433 30.1068 143.565 31.6065 143.565H117.305C118.805 143.565 119.983 142.433 119.983 140.993C119.983 139.552 118.805 138.42 117.305 138.42H31.6065Z" fill="#2D2D2D"/>
<path d="M119.979 137.803H28.9238V81.6114C28.9238 58.7129 49.3308 40.0339 74.4512 40.0339C99.5716 40.0339 119.979 58.6615 119.979 81.6114V137.803ZM34.28 132.657H114.622V81.6114C114.622 61.5431 96.6257 45.1797 74.4512 45.1797C52.2767 45.1797 34.28 61.5431 34.28 81.6114V132.657Z" fill="#2D2D2D"/>
<path d="M74.558 35.7114C73.0582 35.7114 71.8799 34.5793 71.8799 33.1385V2.57286C71.8799 1.13206 73.0582 0 74.558 0C76.0577 0 77.236 1.13206 77.236 2.57286V33.1385C77.236 34.5793 76.0577 35.7114 74.558 35.7114Z" fill="#30996D"/>
<path d="M123.999 52.5379C123.303 52.5379 122.607 52.2806 122.125 51.766C121.053 50.7369 121.053 49.1417 122.125 48.1126L144.621 26.5005C145.692 25.4714 147.352 25.4714 148.423 26.5005C149.495 27.5296 149.495 29.1248 148.423 30.154L125.928 51.766C125.392 52.2806 124.696 52.5379 124.053 52.5379H123.999Z" fill="#30996D"/>
<path d="M25.174 50.5317C24.4777 50.5317 23.7814 50.2744 23.2993 49.7598L0.803425 28.1477C-0.267808 27.1186 -0.267808 25.5234 0.803425 24.4943C1.87466 23.4651 3.53507 23.4651 4.6063 24.4943L27.1022 46.1063C28.1734 47.1355 28.1734 48.7307 27.1022 49.7598C26.5666 50.2744 25.8703 50.5317 25.2275 50.5317H25.174Z" fill="#30996D"/>
</svg>
