<svg width="158" height="131" viewBox="0 0 158 131" fill="none" xmlns="http://www.w3.org/2000/svg">
<g clip-path="url(#clip0_2038_3997)">
<path d="M129.564 5.69971C122.831 -1.4132 111.108 -1.88425 100.986 4.52208C99.8564 5.22866 99.056 6.4534 98.9148 7.81945C98.7265 9.23261 99.1973 10.6458 100.186 11.6821L109.367 21.3858L106.683 23.8353L109.884 27.3211L112.662 24.7774L122.031 34.6695C122.926 35.6116 124.197 36.1769 125.468 36.1769C125.562 36.1769 125.703 36.1769 125.797 36.1769C127.163 36.0827 128.434 35.3761 129.187 34.2927C136.108 24.5419 136.296 12.8126 129.564 5.69971ZM125.421 31.4663L103.623 8.43182C111.768 3.29734 120.995 3.48576 126.174 8.94998C131.353 14.4142 131.023 23.694 125.468 31.5135L125.421 31.4663Z" fill="#30996D"/>
<path d="M35.5923 7.77236C35.404 6.4063 34.6507 5.18156 33.5208 4.47498C23.3986 -1.93135 11.6757 -1.41319 4.94329 5.69972C-1.78913 12.8126 -1.64789 24.589 5.31993 34.2927C6.12029 35.4232 7.34437 36.0827 8.70968 36.1769C8.80384 36.1769 8.94508 36.1769 9.03924 36.1769C10.3575 36.1769 11.5816 35.6587 12.4761 34.6695L21.845 24.7774L24.6227 27.3211L27.777 23.8353L25.0935 21.3858L34.274 11.6821C35.2627 10.6458 35.7335 9.23262 35.5452 7.81946L35.5923 7.77236ZM30.9314 8.38473L9.1334 31.5606C3.5309 23.694 3.20134 14.3671 8.38012 8.94999C11.0637 6.12367 14.8301 4.71051 18.9731 4.71051C22.8336 4.71051 27.0237 5.93525 30.9314 8.38473Z" fill="#30996D"/>
<path d="M83.9433 83.0467C83.3312 83.0467 82.7192 82.8112 82.2955 82.3402L65.1113 65.1467V36.6009C65.1113 35.2819 66.1471 34.2456 67.4653 34.2456C68.7836 34.2456 69.8193 35.2819 69.8193 36.6009V63.1683L85.5911 78.9486C86.5327 79.8907 86.5327 81.351 85.5911 82.2931C85.1203 82.7641 84.5082 82.9996 83.9433 82.9996V83.0467Z" fill="#30996D"/>
<path d="M101.739 89.0762C94.0177 99.6749 81.5886 106.599 67.5117 106.599C44.1601 106.599 25.1398 87.5689 25.1398 64.2046C25.1398 40.8404 44.113 21.8098 67.4646 21.8098C90.8162 21.8098 109.836 40.8404 109.836 64.2046C109.836 68.5383 109.177 72.6836 107.953 76.6404C109.601 74.9917 111.531 73.5786 113.744 72.5423C114.215 69.8573 114.544 67.078 114.544 64.2517C114.544 38.2967 93.4056 17.1464 67.4646 17.1464C41.5236 17.1464 20.3848 38.2496 20.3848 64.2046C20.3848 90.1597 41.5236 111.31 67.4646 111.31C80.8353 111.31 92.8407 105.704 101.456 96.7073C101.174 94.1636 101.268 91.5728 101.739 89.0291V89.0762Z" fill="#2D2D2D"/>
<path d="M108.189 117.575L111.202 122.757C111.532 123.322 111.579 123.934 111.438 124.547C111.249 125.159 110.873 125.677 110.355 125.96C109.79 126.289 109.178 126.337 108.566 126.195C107.954 126.007 107.436 125.63 107.153 125.112L100.233 113.1C101.363 112.346 102.445 111.498 103.528 110.65C102.822 109.096 102.351 107.447 101.975 105.799C92.6057 113.571 80.6474 118.329 67.5592 118.329C37.7106 118.329 13.4174 94.0223 13.4174 64.1575C13.4174 34.2927 37.6164 10.0334 67.4651 10.0334C97.3137 10.0334 121.607 34.3398 121.607 64.2046C121.607 66.3243 121.466 68.3969 121.23 70.4696C122.125 70.3754 123.066 70.3283 124.008 70.3283C124.667 70.3283 125.326 70.3754 125.985 70.4225C126.221 68.3969 126.315 66.3243 126.315 64.2046C126.315 31.749 99.9031 5.32288 67.4651 5.32288C35.027 5.32288 8.61523 31.749 8.61523 64.2046C8.61523 81.6336 16.2893 97.3196 28.3417 108.107L21.2326 120.401C19.3024 123.793 20.4323 128.079 23.822 130.058C24.9049 130.67 26.1289 131 27.353 131C27.9651 131 28.5771 130.906 29.1891 130.764C31.0252 130.293 32.5318 129.116 33.4734 127.467L39.9704 116.209C48.1623 120.59 57.5312 123.086 67.4651 123.086C77.8697 123.086 87.6623 120.354 96.1367 115.549L103.01 127.467C103.952 129.116 105.458 130.293 107.295 130.764C107.907 130.906 108.519 131 109.131 131C110.355 131 111.579 130.67 112.662 130.058C115.392 128.456 116.663 125.3 116.004 122.38C112.897 121.343 110.308 119.648 108.189 117.575ZM29.4245 125.112C29.095 125.677 28.6242 126.054 28.0121 126.195C27.4001 126.337 26.7881 126.289 26.2231 125.96C25.0932 125.3 24.7165 123.887 25.3757 122.757L32.1081 111.122C33.3792 112.064 34.6504 112.959 35.9686 113.854L29.4716 125.112H29.4245Z" fill="#2D2D2D"/>
<path d="M127.398 127.75C110.543 127.75 96.7959 113.995 96.7959 97.1313C96.7959 80.2676 110.543 66.5128 127.398 66.5128C144.252 66.5128 158 80.2676 158 97.1313C158 113.995 144.252 127.75 127.398 127.75ZM127.398 71.2234C113.133 71.2234 101.504 82.8584 101.504 97.1313C101.504 111.404 113.133 123.039 127.398 123.039C141.663 123.039 153.292 111.404 153.292 97.1313C153.292 82.8584 141.663 71.2234 127.398 71.2234Z" fill="#30996D"/>
<path d="M134.978 107.683C133.754 108.861 132.059 109.614 129.893 109.85V114.843H126.927V109.944C125.374 109.897 123.914 109.614 122.596 109.143C121.231 108.672 120.054 108.013 118.971 107.165L120.618 104.668C121.607 105.469 122.737 106.034 124.008 106.411C125.279 106.788 126.503 106.976 127.586 106.976C129.375 106.976 130.788 106.647 131.729 105.987C132.671 105.328 133.142 104.338 133.142 103.019C133.142 102.219 132.953 101.606 132.624 101.088C132.294 100.57 131.729 100.146 130.976 99.7221C130.223 99.2981 129.093 98.8271 127.68 98.356L127.021 98.1205C125.421 97.5552 124.149 97.0371 123.161 96.4718C122.172 95.9536 121.372 95.1999 120.807 94.3521C120.195 93.4571 119.912 92.3736 119.912 91.0547C119.912 89.7828 120.242 88.6994 120.854 87.8044C121.466 86.9094 122.313 86.1557 123.396 85.6376C124.432 85.1194 125.609 84.7897 126.88 84.6954V79.7494H129.846V84.6954C132.153 84.931 134.319 85.6847 136.343 87.0507L134.742 89.5473C133.66 88.8407 132.577 88.3226 131.541 88.0399C130.505 87.7573 129.375 87.5689 128.057 87.5689C126.739 87.5689 125.609 87.8515 124.714 88.4168C123.82 88.982 123.396 89.8299 123.396 90.9605C123.396 91.5728 123.537 92.091 123.82 92.562C124.102 93.0331 124.62 93.457 125.326 93.8339C126.033 94.2107 127.021 94.6818 128.34 95.1057L128.952 95.3413C130.647 95.9065 131.965 96.4718 133 96.99C133.989 97.5081 134.884 98.2618 135.59 99.2039C136.296 100.193 136.673 101.418 136.673 102.972C136.673 104.951 136.061 106.505 134.884 107.683H134.978Z" fill="#30996D"/>
</g>
<defs>
<clipPath id="clip0_2038_3997">
<rect width="158" height="131" fill="white"/>
</clipPath>
</defs>
</svg>
