<svg width="328" height="245" viewBox="0 0 328 245" fill="none" xmlns="http://www.w3.org/2000/svg">
<rect y="1" width="328" height="26" fill="#B5B5B5"/>
<rect y="27" width="34" height="217" fill="#EEEEEE"/>
<path d="M0 27H328" stroke="#747474"/>
<path d="M0 1H328" stroke="#747474"/>
<path d="M34 89L328 89" stroke="#747474"/>
<path d="M34 1L34 244" stroke="#747474"/>
<path d="M276 1L276 244" stroke="#747474"/>
<path d="M34 58L328 58" stroke="#747474"/>
<path d="M34 120L328 120" stroke="#747474"/>
<path d="M34 151L328 151" stroke="#747474"/>
<path d="M34 182L328 182" stroke="#747474"/>
<path d="M34 213L328 213" stroke="#747474"/>
<path d="M0 244L328 244" stroke="#747474"/>
<path d="M9.52 10.33V11H15.17V10.33H9.52ZM8.5 14.21V14.89H16.67V14.21H8.5ZM12.15 14.66V18.79H12.98V14.66H12.15ZM14.78 10.33V11.11C14.78 12.02 14.78 13.07 14.43 14.53L15.25 14.64C15.59 13.11 15.59 12.05 15.59 11.11V10.33H14.78ZM17.1892 14.51V15.19H25.3792V14.51H17.1892ZM20.9292 14.85V16.93H21.7592V14.85H20.9292ZM18.2292 17.9V18.58H24.4692V17.9H18.2292ZM18.2292 16.13V18.16H19.0492V16.13H18.2292ZM18.2792 10.02V13.64H24.2992V10.02H23.4692V11.17H19.0992V10.02H18.2792ZM19.0992 11.82H23.4692V12.97H19.0992V11.82Z" fill="#3C3C3C"/>
<path d="M12.15 122.06V122.56C12.15 123.85 10.56 124.93 8.91 125.18L9.24 125.85C11.12 125.53 12.88 124.29 12.88 122.56V122.06H12.15ZM12.3 122.06V122.56C12.3 124.27 14.07 125.53 15.93 125.85L16.26 125.18C14.63 124.93 13.02 123.82 13.02 122.56V122.06H12.3ZM12.15 127.34V130.78H12.97V127.34H12.15ZM8.5 126.83V127.52H16.67V126.83H8.5ZM19.4192 122.29V123.4C19.4192 124.8 18.5392 126.02 17.1592 126.51L17.5992 127.17C19.1192 126.58 20.0992 125.17 20.0992 123.4V122.29H19.4192ZM19.5592 122.29V123.43C19.5592 125.02 20.5592 126.4 22.0492 126.94L22.4592 126.29C21.1392 125.82 20.2392 124.66 20.2392 123.43V122.29H19.5592ZM23.3792 121.73V128.41H24.2092V121.73H23.3792ZM23.9492 124.51V125.2H25.5492V124.51H23.9492ZM18.5992 129.9V130.58H24.6092V129.9H18.5992ZM18.5992 127.78V130.23H19.4292V127.78H18.5992ZM8.49 139.09V139.77H16.69V139.09H8.49ZM12.15 139.41V142.78H12.97V139.41H12.15ZM9.52 134.1V138.01H15.64V134.1H14.82V135.34H10.35V134.1H9.52ZM10.35 136.01H14.82V137.34H10.35V136.01ZM17.1892 139.12V139.8H25.3892V139.12H17.1892ZM19.3092 139.49V142.78H20.1492V139.49H19.3092ZM22.4192 139.49V142.78H23.2492V139.49H22.4192ZM18.1692 134.09V134.76H23.5592V135.78H18.1892V137.97H19.0292V136.42H24.3892V134.09H18.1692ZM18.1892 137.53V138.2H24.5992V137.53H18.1892Z" fill="#3C3C3C"/>
<path d="M290.172 11.4V12.08H292.592V11.4H290.172ZM290.092 13.28V13.96H292.532V13.28H290.092ZM292.452 9.74V15.16H293.282V9.74H292.452ZM289.622 10.42V10.78C289.622 12.49 288.272 13.82 285.962 14.49L286.302 15.16C288.902 14.38 290.512 12.75 290.512 10.42H289.622ZM286.432 10.42V11.1H290.192V10.42H286.432ZM290.342 15.26C288.512 15.26 287.352 15.91 287.352 17C287.352 18.09 288.512 18.74 290.342 18.74C292.172 18.74 293.332 18.09 293.332 17C293.332 15.91 292.172 15.26 290.342 15.26ZM290.342 15.91C291.672 15.91 292.522 16.32 292.522 17C292.522 17.68 291.672 18.08 290.342 18.08C289.022 18.08 288.172 17.68 288.172 17C288.172 16.32 289.022 15.91 290.342 15.91ZM301.431 9.74V18.78H302.231V9.74H301.431ZM300.001 13.32V14H301.731V13.32H300.001ZM299.431 9.93V18.33H300.221V9.93H299.431ZM294.871 10.78V16.36H298.321V10.78H294.871ZM297.541 11.44V15.7H295.651V11.44H297.541ZM305.63 10.52V12.14C305.63 13.85 304.54 15.58 303.2 16.22L303.71 16.9C305.19 16.15 306.31 14.22 306.31 12.14V10.52H305.63ZM305.77 10.52V12.14C305.77 14.15 306.9 16.01 308.37 16.73L308.87 16.07C307.53 15.45 306.45 13.79 306.45 12.14V10.52H305.77ZM309.81 9.73V18.79H310.64V9.73H309.81ZM318.129 9.74V16.35H318.959V9.74H318.129ZM318.699 12.48V13.17H320.299V12.48H318.699ZM315.659 10.44V10.8C315.659 12.54 314.229 13.94 311.949 14.64L312.309 15.32C314.899 14.49 316.539 12.78 316.539 10.44H315.659ZM312.319 10.44V11.12H316.079V10.44H312.319ZM313.319 17.9V18.58H319.359V17.9H313.319ZM313.319 15.68V18.17H314.149V15.68H313.319Z" fill="#3C3C3C"/>
<path d="M161.17 14.54V16.1H161.99V14.54H161.17ZM157.49 14.1V14.78H165.66V14.1H157.49ZM158.25 10.02V10.7H164.89V10.02H158.25ZM158.29 12.59V13.27H164.85V12.59H158.29ZM159.62 10.32V13.03H160.45V10.32H159.62ZM162.7 10.32V13.03H163.52V10.32H162.7ZM158.49 15.83V18.66H164.66V15.83H158.49ZM163.85 16.49V17.99H159.31V16.49H163.85ZM167.239 10.11V13.19H173.319V10.11H167.239ZM172.499 10.78V12.52H168.049V10.78H172.499ZM166.189 14.32V14.99H174.359V14.32H166.189ZM169.869 13.01V14.57H170.689V13.01H169.869ZM167.099 15.92V16.6H172.519V18.78H173.349V15.92H167.099Z" fill="#3C3C3C"/>
<path d="M41.617 40.483V41.104H43.669V40.483H41.617ZM39.484 39.061V40.06C39.484 41.302 38.665 42.454 37.459 42.904L37.846 43.498C39.205 42.949 40.087 41.635 40.087 40.06V39.061H39.484ZM39.628 39.061V40.087C39.628 41.536 40.501 42.796 41.797 43.3L42.202 42.724C41.023 42.292 40.231 41.221 40.231 40.087V39.061H39.628ZM43.39 38.575V44.659H44.137V38.575H43.39ZM38.908 45.91V46.522H44.335V45.91H38.908ZM38.908 43.984V46.198H39.655V43.984H38.908ZM47.2683 39.187C46.0803 39.187 45.2433 40.294 45.2433 42.022C45.2433 43.759 46.0803 44.866 47.2683 44.866C48.4473 44.866 49.2933 43.759 49.2933 42.022C49.2933 40.294 48.4473 39.187 47.2683 39.187ZM47.2683 39.862C48.0513 39.862 48.5823 40.708 48.5823 42.022C48.5823 43.345 48.0513 44.209 47.2683 44.209C46.4853 44.209 45.9543 43.345 45.9543 42.022C45.9543 40.708 46.4853 39.862 47.2683 39.862ZM51.0573 38.557V46.711H51.7953V38.557H51.0573ZM49.0503 41.662V42.274H51.3813V41.662H49.0503Z" fill="#3C3C3C"/>
<path d="M43.642 69.566V77.702H44.362V69.566H43.642ZM42.355 72.833V73.454H43.912V72.833H42.355ZM41.878 69.746V77.288H42.58V69.746H41.878ZM37.522 70.583V71.195H41.284V70.583H37.522ZM37.45 75.704C38.512 75.704 40.204 75.668 41.491 75.425L41.437 74.876C40.195 75.038 38.431 75.074 37.36 75.074L37.45 75.704ZM38.215 70.979V75.236H38.899V70.979H38.215ZM39.907 70.979V75.236H40.591V70.979H39.907ZM45.0903 74.408V75.02H52.4703V74.408H45.0903ZM46.9983 74.741V77.702H47.7543V74.741H46.9983ZM49.7973 74.741V77.702H50.5443V74.741H49.7973ZM45.9723 69.881V70.484H50.8233V71.402H45.9903V73.373H46.7463V71.978H51.5703V69.881H45.9723ZM45.9903 72.977V73.58H51.7593V72.977H45.9903Z" fill="#3C3C3C"/>
<path d="M43.588 100.566V105.489H44.299V100.566H43.588ZM42.256 102.681V103.302H43.786V102.681H42.256ZM41.77 100.719V105.201H42.472V100.719H41.77ZM41.626 105.615C39.961 105.615 38.917 106.191 38.917 107.154C38.917 108.117 39.961 108.684 41.626 108.684C43.291 108.684 44.344 108.117 44.344 107.154C44.344 106.191 43.291 105.615 41.626 105.615ZM41.626 106.218C42.841 106.218 43.597 106.56 43.597 107.154C43.597 107.739 42.841 108.09 41.626 108.09C40.411 108.09 39.646 107.739 39.646 107.154C39.646 106.56 40.411 106.218 41.626 106.218ZM37.846 101.214V104.346H38.593V101.214H37.846ZM37.846 104.13V104.76H38.359C39.322 104.76 40.213 104.715 41.284 104.499L41.203 103.878C40.168 104.085 39.286 104.13 38.359 104.13H37.846ZM45.0993 104.571V105.183H52.4523V104.571H45.0993ZM48.4023 103.266V104.823H49.1403V103.266H48.4023ZM46.0263 103.032V103.644H51.5973V103.032H46.0263ZM46.0263 100.935V103.392H46.7643V101.538H51.5343V100.935H46.0263ZM48.7623 105.768C47.0253 105.768 45.9723 106.299 45.9723 107.226C45.9723 108.171 47.0253 108.693 48.7623 108.693C50.4993 108.693 51.5523 108.171 51.5523 107.226C51.5523 106.299 50.4993 105.768 48.7623 105.768ZM48.7623 106.344C50.0403 106.344 50.7963 106.668 50.7963 107.226C50.7963 107.793 50.0403 108.108 48.7623 108.108C47.4933 108.108 46.7283 107.793 46.7283 107.226C46.7283 106.668 47.4933 106.344 48.7623 106.344Z" fill="#3C3C3C"/>
<path d="M43.003 131.566V136.363H43.75V131.566H43.003ZM43.435 133.645V134.266H44.938V133.645H43.435ZM38.485 136.732V137.263H43.021V137.884H38.503V139.243H39.232V138.379H43.75V136.732H38.485ZM38.503 139.081V139.612H44.065V139.081H38.503ZM39.574 134.905V135.94H40.321V134.905H39.574ZM37.486 136.183C38.908 136.183 40.843 136.174 42.58 135.868L42.517 135.391C40.843 135.625 38.845 135.634 37.396 135.634L37.486 136.183ZM37.603 132.187V132.718H42.274V132.187H37.603ZM39.943 132.97C38.782 132.97 38.044 133.366 38.044 134.041C38.044 134.716 38.782 135.112 39.943 135.112C41.095 135.112 41.833 134.716 41.833 134.041C41.833 133.366 41.095 132.97 39.943 132.97ZM39.943 133.465C40.672 133.465 41.131 133.681 41.131 134.041C41.131 134.401 40.672 134.626 39.943 134.626C39.214 134.626 38.746 134.401 38.746 134.041C38.746 133.681 39.214 133.465 39.943 133.465ZM39.574 131.485V132.466H40.321V131.485H39.574ZM47.2683 132.187C46.0803 132.187 45.2433 133.294 45.2433 135.022C45.2433 136.759 46.0803 137.866 47.2683 137.866C48.4473 137.866 49.2933 136.759 49.2933 135.022C49.2933 133.294 48.4473 132.187 47.2683 132.187ZM47.2683 132.862C48.0513 132.862 48.5823 133.708 48.5823 135.022C48.5823 136.345 48.0513 137.209 47.2683 137.209C46.4853 137.209 45.9543 136.345 45.9543 135.022C45.9543 133.708 46.4853 132.862 47.2683 132.862ZM51.0573 131.557V139.711H51.7953V131.557H51.0573ZM49.0503 134.662V135.274H51.3813V134.662H49.0503Z" fill="#3C3C3C"/>
<path d="M43.39 162.566V168.578H44.137V162.566H43.39ZM41.635 165.077V165.698H43.534V165.077H41.635ZM40.879 163.196V163.493C40.879 165.104 39.556 166.382 37.567 167.048L37.891 167.651C40.186 166.886 41.662 165.293 41.662 163.196H40.879ZM37.972 163.196V163.808H41.365V163.196H37.972ZM38.998 169.91V170.522H44.344V169.91H38.998ZM38.998 167.975V170.216H39.745V167.975H38.998ZM48.3933 167.165V169.19H49.1403V167.165H48.3933ZM48.7713 163.097C47.0523 163.097 45.8103 163.934 45.8103 165.23C45.8103 166.526 47.0523 167.363 48.7713 167.363C50.4903 167.363 51.7233 166.526 51.7233 165.23C51.7233 163.934 50.4903 163.097 48.7713 163.097ZM48.7713 163.691C50.0583 163.691 51.0033 164.303 51.0033 165.23C51.0033 166.157 50.0583 166.769 48.7713 166.769C47.4753 166.769 46.5303 166.157 46.5303 165.23C46.5303 164.303 47.4753 163.691 48.7713 163.691ZM45.0993 169.046V169.667H52.4703V169.046H45.0993ZM58.6616 162.575V167.471H59.4176V162.575H58.6616ZM56.7086 167.669C55.0166 167.669 53.9816 168.236 53.9816 169.199C53.9816 170.171 55.0166 170.738 56.7086 170.738C58.4006 170.738 59.4446 170.171 59.4446 169.199C59.4446 168.236 58.4006 167.669 56.7086 167.669ZM56.7086 168.263C57.9506 168.263 58.6976 168.605 58.6976 169.199C58.6976 169.793 57.9506 170.144 56.7086 170.144C55.4756 170.144 54.7286 169.793 54.7286 169.199C54.7286 168.605 55.4756 168.263 56.7086 168.263ZM54.9086 163.394V164.042C54.9086 165.212 54.0896 166.283 52.8656 166.715L53.2526 167.3C54.6116 166.805 55.5296 165.545 55.5296 164.042V163.394H54.9086ZM55.0526 163.394V164.042C55.0526 165.455 55.9976 166.634 57.3476 167.093L57.7256 166.499C56.5196 166.112 55.6736 165.131 55.6736 164.042V163.394H55.0526ZM53.0546 163.205V163.808H57.5096V163.205H53.0546ZM62.5669 163.187C61.3789 163.187 60.5419 164.294 60.5419 166.022C60.5419 167.759 61.3789 168.866 62.5669 168.866C63.7459 168.866 64.5919 167.759 64.5919 166.022C64.5919 164.294 63.7459 163.187 62.5669 163.187ZM62.5669 163.862C63.3499 163.862 63.8809 164.708 63.8809 166.022C63.8809 167.345 63.3499 168.209 62.5669 168.209C61.7839 168.209 61.2529 167.345 61.2529 166.022C61.2529 164.708 61.7839 163.862 62.5669 163.862ZM66.3559 162.557V170.711H67.0939V162.557H66.3559ZM64.3489 165.662V166.274H66.6799V165.662H64.3489ZM69.4828 169.105L69.4349 169.453C69.4029 169.709 69.3486 169.975 69.2719 170.252C69.1973 170.532 69.1196 170.79 69.0386 171.029C68.9598 171.268 68.8948 171.457 68.8436 171.598H68.1661C68.1938 171.466 68.2321 171.287 68.2811 171.061C68.3301 170.837 68.3781 170.587 68.425 170.31C68.4718 170.033 68.507 169.751 68.5304 169.463L68.5624 169.105H69.4828ZM77.5963 162.566V168.578H78.3433V162.566H77.5963ZM75.8413 165.077V165.698H77.7403V165.077H75.8413ZM75.0853 163.196V163.493C75.0853 165.104 73.7623 166.382 71.7733 167.048L72.0973 167.651C74.3923 166.886 75.8683 165.293 75.8683 163.196H75.0853ZM72.1783 163.196V163.808H75.5713V163.196H72.1783ZM73.2043 169.91V170.522H78.5503V169.91H73.2043ZM73.2043 167.975V170.216H73.9513V167.975H73.2043ZM83.1756 163.637V164.231H85.4706V163.637H83.1756ZM83.1756 165.104V165.698H85.4886V165.104H83.1756ZM79.6836 162.998V166.328H83.4276V162.998H79.6836ZM82.7076 163.592V165.725H80.4126V163.592H82.7076ZM85.2456 162.566V166.733H85.9926V162.566H85.2456ZM80.7546 167.147V167.741H85.2546V168.551H80.7726V170.333H81.5016V169.109H85.9926V167.147H80.7546ZM80.7726 170V170.594H86.2896V170H80.7726ZM92.8679 162.566V170.702H93.6149V162.566H92.8679ZM89.2049 164.501V165.194C89.2049 166.616 88.3049 168.002 87.0989 168.56L87.5219 169.136C88.8269 168.506 89.8079 166.931 89.8079 165.194V164.501H89.2049ZM89.3489 164.501V165.194C89.3489 166.877 90.3479 168.398 91.6619 168.992L92.0849 168.407C90.8699 167.876 89.9429 166.553 89.9429 165.194V164.501H89.3489ZM87.3239 163.979V164.582H91.8059V163.979H87.3239ZM89.2049 162.71V164.312H89.9519V162.71H89.2049ZM96.0399 169.105L95.9919 169.453C95.96 169.709 95.9056 169.975 95.8289 170.252C95.7544 170.532 95.6766 170.79 95.5956 171.029C95.5168 171.268 95.4518 171.457 95.4007 171.598H94.7231C94.7508 171.466 94.7892 171.287 94.8382 171.061C94.8872 170.837 94.9351 170.587 94.982 170.31C95.0289 170.033 95.064 169.751 95.0875 169.463L95.1194 169.105H96.0399ZM98.1954 163.952V164.564H102.227V163.952H98.1954ZM100.211 165.104C99.2034 165.104 98.4654 165.869 98.4654 166.967C98.4654 168.056 99.2034 168.821 100.211 168.821C101.228 168.821 101.966 168.056 101.966 166.967C101.966 165.869 101.228 165.104 100.211 165.104ZM100.211 165.743C100.841 165.743 101.3 166.247 101.3 166.967C101.3 167.687 100.841 168.191 100.211 168.191C99.5904 168.191 99.1404 167.687 99.1404 166.967C99.1404 166.247 99.5904 165.743 100.211 165.743ZM104.378 162.566V170.702H105.098V162.566H104.378ZM103.082 165.986V166.607H104.621V165.986H103.082ZM102.641 162.746V170.306H103.343V162.746H102.641ZM99.8514 162.8V164.33H100.589V162.8H99.8514ZM106.178 168.065V168.695H106.709C108.014 168.695 108.806 168.668 109.751 168.479L109.67 167.858C108.761 168.038 107.996 168.065 106.709 168.065H106.178ZM106.178 163.493V168.299H106.889V164.105H109.382V163.493H106.178ZM106.673 165.644V166.247H109.256V165.644H106.673ZM112.055 162.566V170.702H112.775V162.566H112.055ZM110.768 165.824V166.445H112.325V165.824H110.768ZM110.264 162.737V170.297H110.975V162.737H110.264ZM113.982 167.283C113.982 166.482 114.088 165.745 114.299 165.072C114.51 164.398 114.818 163.777 115.222 163.208H116.098C115.941 163.419 115.793 163.678 115.657 163.985C115.521 164.292 115.401 164.629 115.299 164.995C115.197 165.359 115.117 165.738 115.059 166.13C115.002 166.52 114.973 166.904 114.973 167.283C114.973 167.79 115.023 168.304 115.123 168.824C115.224 169.344 115.359 169.826 115.529 170.272C115.7 170.717 115.889 171.08 116.098 171.362H115.222C114.818 170.793 114.51 170.172 114.299 169.498C114.088 168.825 113.982 168.087 113.982 167.283ZM119.757 163.088V163.421C119.757 164.924 118.488 166.103 116.373 166.661L116.661 167.255C119.055 166.616 120.54 165.158 120.54 163.088H119.757ZM116.796 163.088V163.691H120.189V163.088H116.796ZM122.196 162.566V167.156H122.952V162.566H122.196ZM117.687 167.552V170.594H122.952V167.552H117.687ZM122.214 168.155V169.982H118.425V168.155H122.214ZM125.963 167.283C125.963 168.087 125.857 168.825 125.646 169.498C125.435 170.172 125.128 170.793 124.723 171.362H123.847C124.005 171.151 124.152 170.892 124.288 170.585C124.424 170.278 124.544 169.942 124.646 169.578C124.748 169.212 124.828 168.832 124.886 168.44C124.943 168.048 124.972 167.663 124.972 167.283C124.972 166.778 124.922 166.266 124.822 165.746C124.722 165.226 124.586 164.744 124.416 164.298C124.245 163.853 124.056 163.49 123.847 163.208H124.723C125.128 163.777 125.435 164.398 125.646 165.072C125.857 165.745 125.963 166.482 125.963 167.283Z" fill="#3C3C3C"/>
<path d="M43.39 193.566V199.578H44.137V193.566H43.39ZM41.635 196.077V196.698H43.534V196.077H41.635ZM40.879 194.196V194.493C40.879 196.104 39.556 197.382 37.567 198.048L37.891 198.651C40.186 197.886 41.662 196.293 41.662 194.196H40.879ZM37.972 194.196V194.808H41.365V194.196H37.972ZM38.998 200.91V201.522H44.344V200.91H38.998ZM38.998 198.975V201.216H39.745V198.975H38.998ZM45.5583 194.358V199.659H49.3023V194.358H45.5583ZM48.5733 194.961V199.056H46.2873V194.961H48.5733ZM51.0033 193.557V201.711H51.7503V193.557H51.0033ZM56.4476 194.763V195.375H58.9316V194.763H56.4476ZM56.4476 196.581V197.202H58.9316V196.581H56.4476ZM54.0086 198.813V199.416H58.6886V201.702H59.4356V198.813H54.0086ZM58.6886 193.566V198.363H59.4356V193.566H58.6886ZM54.9626 194.016C53.7566 194.016 52.8656 194.826 52.8656 195.978C52.8656 197.13 53.7566 197.931 54.9626 197.931C56.1596 197.931 57.0596 197.13 57.0596 195.978C57.0596 194.826 56.1596 194.016 54.9626 194.016ZM54.9626 194.655C55.7546 194.655 56.3486 195.204 56.3486 195.978C56.3486 196.752 55.7546 197.292 54.9626 197.292C54.1706 197.292 53.5856 196.752 53.5856 195.978C53.5856 195.204 54.1706 194.655 54.9626 194.655Z" fill="#3C3C3C"/>
<path d="M43.39 224.566V230.578H44.137V224.566H43.39ZM41.635 227.077V227.698H43.534V227.077H41.635ZM40.879 225.196V225.493C40.879 227.104 39.556 228.382 37.567 229.048L37.891 229.651C40.186 228.886 41.662 227.293 41.662 225.196H40.879ZM37.972 225.196V225.808H41.365V225.196H37.972ZM38.998 231.91V232.522H44.344V231.91H38.998ZM38.998 229.975V232.216H39.745V229.975H38.998ZM45.0993 231.073V231.694H52.4703V231.073H45.0993ZM48.3843 228.967V231.352H49.1313V228.967H48.3843ZM45.7383 225.34V225.952H51.7773V225.34H45.7383ZM45.7563 228.616V229.219H51.7683V228.616H45.7563ZM47.0073 225.835V228.724H47.7543V225.835H47.0073ZM49.7793 225.835V228.724H50.5173V225.835H49.7793ZM52.7396 229.408V230.02H60.1196V229.408H52.7396ZM54.6476 229.741V232.702H55.4036V229.741H54.6476ZM57.4466 229.741V232.702H58.1936V229.741H57.4466ZM53.6216 224.881V225.484H58.4726V226.402H53.6396V228.373H54.3956V226.978H59.2196V224.881H53.6216ZM53.6396 227.977V228.58H59.4086V227.977H53.6396Z" fill="#3C3C3C"/>
<path d="M293.63 46V45.2841L295.844 42.9893C296.081 42.7401 296.276 42.5217 296.429 42.3342C296.585 42.1445 296.701 41.9645 296.778 41.794C296.854 41.6236 296.893 41.4425 296.893 41.2507C296.893 41.0334 296.842 40.8459 296.739 40.6882C296.637 40.5284 296.498 40.4059 296.321 40.3207C296.144 40.2333 295.945 40.1896 295.723 40.1896C295.489 40.1896 295.284 40.2376 295.109 40.3335C294.935 40.4293 294.8 40.5646 294.707 40.7393C294.613 40.9141 294.566 41.1186 294.566 41.353H293.623C293.623 40.9545 293.715 40.6062 293.898 40.3079C294.081 40.0096 294.333 39.7784 294.652 39.6143C294.972 39.4482 295.335 39.3651 295.742 39.3651C296.153 39.3651 296.516 39.4471 296.829 39.6112C297.144 39.7731 297.39 39.9947 297.567 40.2759C297.744 40.555 297.832 40.8704 297.832 41.2219C297.832 41.4648 297.787 41.7024 297.695 41.9347C297.605 42.1669 297.449 42.4258 297.225 42.7113C297.001 42.9947 296.69 43.3388 296.292 43.7436L294.991 45.1051V45.1531H297.938V46H293.63ZM300.798 46.0895C300.359 46.0895 299.967 46.0138 299.622 45.8626C299.279 45.7113 299.007 45.5014 298.807 45.233C298.609 44.9624 298.502 44.6491 298.487 44.2933H299.491C299.504 44.4872 299.569 44.6555 299.686 44.7983C299.805 44.9389 299.961 45.0476 300.152 45.1243C300.344 45.201 300.557 45.2393 300.792 45.2393C301.049 45.2393 301.277 45.1946 301.475 45.1051C301.676 45.0156 301.832 44.891 301.945 44.7312C302.058 44.5692 302.115 44.3828 302.115 44.1719C302.115 43.9524 302.058 43.7596 301.945 43.5934C301.834 43.4251 301.671 43.293 301.456 43.1971C301.243 43.1012 300.985 43.0533 300.683 43.0533H300.13V42.2479H300.683C300.926 42.2479 301.139 42.2042 301.322 42.1168C301.507 42.0295 301.652 41.908 301.757 41.7525C301.861 41.5948 301.913 41.4105 301.913 41.1996C301.913 40.9972 301.868 40.8214 301.776 40.6722C301.686 40.521 301.559 40.4027 301.392 40.3175C301.228 40.2322 301.034 40.1896 300.811 40.1896C300.598 40.1896 300.398 40.229 300.213 40.3079C300.03 40.3846 299.881 40.4954 299.766 40.6403C299.651 40.783 299.589 40.9545 299.58 41.1548H298.625C298.635 40.8011 298.74 40.4901 298.938 40.2216C299.138 39.9531 299.402 39.7433 299.73 39.592C300.059 39.4407 300.423 39.3651 300.823 39.3651C301.243 39.3651 301.605 39.4471 301.91 39.6112C302.217 39.7731 302.453 39.9893 302.62 40.2599C302.788 40.5305 302.871 40.8267 302.869 41.1484C302.871 41.5149 302.769 41.826 302.562 42.0817C302.358 42.3374 302.085 42.5089 301.744 42.5962V42.6474C302.179 42.7134 302.515 42.886 302.754 43.1651C302.995 43.4442 303.114 43.7905 303.112 44.2038C303.114 44.5639 303.014 44.8867 302.811 45.1722C302.611 45.4577 302.337 45.6825 301.99 45.8466C301.643 46.0085 301.245 46.0895 300.798 46.0895ZM304.332 45.1882C304.158 45.1882 304.007 45.1264 303.882 45.0028C303.756 44.8771 303.693 44.7259 303.693 44.549C303.693 44.3743 303.756 44.2251 303.882 44.1016C304.007 43.9759 304.158 43.913 304.332 43.913C304.507 43.913 304.657 43.9759 304.783 44.1016C304.909 44.2251 304.972 44.3743 304.972 44.549C304.972 44.6662 304.942 44.7738 304.882 44.8718C304.825 44.9677 304.748 45.0444 304.652 45.1019C304.556 45.1594 304.45 45.1882 304.332 45.1882ZM304.332 41.9091C304.158 41.9091 304.007 41.8473 303.882 41.7237C303.756 41.598 303.693 41.4467 303.693 41.2699C303.693 41.0952 303.756 40.946 303.882 40.8224C304.007 40.6967 304.158 40.6339 304.332 40.6339C304.507 40.6339 304.657 40.6967 304.783 40.8224C304.909 40.946 304.972 41.0952 304.972 41.2699C304.972 41.3871 304.942 41.4947 304.882 41.5927C304.825 41.6886 304.748 41.7653 304.652 41.8228C304.556 41.8803 304.45 41.9091 304.332 41.9091ZM307.888 46.1087C307.383 46.1065 306.951 45.9734 306.593 45.7092C306.235 45.445 305.961 45.0604 305.772 44.5554C305.582 44.0504 305.487 43.4421 305.487 42.7305C305.487 42.021 305.582 41.4148 305.772 40.9119C305.964 40.4091 306.238 40.0256 306.596 39.7614C306.956 39.4972 307.387 39.3651 307.888 39.3651C308.388 39.3651 308.818 39.4982 309.176 39.7646C309.533 40.0288 309.807 40.4123 309.997 40.9151C310.189 41.4158 310.285 42.021 310.285 42.7305C310.285 43.4442 310.19 44.0536 310 44.5586C309.81 45.0614 309.537 45.446 309.179 45.7124C308.821 45.9766 308.39 46.1087 307.888 46.1087ZM307.888 45.2553C308.331 45.2553 308.677 45.0391 308.926 44.6065C309.178 44.174 309.303 43.5487 309.303 42.7305C309.303 42.1871 309.246 41.728 309.131 41.353C309.018 40.9759 308.855 40.6903 308.642 40.4964C308.431 40.3004 308.179 40.2024 307.888 40.2024C307.446 40.2024 307.1 40.4197 306.849 40.8544C306.597 41.2891 306.471 41.9144 306.468 42.7305C306.468 43.2759 306.525 43.7372 306.638 44.1143C306.753 44.4893 306.916 44.7738 307.127 44.9677C307.338 45.1594 307.591 45.2553 307.888 45.2553ZM313.067 46.1087C312.562 46.1065 312.131 45.9734 311.773 45.7092C311.415 45.445 311.141 45.0604 310.951 44.5554C310.762 44.0504 310.667 43.4421 310.667 42.7305C310.667 42.021 310.762 41.4148 310.951 40.9119C311.143 40.4091 311.418 40.0256 311.776 39.7614C312.136 39.4972 312.566 39.3651 313.067 39.3651C313.568 39.3651 313.997 39.4982 314.355 39.7646C314.713 40.0288 314.987 40.4123 315.176 40.9151C315.368 41.4158 315.464 42.021 315.464 42.7305C315.464 43.4442 315.369 44.0536 315.18 44.5586C314.99 45.0614 314.716 45.446 314.358 45.7124C314 45.9766 313.57 46.1087 313.067 46.1087ZM313.067 45.2553C313.51 45.2553 313.857 45.0391 314.106 44.6065C314.357 44.174 314.483 43.5487 314.483 42.7305C314.483 42.1871 314.425 41.728 314.31 41.353C314.197 40.9759 314.034 40.6903 313.821 40.4964C313.61 40.3004 313.359 40.2024 313.067 40.2024C312.626 40.2024 312.28 40.4197 312.028 40.8544C311.777 41.2891 311.65 41.9144 311.648 42.7305C311.648 43.2759 311.705 43.7372 311.817 44.1143C311.933 44.4893 312.096 44.7738 312.306 44.9677C312.517 45.1594 312.771 45.2553 313.067 45.2553Z" fill="#3C3C3C"/>
<path d="M294.908 77.1087C294.403 77.1065 293.972 76.9734 293.614 76.7092C293.256 76.445 292.982 76.0604 292.793 75.5554C292.603 75.0504 292.508 74.4421 292.508 73.7305C292.508 73.021 292.603 72.4148 292.793 71.9119C292.984 71.4091 293.259 71.0256 293.617 70.7614C293.977 70.4972 294.408 70.3651 294.908 70.3651C295.409 70.3651 295.838 70.4982 296.196 70.7646C296.554 71.0288 296.828 71.4123 297.018 71.9151C297.21 72.4158 297.305 73.021 297.305 73.7305C297.305 74.4442 297.211 75.0536 297.021 75.5586C296.831 76.0614 296.558 76.446 296.2 76.7124C295.842 76.9766 295.411 77.1087 294.908 77.1087ZM294.908 76.2553C295.352 76.2553 295.698 76.0391 295.947 75.6065C296.199 75.174 296.324 74.5487 296.324 73.7305C296.324 73.1871 296.267 72.728 296.152 72.353C296.039 71.9759 295.876 71.6903 295.663 71.4964C295.452 71.3004 295.2 71.2024 294.908 71.2024C294.467 71.2024 294.121 71.4197 293.87 71.8544C293.618 72.2891 293.491 72.9144 293.489 73.7305C293.489 74.2759 293.546 74.7372 293.659 75.1143C293.774 75.4893 293.937 75.7738 294.148 75.9677C294.359 76.1594 294.612 76.2553 294.908 76.2553ZM300.292 70.4545V77H299.302V71.4453H299.263L297.697 72.468V71.522L299.33 70.4545H300.292ZM302.075 76.1882C301.901 76.1882 301.751 76.1264 301.625 76.0028C301.499 75.8771 301.436 75.7259 301.436 75.549C301.436 75.3743 301.499 75.2251 301.625 75.1016C301.751 74.9759 301.901 74.913 302.075 74.913C302.25 74.913 302.4 74.9759 302.526 75.1016C302.652 75.2251 302.715 75.3743 302.715 75.549C302.715 75.6662 302.685 75.7738 302.625 75.8718C302.568 75.9677 302.491 76.0444 302.395 76.1019C302.299 76.1594 302.193 76.1882 302.075 76.1882ZM302.075 72.9091C301.901 72.9091 301.751 72.8473 301.625 72.7237C301.499 72.598 301.436 72.4467 301.436 72.2699C301.436 72.0952 301.499 71.946 301.625 71.8224C301.751 71.6967 301.901 71.6339 302.075 71.6339C302.25 71.6339 302.4 71.6967 302.526 71.8224C302.652 71.946 302.715 72.0952 302.715 72.2699C302.715 72.3871 302.685 72.4947 302.625 72.5927C302.568 72.6886 302.491 72.7653 302.395 72.8228C302.299 72.8803 302.193 72.9091 302.075 72.9091ZM305.631 77.1087C305.126 77.1065 304.694 76.9734 304.336 76.7092C303.978 76.445 303.705 76.0604 303.515 75.5554C303.325 75.0504 303.23 74.4421 303.23 73.7305C303.23 73.021 303.325 72.4148 303.515 71.9119C303.707 71.4091 303.982 71.0256 304.339 70.7614C304.7 70.4972 305.13 70.3651 305.631 70.3651C306.131 70.3651 306.561 70.4982 306.919 70.7646C307.277 71.0288 307.55 71.4123 307.74 71.9151C307.932 72.4158 308.028 73.021 308.028 73.7305C308.028 74.4442 307.933 75.0536 307.743 75.5586C307.554 76.0614 307.28 76.446 306.922 76.7124C306.564 76.9766 306.134 77.1087 305.631 77.1087ZM305.631 76.2553C306.074 76.2553 306.42 76.0391 306.669 75.6065C306.921 75.174 307.047 74.5487 307.047 73.7305C307.047 73.1871 306.989 72.728 306.874 72.353C306.761 71.9759 306.598 71.6903 306.385 71.4964C306.174 71.3004 305.923 71.2024 305.631 71.2024C305.19 71.2024 304.843 71.4197 304.592 71.8544C304.341 72.2891 304.214 72.9144 304.212 73.7305C304.212 74.2759 304.268 74.7372 304.381 75.1143C304.496 75.4893 304.659 75.7738 304.87 75.9677C305.081 76.1594 305.335 76.2553 305.631 76.2553ZM310.81 77.1087C310.305 77.1065 309.874 76.9734 309.516 76.7092C309.158 76.445 308.884 76.0604 308.694 75.5554C308.505 75.0504 308.41 74.4421 308.41 73.7305C308.41 73.021 308.505 72.4148 308.694 71.9119C308.886 71.4091 309.161 71.0256 309.519 70.7614C309.879 70.4972 310.31 70.3651 310.81 70.3651C311.311 70.3651 311.74 70.4982 312.098 70.7646C312.456 71.0288 312.73 71.4123 312.92 71.9151C313.111 72.4158 313.207 73.021 313.207 73.7305C313.207 74.4442 313.112 75.0536 312.923 75.5586C312.733 76.0614 312.459 76.446 312.101 76.7124C311.743 76.9766 311.313 77.1087 310.81 77.1087ZM310.81 76.2553C311.253 76.2553 311.6 76.0391 311.849 75.6065C312.1 75.174 312.226 74.5487 312.226 73.7305C312.226 73.1871 312.169 72.728 312.054 72.353C311.941 71.9759 311.778 71.6903 311.565 71.4964C311.354 71.3004 311.102 71.2024 310.81 71.2024C310.369 71.2024 310.023 71.4197 309.772 71.8544C309.52 72.2891 309.393 72.9144 309.391 73.7305C309.391 74.2759 309.448 74.7372 309.561 75.1143C309.676 75.4893 309.839 75.7738 310.05 75.9677C310.261 76.1594 310.514 76.2553 310.81 76.2553Z" fill="#3C3C3C"/>
<path d="M295.908 108.109C295.403 108.107 294.972 107.973 294.614 107.709C294.256 107.445 293.982 107.06 293.793 106.555C293.603 106.05 293.508 105.442 293.508 104.73C293.508 104.021 293.603 103.415 293.793 102.912C293.984 102.409 294.259 102.026 294.617 101.761C294.977 101.497 295.408 101.365 295.908 101.365C296.409 101.365 296.838 101.498 297.196 101.765C297.554 102.029 297.828 102.412 298.018 102.915C298.21 103.416 298.305 104.021 298.305 104.73C298.305 105.444 298.211 106.054 298.021 106.559C297.831 107.061 297.558 107.446 297.2 107.712C296.842 107.977 296.411 108.109 295.908 108.109ZM295.908 107.255C296.352 107.255 296.698 107.039 296.947 106.607C297.199 106.174 297.324 105.549 297.324 104.73C297.324 104.187 297.267 103.728 297.152 103.353C297.039 102.976 296.876 102.69 296.663 102.496C296.452 102.3 296.2 102.202 295.908 102.202C295.467 102.202 295.121 102.42 294.87 102.854C294.618 103.289 294.491 103.914 294.489 104.73C294.489 105.276 294.546 105.737 294.659 106.114C294.774 106.489 294.937 106.774 295.148 106.968C295.359 107.159 295.612 107.255 295.908 107.255ZM301.292 101.455V108H300.302V102.445H300.263L298.697 103.468V102.522L300.33 101.455H301.292ZM303.075 107.188C302.901 107.188 302.751 107.126 302.625 107.003C302.499 106.877 302.436 106.726 302.436 106.549C302.436 106.374 302.499 106.225 302.625 106.102C302.751 105.976 302.901 105.913 303.075 105.913C303.25 105.913 303.4 105.976 303.526 106.102C303.652 106.225 303.715 106.374 303.715 106.549C303.715 106.666 303.685 106.774 303.625 106.872C303.568 106.968 303.491 107.044 303.395 107.102C303.299 107.159 303.193 107.188 303.075 107.188ZM303.075 103.909C302.901 103.909 302.751 103.847 302.625 103.724C302.499 103.598 302.436 103.447 302.436 103.27C302.436 103.095 302.499 102.946 302.625 102.822C302.751 102.697 302.901 102.634 303.075 102.634C303.25 102.634 303.4 102.697 303.526 102.822C303.652 102.946 303.715 103.095 303.715 103.27C303.715 103.387 303.685 103.495 303.625 103.593C303.568 103.689 303.491 103.765 303.395 103.823C303.299 103.88 303.193 103.909 303.075 103.909ZM306.631 108.089C306.192 108.089 305.8 108.014 305.455 107.863C305.112 107.711 304.84 107.501 304.64 107.233C304.441 106.962 304.335 106.649 304.32 106.293H305.324C305.336 106.487 305.401 106.656 305.518 106.798C305.638 106.939 305.793 107.048 305.985 107.124C306.177 107.201 306.39 107.239 306.624 107.239C306.882 107.239 307.11 107.195 307.308 107.105C307.509 107.016 307.665 106.891 307.778 106.731C307.891 106.569 307.947 106.383 307.947 106.172C307.947 105.952 307.891 105.76 307.778 105.593C307.667 105.425 307.504 105.293 307.289 105.197C307.076 105.101 306.818 105.053 306.516 105.053H305.963V104.248H306.516C306.759 104.248 306.972 104.204 307.155 104.117C307.34 104.029 307.485 103.908 307.589 103.752C307.694 103.595 307.746 103.411 307.746 103.2C307.746 102.997 307.7 102.821 307.609 102.672C307.519 102.521 307.391 102.403 307.225 102.317C307.061 102.232 306.867 102.19 306.643 102.19C306.43 102.19 306.231 102.229 306.046 102.308C305.863 102.385 305.713 102.495 305.598 102.64C305.483 102.783 305.422 102.955 305.413 103.155H304.457C304.468 102.801 304.572 102.49 304.771 102.222C304.971 101.953 305.235 101.743 305.563 101.592C305.891 101.441 306.256 101.365 306.656 101.365C307.076 101.365 307.438 101.447 307.743 101.611C308.05 101.773 308.286 101.989 308.452 102.26C308.621 102.531 308.704 102.827 308.702 103.148C308.704 103.515 308.602 103.826 308.395 104.082C308.19 104.337 307.918 104.509 307.577 104.596V104.647C308.011 104.713 308.348 104.886 308.587 105.165C308.827 105.444 308.947 105.79 308.945 106.204C308.947 106.564 308.847 106.887 308.644 107.172C308.444 107.458 308.17 107.683 307.823 107.847C307.476 108.009 307.078 108.089 306.631 108.089ZM311.801 108.109C311.296 108.107 310.865 107.973 310.507 107.709C310.149 107.445 309.875 107.06 309.686 106.555C309.496 106.05 309.401 105.442 309.401 104.73C309.401 104.021 309.496 103.415 309.686 102.912C309.877 102.409 310.152 102.026 310.51 101.761C310.87 101.497 311.301 101.365 311.801 101.365C312.302 101.365 312.732 101.498 313.089 101.765C313.447 102.029 313.721 102.412 313.911 102.915C314.103 103.416 314.198 104.021 314.198 104.73C314.198 105.444 314.104 106.054 313.914 106.559C313.724 107.061 313.451 107.446 313.093 107.712C312.735 107.977 312.304 108.109 311.801 108.109ZM311.801 107.255C312.245 107.255 312.591 107.039 312.84 106.607C313.092 106.174 313.217 105.549 313.217 104.73C313.217 104.187 313.16 103.728 313.045 103.353C312.932 102.976 312.769 102.69 312.556 102.496C312.345 102.3 312.093 102.202 311.801 102.202C311.36 102.202 311.014 102.42 310.763 102.854C310.511 103.289 310.385 103.914 310.382 104.73C310.382 105.276 310.439 105.737 310.552 106.114C310.667 106.489 310.83 106.774 311.041 106.968C311.252 107.159 311.505 107.255 311.801 107.255Z" fill="#3C3C3C"/>
<path d="M295.908 139.109C295.403 139.107 294.972 138.973 294.614 138.709C294.256 138.445 293.982 138.06 293.793 137.555C293.603 137.05 293.508 136.442 293.508 135.73C293.508 135.021 293.603 134.415 293.793 133.912C293.984 133.409 294.259 133.026 294.617 132.761C294.977 132.497 295.408 132.365 295.908 132.365C296.409 132.365 296.838 132.498 297.196 132.765C297.554 133.029 297.828 133.412 298.018 133.915C298.21 134.416 298.305 135.021 298.305 135.73C298.305 136.444 298.211 137.054 298.021 137.559C297.831 138.061 297.558 138.446 297.2 138.712C296.842 138.977 296.411 139.109 295.908 139.109ZM295.908 138.255C296.352 138.255 296.698 138.039 296.947 137.607C297.199 137.174 297.324 136.549 297.324 135.73C297.324 135.187 297.267 134.728 297.152 134.353C297.039 133.976 296.876 133.69 296.663 133.496C296.452 133.3 296.2 133.202 295.908 133.202C295.467 133.202 295.121 133.42 294.87 133.854C294.618 134.289 294.491 134.914 294.489 135.73C294.489 136.276 294.546 136.737 294.659 137.114C294.774 137.489 294.937 137.774 295.148 137.968C295.359 138.159 295.612 138.255 295.908 138.255ZM301.088 139.089C300.649 139.089 300.257 139.014 299.912 138.863C299.569 138.711 299.297 138.501 299.097 138.233C298.899 137.962 298.792 137.649 298.777 137.293H299.781C299.794 137.487 299.859 137.656 299.976 137.798C300.095 137.939 300.251 138.048 300.442 138.124C300.634 138.201 300.847 138.239 301.082 138.239C301.339 138.239 301.567 138.195 301.766 138.105C301.966 138.016 302.122 137.891 302.235 137.731C302.348 137.569 302.405 137.383 302.405 137.172C302.405 136.952 302.348 136.76 302.235 136.593C302.125 136.425 301.962 136.293 301.746 136.197C301.533 136.101 301.275 136.053 300.973 136.053H300.42V135.248H300.973C301.216 135.248 301.429 135.204 301.612 135.117C301.797 135.029 301.942 134.908 302.047 134.752C302.151 134.595 302.203 134.411 302.203 134.2C302.203 133.997 302.158 133.821 302.066 133.672C301.976 133.521 301.849 133.403 301.682 133.317C301.518 133.232 301.324 133.19 301.101 133.19C300.888 133.19 300.688 133.229 300.503 133.308C300.32 133.385 300.171 133.495 300.056 133.64C299.941 133.783 299.879 133.955 299.87 134.155H298.915C298.925 133.801 299.03 133.49 299.228 133.222C299.428 132.953 299.692 132.743 300.02 132.592C300.349 132.441 300.713 132.365 301.114 132.365C301.533 132.365 301.895 132.447 302.2 132.611C302.507 132.773 302.743 132.989 302.91 133.26C303.078 133.531 303.161 133.827 303.159 134.148C303.161 134.515 303.059 134.826 302.852 135.082C302.648 135.337 302.375 135.509 302.034 135.596V135.647C302.469 135.713 302.805 135.886 303.044 136.165C303.285 136.444 303.404 136.79 303.402 137.204C303.404 137.564 303.304 137.887 303.101 138.172C302.901 138.458 302.627 138.683 302.28 138.847C301.933 139.009 301.535 139.089 301.088 139.089ZM304.622 138.188C304.448 138.188 304.297 138.126 304.172 138.003C304.046 137.877 303.983 137.726 303.983 137.549C303.983 137.374 304.046 137.225 304.172 137.102C304.297 136.976 304.448 136.913 304.622 136.913C304.797 136.913 304.947 136.976 305.073 137.102C305.199 137.225 305.262 137.374 305.262 137.549C305.262 137.666 305.232 137.774 305.172 137.872C305.115 137.968 305.038 138.044 304.942 138.102C304.846 138.159 304.74 138.188 304.622 138.188ZM304.622 134.909C304.448 134.909 304.297 134.847 304.172 134.724C304.046 134.598 303.983 134.447 303.983 134.27C303.983 134.095 304.046 133.946 304.172 133.822C304.297 133.697 304.448 133.634 304.622 133.634C304.797 133.634 304.947 133.697 305.073 133.822C305.199 133.946 305.262 134.095 305.262 134.27C305.262 134.387 305.232 134.495 305.172 134.593C305.115 134.689 305.038 134.765 304.942 134.823C304.846 134.88 304.74 134.909 304.622 134.909ZM308.178 139.089C307.739 139.089 307.347 139.014 307.001 138.863C306.658 138.711 306.387 138.501 306.186 138.233C305.988 137.962 305.882 137.649 305.867 137.293H306.87C306.883 137.487 306.948 137.656 307.065 137.798C307.185 137.939 307.34 138.048 307.532 138.124C307.724 138.201 307.937 138.239 308.171 138.239C308.429 138.239 308.657 138.195 308.855 138.105C309.055 138.016 309.212 137.891 309.325 137.731C309.438 137.569 309.494 137.383 309.494 137.172C309.494 136.952 309.438 136.76 309.325 136.593C309.214 136.425 309.051 136.293 308.836 136.197C308.623 136.101 308.365 136.053 308.063 136.053H307.51V135.248H308.063C308.305 135.248 308.518 135.204 308.702 135.117C308.887 135.029 309.032 134.908 309.136 134.752C309.241 134.595 309.293 134.411 309.293 134.2C309.293 133.997 309.247 133.821 309.156 133.672C309.066 133.521 308.938 133.403 308.772 133.317C308.608 133.232 308.414 133.19 308.19 133.19C307.977 133.19 307.778 133.229 307.593 133.308C307.409 133.385 307.26 133.495 307.145 133.64C307.03 133.783 306.968 133.955 306.96 134.155H306.004C306.015 133.801 306.119 133.49 306.317 133.222C306.518 132.953 306.782 132.743 307.11 132.592C307.438 132.441 307.803 132.365 308.203 132.365C308.623 132.365 308.985 132.447 309.29 132.611C309.597 132.773 309.833 132.989 309.999 133.26C310.168 133.531 310.251 133.827 310.249 134.148C310.251 134.515 310.148 134.826 309.942 135.082C309.737 135.337 309.464 135.509 309.124 135.596V135.647C309.558 135.713 309.895 135.886 310.134 136.165C310.374 136.444 310.494 136.79 310.491 137.204C310.494 137.564 310.393 137.887 310.191 138.172C309.991 138.458 309.717 138.683 309.37 138.847C309.022 139.009 308.625 139.089 308.178 139.089ZM313.348 139.109C312.843 139.107 312.412 138.973 312.054 138.709C311.696 138.445 311.422 138.06 311.233 137.555C311.043 137.05 310.948 136.442 310.948 135.73C310.948 135.021 311.043 134.415 311.233 133.912C311.424 133.409 311.699 133.026 312.057 132.761C312.417 132.497 312.848 132.365 313.348 132.365C313.849 132.365 314.278 132.498 314.636 132.765C314.994 133.029 315.268 133.412 315.458 133.915C315.649 134.416 315.745 135.021 315.745 135.73C315.745 136.444 315.651 137.054 315.461 137.559C315.271 138.061 314.997 138.446 314.64 138.712C314.282 138.977 313.851 139.109 313.348 139.109ZM313.348 138.255C313.792 138.255 314.138 138.039 314.387 137.607C314.638 137.174 314.764 136.549 314.764 135.73C314.764 135.187 314.707 134.728 314.592 134.353C314.479 133.976 314.316 133.69 314.103 133.496C313.892 133.3 313.64 133.202 313.348 133.202C312.907 133.202 312.561 133.42 312.31 133.854C312.058 134.289 311.931 134.914 311.929 135.73C311.929 136.276 311.986 136.737 312.099 137.114C312.214 137.489 312.377 137.774 312.588 137.968C312.799 138.159 313.052 138.255 313.348 138.255Z" fill="#3C3C3C"/>
<path d="M294.908 170.109C294.403 170.107 293.972 169.973 293.614 169.709C293.256 169.445 292.982 169.06 292.793 168.555C292.603 168.05 292.508 167.442 292.508 166.73C292.508 166.021 292.603 165.415 292.793 164.912C292.984 164.409 293.259 164.026 293.617 163.761C293.977 163.497 294.408 163.365 294.908 163.365C295.409 163.365 295.838 163.498 296.196 163.765C296.554 164.029 296.828 164.412 297.018 164.915C297.21 165.416 297.305 166.021 297.305 166.73C297.305 167.444 297.211 168.054 297.021 168.559C296.831 169.061 296.558 169.446 296.2 169.712C295.842 169.977 295.411 170.109 294.908 170.109ZM294.908 169.255C295.352 169.255 295.698 169.039 295.947 168.607C296.199 168.174 296.324 167.549 296.324 166.73C296.324 166.187 296.267 165.728 296.152 165.353C296.039 164.976 295.876 164.69 295.663 164.496C295.452 164.3 295.2 164.202 294.908 164.202C294.467 164.202 294.121 164.42 293.87 164.854C293.618 165.289 293.491 165.914 293.489 166.73C293.489 167.276 293.546 167.737 293.659 168.114C293.774 168.489 293.937 168.774 294.148 168.968C294.359 169.159 294.612 169.255 294.908 169.255ZM300.094 170.089C299.802 170.085 299.515 170.032 299.231 169.93C298.95 169.827 298.694 169.657 298.464 169.418C298.234 169.18 298.05 168.859 297.911 168.456C297.775 168.054 297.707 167.551 297.707 166.948C297.707 166.377 297.763 165.87 297.876 165.426C297.991 164.983 298.156 164.609 298.372 164.305C298.587 163.998 298.847 163.765 299.152 163.605C299.456 163.445 299.798 163.365 300.177 163.365C300.567 163.365 300.914 163.442 301.216 163.595C301.519 163.749 301.764 163.961 301.951 164.231C302.141 164.502 302.261 164.81 302.312 165.155H301.338C301.272 164.882 301.141 164.659 300.944 164.487C300.748 164.314 300.493 164.228 300.177 164.228C299.698 164.228 299.324 164.437 299.056 164.854C298.789 165.272 298.655 165.853 298.653 166.596H298.701C298.814 166.411 298.952 166.253 299.116 166.123C299.283 165.991 299.468 165.89 299.672 165.82C299.879 165.747 300.096 165.711 300.324 165.711C300.704 165.711 301.047 165.804 301.354 165.989C301.663 166.172 301.909 166.426 302.092 166.75C302.275 167.074 302.367 167.444 302.367 167.862C302.367 168.279 302.272 168.658 302.082 168.996C301.895 169.335 301.631 169.604 301.29 169.802C300.949 169.998 300.55 170.094 300.094 170.089ZM300.091 169.259C300.343 169.259 300.567 169.197 300.766 169.073C300.964 168.95 301.12 168.783 301.235 168.575C301.35 168.366 301.408 168.132 301.408 167.875C301.408 167.623 301.351 167.394 301.239 167.188C301.128 166.981 300.974 166.817 300.778 166.695C300.584 166.574 300.363 166.513 300.114 166.513C299.924 166.513 299.748 166.549 299.586 166.622C299.426 166.694 299.286 166.794 299.164 166.922C299.043 167.05 298.947 167.197 298.877 167.363C298.808 167.527 298.774 167.701 298.774 167.884C298.774 168.129 298.831 168.356 298.944 168.565C299.059 168.774 299.215 168.942 299.414 169.07C299.614 169.196 299.84 169.259 300.091 169.259ZM303.543 169.188C303.369 169.188 303.218 169.126 303.093 169.003C302.967 168.877 302.904 168.726 302.904 168.549C302.904 168.374 302.967 168.225 303.093 168.102C303.218 167.976 303.369 167.913 303.543 167.913C303.718 167.913 303.868 167.976 303.994 168.102C304.12 168.225 304.182 168.374 304.182 168.549C304.182 168.666 304.153 168.774 304.093 168.872C304.035 168.968 303.959 169.044 303.863 169.102C303.767 169.159 303.66 169.188 303.543 169.188ZM303.543 165.909C303.369 165.909 303.218 165.847 303.093 165.724C302.967 165.598 302.904 165.447 302.904 165.27C302.904 165.095 302.967 164.946 303.093 164.822C303.218 164.697 303.369 164.634 303.543 164.634C303.718 164.634 303.868 164.697 303.994 164.822C304.12 164.946 304.182 165.095 304.182 165.27C304.182 165.387 304.153 165.495 304.093 165.593C304.035 165.689 303.959 165.765 303.863 165.823C303.767 165.88 303.66 165.909 303.543 165.909ZM307.098 170.109C306.593 170.107 306.162 169.973 305.804 169.709C305.446 169.445 305.172 169.06 304.983 168.555C304.793 168.05 304.698 167.442 304.698 166.73C304.698 166.021 304.793 165.415 304.983 164.912C305.174 164.409 305.449 164.026 305.807 163.761C306.167 163.497 306.598 163.365 307.098 163.365C307.599 163.365 308.029 163.498 308.386 163.765C308.744 164.029 309.018 164.412 309.208 164.915C309.4 165.416 309.495 166.021 309.495 166.73C309.495 167.444 309.401 168.054 309.211 168.559C309.021 169.061 308.748 169.446 308.39 169.712C308.032 169.977 307.601 170.109 307.098 170.109ZM307.098 169.255C307.542 169.255 307.888 169.039 308.137 168.607C308.389 168.174 308.514 167.549 308.514 166.73C308.514 166.187 308.457 165.728 308.342 165.353C308.229 164.976 308.066 164.69 307.853 164.496C307.642 164.3 307.39 164.202 307.098 164.202C306.657 164.202 306.311 164.42 306.06 164.854C305.808 165.289 305.682 165.914 305.679 166.73C305.679 167.276 305.736 167.737 305.849 168.114C305.964 168.489 306.127 168.774 306.338 168.968C306.549 169.159 306.802 169.255 307.098 169.255ZM312.278 170.109C311.773 170.107 311.342 169.973 310.984 169.709C310.626 169.445 310.352 169.06 310.162 168.555C309.973 168.05 309.878 167.442 309.878 166.73C309.878 166.021 309.973 165.415 310.162 164.912C310.354 164.409 310.629 164.026 310.987 163.761C311.347 163.497 311.777 163.365 312.278 163.365C312.779 163.365 313.208 163.498 313.566 163.765C313.924 164.029 314.198 164.412 314.387 164.915C314.579 165.416 314.675 166.021 314.675 166.73C314.675 167.444 314.58 168.054 314.391 168.559C314.201 169.061 313.927 169.446 313.569 169.712C313.211 169.977 312.781 170.109 312.278 170.109ZM312.278 169.255C312.721 169.255 313.067 169.039 313.317 168.607C313.568 168.174 313.694 167.549 313.694 166.73C313.694 166.187 313.636 165.728 313.521 165.353C313.408 164.976 313.245 164.69 313.032 164.496C312.821 164.3 312.57 164.202 312.278 164.202C311.837 164.202 311.491 164.42 311.239 164.854C310.988 165.289 310.861 165.914 310.859 166.73C310.859 167.276 310.915 167.737 311.028 168.114C311.143 168.489 311.306 168.774 311.517 168.968C311.728 169.159 311.982 169.255 312.278 169.255Z" fill="#3C3C3C"/>
<path d="M294.908 232.109C294.403 232.107 293.972 231.973 293.614 231.709C293.256 231.445 292.982 231.06 292.793 230.555C292.603 230.05 292.508 229.442 292.508 228.73C292.508 228.021 292.603 227.415 292.793 226.912C292.984 226.409 293.259 226.026 293.617 225.761C293.977 225.497 294.408 225.365 294.908 225.365C295.409 225.365 295.838 225.498 296.196 225.765C296.554 226.029 296.828 226.412 297.018 226.915C297.21 227.416 297.305 228.021 297.305 228.73C297.305 229.444 297.211 230.054 297.021 230.559C296.831 231.061 296.558 231.446 296.2 231.712C295.842 231.977 295.411 232.109 294.908 232.109ZM294.908 231.255C295.352 231.255 295.698 231.039 295.947 230.607C296.199 230.174 296.324 229.549 296.324 228.73C296.324 228.187 296.267 227.728 296.152 227.353C296.039 226.976 295.876 226.69 295.663 226.496C295.452 226.3 295.2 226.202 294.908 226.202C294.467 226.202 294.121 226.42 293.87 226.854C293.618 227.289 293.491 227.914 293.489 228.73C293.489 229.276 293.546 229.737 293.659 230.114C293.774 230.489 293.937 230.774 294.148 230.968C294.359 231.159 294.612 231.255 294.908 231.255ZM297.854 232L300.711 226.349V226.301H297.406V225.455H301.734V226.33L298.886 232H297.854ZM302.55 231.188C302.375 231.188 302.225 231.126 302.099 231.003C301.974 230.877 301.911 230.726 301.911 230.549C301.911 230.374 301.974 230.225 302.099 230.102C302.225 229.976 302.375 229.913 302.55 229.913C302.725 229.913 302.875 229.976 303.001 230.102C303.126 230.225 303.189 230.374 303.189 230.549C303.189 230.666 303.159 230.774 303.1 230.872C303.042 230.968 302.966 231.044 302.87 231.102C302.774 231.159 302.667 231.188 302.55 231.188ZM302.55 227.909C302.375 227.909 302.225 227.847 302.099 227.724C301.974 227.598 301.911 227.447 301.911 227.27C301.911 227.095 301.974 226.946 302.099 226.822C302.225 226.697 302.375 226.634 302.55 226.634C302.725 226.634 302.875 226.697 303.001 226.822C303.126 226.946 303.189 227.095 303.189 227.27C303.189 227.387 303.159 227.495 303.1 227.593C303.042 227.689 302.966 227.765 302.87 227.823C302.774 227.88 302.667 227.909 302.55 227.909ZM306.105 232.109C305.6 232.107 305.169 231.973 304.811 231.709C304.453 231.445 304.179 231.06 303.99 230.555C303.8 230.05 303.705 229.442 303.705 228.73C303.705 228.021 303.8 227.415 303.99 226.912C304.181 226.409 304.456 226.026 304.814 225.761C305.174 225.497 305.605 225.365 306.105 225.365C306.606 225.365 307.035 225.498 307.393 225.765C307.751 226.029 308.025 226.412 308.215 226.915C308.406 227.416 308.502 228.021 308.502 228.73C308.502 229.444 308.407 230.054 308.218 230.559C308.028 231.061 307.754 231.446 307.396 231.712C307.039 231.977 306.608 232.109 306.105 232.109ZM306.105 231.255C306.548 231.255 306.895 231.039 307.144 230.607C307.395 230.174 307.521 229.549 307.521 228.73C307.521 228.187 307.464 227.728 307.349 227.353C307.236 226.976 307.073 226.69 306.86 226.496C306.649 226.3 306.397 226.202 306.105 226.202C305.664 226.202 305.318 226.42 305.067 226.854C304.815 227.289 304.688 227.914 304.686 228.73C304.686 229.276 304.743 229.737 304.856 230.114C304.971 230.489 305.134 230.774 305.345 230.968C305.556 231.159 305.809 231.255 306.105 231.255ZM311.285 232.109C310.78 232.107 310.348 231.973 309.99 231.709C309.633 231.445 309.359 231.06 309.169 230.555C308.979 230.05 308.885 229.442 308.885 228.73C308.885 228.021 308.979 227.415 309.169 226.912C309.361 226.409 309.636 226.026 309.994 225.761C310.354 225.497 310.784 225.365 311.285 225.365C311.786 225.365 312.215 225.498 312.573 225.765C312.931 226.029 313.205 226.412 313.394 226.915C313.586 227.416 313.682 228.021 313.682 228.73C313.682 229.444 313.587 230.054 313.397 230.559C313.208 231.061 312.934 231.446 312.576 231.712C312.218 231.977 311.788 232.109 311.285 232.109ZM311.285 231.255C311.728 231.255 312.074 231.039 312.324 230.607C312.575 230.174 312.701 229.549 312.701 228.73C312.701 228.187 312.643 227.728 312.528 227.353C312.415 226.976 312.252 226.69 312.039 226.496C311.828 226.3 311.577 226.202 311.285 226.202C310.844 226.202 310.498 226.42 310.246 226.854C309.995 227.289 309.868 227.914 309.866 228.73C309.866 229.276 309.922 229.737 310.035 230.114C310.15 230.489 310.313 230.774 310.524 230.968C310.735 231.159 310.989 231.255 311.285 231.255Z" fill="#3C3C3C"/>
<path d="M294.908 201.109C294.403 201.107 293.972 200.973 293.614 200.709C293.256 200.445 292.982 200.06 292.793 199.555C292.603 199.05 292.508 198.442 292.508 197.73C292.508 197.021 292.603 196.415 292.793 195.912C292.984 195.409 293.259 195.026 293.617 194.761C293.977 194.497 294.408 194.365 294.908 194.365C295.409 194.365 295.838 194.498 296.196 194.765C296.554 195.029 296.828 195.412 297.018 195.915C297.21 196.416 297.305 197.021 297.305 197.73C297.305 198.444 297.211 199.054 297.021 199.559C296.831 200.061 296.558 200.446 296.2 200.712C295.842 200.977 295.411 201.109 294.908 201.109ZM294.908 200.255C295.352 200.255 295.698 200.039 295.947 199.607C296.199 199.174 296.324 198.549 296.324 197.73C296.324 197.187 296.267 196.728 296.152 196.353C296.039 195.976 295.876 195.69 295.663 195.496C295.452 195.3 295.2 195.202 294.908 195.202C294.467 195.202 294.121 195.42 293.87 195.854C293.618 196.289 293.491 196.914 293.489 197.73C293.489 198.276 293.546 198.737 293.659 199.114C293.774 199.489 293.937 199.774 294.148 199.968C294.359 200.159 294.612 200.255 294.908 200.255ZM300.094 201.089C299.802 201.085 299.515 201.032 299.231 200.93C298.95 200.827 298.694 200.657 298.464 200.418C298.234 200.18 298.05 199.859 297.911 199.456C297.775 199.054 297.707 198.551 297.707 197.948C297.707 197.377 297.763 196.87 297.876 196.426C297.991 195.983 298.156 195.609 298.372 195.305C298.587 194.998 298.847 194.765 299.152 194.605C299.456 194.445 299.798 194.365 300.177 194.365C300.567 194.365 300.914 194.442 301.216 194.595C301.519 194.749 301.764 194.961 301.951 195.231C302.141 195.502 302.261 195.81 302.312 196.155H301.338C301.272 195.882 301.141 195.659 300.944 195.487C300.748 195.314 300.493 195.228 300.177 195.228C299.698 195.228 299.324 195.437 299.056 195.854C298.789 196.272 298.655 196.853 298.653 197.596H298.701C298.814 197.411 298.952 197.253 299.116 197.123C299.283 196.991 299.468 196.89 299.672 196.82C299.879 196.747 300.096 196.711 300.324 196.711C300.704 196.711 301.047 196.804 301.354 196.989C301.663 197.172 301.909 197.426 302.092 197.75C302.275 198.074 302.367 198.444 302.367 198.862C302.367 199.279 302.272 199.658 302.082 199.996C301.895 200.335 301.631 200.604 301.29 200.802C300.949 200.998 300.55 201.094 300.094 201.089ZM300.091 200.259C300.343 200.259 300.567 200.197 300.766 200.073C300.964 199.95 301.12 199.783 301.235 199.575C301.35 199.366 301.408 199.132 301.408 198.875C301.408 198.623 301.351 198.394 301.239 198.188C301.128 197.981 300.974 197.817 300.778 197.695C300.584 197.574 300.363 197.513 300.114 197.513C299.924 197.513 299.748 197.549 299.586 197.622C299.426 197.694 299.286 197.794 299.164 197.922C299.043 198.05 298.947 198.197 298.877 198.363C298.808 198.527 298.774 198.701 298.774 198.884C298.774 199.129 298.831 199.356 298.944 199.565C299.059 199.774 299.215 199.942 299.414 200.07C299.614 200.196 299.84 200.259 300.091 200.259ZM303.543 200.188C303.369 200.188 303.218 200.126 303.093 200.003C302.967 199.877 302.904 199.726 302.904 199.549C302.904 199.374 302.967 199.225 303.093 199.102C303.218 198.976 303.369 198.913 303.543 198.913C303.718 198.913 303.868 198.976 303.994 199.102C304.12 199.225 304.182 199.374 304.182 199.549C304.182 199.666 304.153 199.774 304.093 199.872C304.035 199.968 303.959 200.044 303.863 200.102C303.767 200.159 303.66 200.188 303.543 200.188ZM303.543 196.909C303.369 196.909 303.218 196.847 303.093 196.724C302.967 196.598 302.904 196.447 302.904 196.27C302.904 196.095 302.967 195.946 303.093 195.822C303.218 195.697 303.369 195.634 303.543 195.634C303.718 195.634 303.868 195.697 303.994 195.822C304.12 195.946 304.182 196.095 304.182 196.27C304.182 196.387 304.153 196.495 304.093 196.593C304.035 196.689 303.959 196.765 303.863 196.823C303.767 196.88 303.66 196.909 303.543 196.909ZM307.098 201.089C306.66 201.089 306.267 201.014 305.922 200.863C305.579 200.711 305.308 200.501 305.107 200.233C304.909 199.962 304.803 199.649 304.788 199.293H305.791C305.804 199.487 305.869 199.656 305.986 199.798C306.106 199.939 306.261 200.048 306.453 200.124C306.645 200.201 306.858 200.239 307.092 200.239C307.35 200.239 307.578 200.195 307.776 200.105C307.976 200.016 308.133 199.891 308.246 199.731C308.359 199.569 308.415 199.383 308.415 199.172C308.415 198.952 308.359 198.76 308.246 198.593C308.135 198.425 307.972 198.293 307.757 198.197C307.544 198.101 307.286 198.053 306.983 198.053H306.43V197.248H306.983C307.226 197.248 307.439 197.204 307.623 197.117C307.808 197.029 307.953 196.908 308.057 196.752C308.162 196.595 308.214 196.411 308.214 196.2C308.214 195.997 308.168 195.821 308.076 195.672C307.987 195.521 307.859 195.403 307.693 195.317C307.529 195.232 307.335 195.19 307.111 195.19C306.898 195.19 306.699 195.229 306.514 195.308C306.33 195.385 306.181 195.495 306.066 195.64C305.951 195.783 305.889 195.955 305.881 196.155H304.925C304.936 195.801 305.04 195.49 305.238 195.222C305.439 194.953 305.703 194.743 306.031 194.592C306.359 194.441 306.723 194.365 307.124 194.365C307.544 194.365 307.906 194.447 308.211 194.611C308.517 194.773 308.754 194.989 308.92 195.26C309.089 195.531 309.172 195.827 309.169 196.148C309.172 196.515 309.069 196.826 308.863 197.082C308.658 197.337 308.385 197.509 308.044 197.596V197.647C308.479 197.713 308.816 197.886 309.054 198.165C309.295 198.444 309.415 198.79 309.412 199.204C309.415 199.564 309.314 199.887 309.112 200.172C308.912 200.458 308.638 200.683 308.291 200.847C307.943 201.009 307.546 201.089 307.098 201.089ZM312.269 201.109C311.764 201.107 311.333 200.973 310.975 200.709C310.617 200.445 310.343 200.06 310.153 199.555C309.964 199.05 309.869 198.442 309.869 197.73C309.869 197.021 309.964 196.415 310.153 195.912C310.345 195.409 310.62 195.026 310.978 194.761C311.338 194.497 311.769 194.365 312.269 194.365C312.77 194.365 313.199 194.498 313.557 194.765C313.915 195.029 314.189 195.412 314.379 195.915C314.57 196.416 314.666 197.021 314.666 197.73C314.666 198.444 314.571 199.054 314.382 199.559C314.192 200.061 313.918 200.446 313.56 200.712C313.202 200.977 312.772 201.109 312.269 201.109ZM312.269 200.255C312.712 200.255 313.059 200.039 313.308 199.607C313.559 199.174 313.685 198.549 313.685 197.73C313.685 197.187 313.628 196.728 313.512 196.353C313.4 195.976 313.237 195.69 313.024 195.496C312.813 195.3 312.561 195.202 312.269 195.202C311.828 195.202 311.482 195.42 311.231 195.854C310.979 196.289 310.852 196.914 310.85 197.73C310.85 198.276 310.907 198.737 311.02 199.114C311.135 199.489 311.298 199.774 311.509 199.968C311.72 200.159 311.973 200.255 312.269 200.255Z" fill="#3C3C3C"/>
</svg>
