<svg width="24" height="24" viewBox="0 0 24 24" fill="none" xmlns="http://www.w3.org/2000/svg">
<path fill-rule="evenodd" clip-rule="evenodd" d="M4.83366 0C4.31075 0 3.83272 0.285337 3.59887 0.737049L0.147528 7.40372C0.00264002 7.68358 -0.029988 7.97905 0.0254927 8.25238C0.0086663 8.38812 0 8.52638 0 8.66667C0 8.89498 0.0229535 9.11793 0.0666787 9.33333C0.3318 10.6394 1.36058 11.6682 2.66667 11.9333V22.6667C2.66667 23.403 3.26362 24 4 24H6.66667H9.33333H20C20.7364 24 21.3333 23.403 21.3333 22.6667V11.9333C22.6394 11.6682 23.6682 10.6394 23.9333 9.33333C23.977 9.11793 24 8.89498 24 8.66667C24 8.52638 23.9913 8.38812 23.9745 8.25238C24.03 7.97905 23.9974 7.68358 23.8525 7.40372L20.4011 0.737049C20.1673 0.285337 19.6892 0 19.1663 0H4.83366ZM20 11.9333V22.6667H10.6667V14.6667C10.6667 13.9303 10.0697 13.3333 9.33333 13.3333H6.66667C5.93029 13.3333 5.33333 13.9303 5.33333 14.6667V22.6667H4V11.9333C4.81336 11.7682 5.51918 11.307 6 10.667C6.60815 11.4764 7.57627 12 8.66667 12C10.2793 12 11.6245 10.8548 11.9333 9.33333H12.0667C12.3755 10.8548 13.7207 12 15.3333 12C16.4237 12 17.3918 11.4764 18 10.667C18.4808 11.307 19.1866 11.7682 20 11.9333ZM6.66667 22.6667H9.33333V14.6667H6.66667V22.6667ZM20.6667 10.6667C21.5375 10.6667 22.2783 10.1101 22.5529 9.33333H18.7805C19.055 10.1101 19.7959 10.6667 20.6667 10.6667ZM3.33333 10.6667C4.20414 10.6667 4.94497 10.1101 5.21953 9.33333H1.44714C1.72169 10.1101 2.46252 10.6667 3.33333 10.6667ZM18.6 8H17.4H12.0667H11.9333H6.59999H5.40001H1.38232L4.83366 1.33333L19.1663 1.33333L22.6177 8H18.6ZM13.4471 9.33333C13.7217 10.1101 14.4625 10.6667 15.3333 10.6667C16.2041 10.6667 16.945 10.1101 17.2195 9.33333H13.4471ZM8.66667 10.6667C7.79585 10.6667 7.05503 10.1101 6.78047 9.33333H10.5529C10.2783 10.1101 9.53748 10.6667 8.66667 10.6667ZM17.3333 17.3333V14.6667H13.3333V17.3333H17.3333ZM13.3333 13.3333C12.597 13.3333 12 13.9303 12 14.6667V17.3333C12 18.0697 12.597 18.6667 13.3333 18.6667H17.3333C18.0697 18.6667 18.6667 18.0697 18.6667 17.3333V14.6667C18.6667 13.9303 18.0697 13.3333 17.3333 13.3333H13.3333Z" fill="#787878"/>
</svg>
