<svg width="48" height="50" viewBox="0 0 48 50" fill="none" xmlns="http://www.w3.org/2000/svg">
<g clip-path="url(#clip0_1671_286)">
<path d="M40.0104 31.9067L47.6906 39.8245L37.9106 40.654V49.848L28.1973 40.1681L32.8016 34.4936L40.0104 31.9067Z" fill="#BDE6F0"/>
<path d="M39.0821 30.9492L47.6908 39.8241L43.2436 40.2021L35.0254 31.3861L39.0821 30.9492Z" fill="#3EAEBA"/>
<path d="M37.9435 45.749L37.9102 49.8478L27.7207 39.6769L32.1393 39.6426L37.9435 45.749Z" fill="#3EAEBA"/>
<path d="M8.19484 31.4302L0.514648 39.343L10.2946 40.1775V49.3715L20.008 39.6866L15.4036 34.0122L8.19484 31.4302Z" fill="#BDE6F0"/>
<path d="M9.12332 30.4731L0.514648 39.3432L4.96183 39.7211L13.1801 30.91L9.12332 30.4731Z" fill="#3EAEBA"/>
<path d="M10.2607 45.268L10.2941 49.3717L20.4835 39.196L16.0649 39.1665L10.2607 45.268Z" fill="#3EAEBA"/>
<path d="M10.4271 50.0001C10.3462 50.0001 10.27 49.9854 10.1938 49.951C9.96527 49.8528 9.81767 49.627 9.81767 49.3669V40.6392L0.575729 40.0698C0.337657 40.0551 0.128154 39.898 0.0424481 39.6624C-0.0432577 39.4317 0.0138795 39.1666 0.18053 38.9948L9.37009 29.521L10.0415 30.2131L1.38993 39.1371L10.77 39.7164V48.5226L21.2546 37.7136L21.926 38.4057L10.8557 49.8185C10.7366 49.9412 10.5843 50.005 10.4224 50.005L10.4271 50.0001Z" fill="#231F20"/>
<path d="M9.80635 34.0368L4.51367 39.4932L5.18704 40.1874L10.4797 34.731L9.80635 34.0368Z" fill="#231F20"/>
<path d="M15.7302 38.9687L9.95605 44.9214L10.6294 45.6156L16.4036 39.6629L15.7302 38.9687Z" fill="#231F20"/>
<path d="M37.5679 50C37.4108 50 37.2537 49.9361 37.1347 49.8134L26.0977 38.4351L26.769 37.7429L37.2204 48.5175V39.7113L46.6004 39.1321L37.8822 30.1443L38.5536 29.4521L47.8098 38.9947C47.9812 39.1714 48.0336 39.4315 47.9479 39.6622C47.8622 39.893 47.6527 40.05 47.4146 40.0697L38.1726 40.6391V49.3667C38.1726 49.622 38.025 49.8527 37.7965 49.9509C37.7203 49.9852 37.6394 50 37.5632 50H37.5679Z" fill="#231F20"/>
<path d="M37.8335 33.6657L37.1602 34.3599L42.8131 40.1876L43.4865 39.4934L37.8335 33.6657Z" fill="#231F20"/>
<path d="M32.149 38.8507L31.4756 39.5449L37.3642 45.6157L38.0376 44.9215L32.149 38.8507Z" fill="#231F20"/>
<path d="M20.9979 2.22375C22.1692 4.38848 25.2022 4.35412 26.3307 2.16484C27.9019 -0.898185 32.4253 0.559699 32.0206 4.0007C31.7349 6.46486 34.2061 8.27617 36.3678 7.18153C39.3865 5.65493 42.2148 9.57698 39.9246 12.1148C38.2866 13.931 39.258 16.8958 41.6292 17.3229C44.9431 17.9169 44.9955 22.801 41.6958 23.4735C39.3341 23.9546 38.4295 26.939 40.1055 28.716C42.4481 31.2047 39.7055 35.1857 36.6535 33.7278C34.4727 32.6822 32.0349 34.5524 32.3729 37.0068C32.8491 40.438 28.359 41.9989 26.7211 38.9703C25.5498 36.8055 22.5168 36.8399 21.3883 39.0292C19.817 42.0922 15.2937 40.6343 15.6984 37.1933C15.9841 34.7291 13.5129 32.9178 11.3512 34.0125C8.33245 35.5391 5.50416 31.617 7.79441 29.0792C9.43234 27.263 8.46101 24.2982 6.08981 23.8711C2.77586 23.2772 2.72348 18.393 6.02315 17.7205C8.38482 17.2395 9.2895 14.255 7.61347 12.478C5.27085 9.98931 8.01343 6.00835 11.0655 7.46624C13.2462 8.51179 15.6841 6.64158 15.346 4.18723C14.8699 0.756047 19.3599 -0.804919 20.9979 2.22375Z" fill="#BDE6F0"/>
<path d="M18.7504 41.1938C18.3742 41.1938 17.9981 41.1348 17.6552 41.0219C16.2697 40.5753 14.9793 39.2008 15.2174 37.1343C15.3317 36.1574 14.9365 35.2395 14.1603 34.6701C13.3842 34.1007 12.4081 34.0221 11.5558 34.4541C9.7465 35.372 8.06095 34.567 7.19437 33.3644C6.32779 32.1618 6.06591 30.267 7.43721 28.7453C8.08476 28.0237 8.2895 27.042 7.98477 26.1093C7.68004 25.1767 6.93726 24.5238 5.99925 24.3569C4.01374 23.9986 3.10906 22.3296 3.09002 20.8325C3.07573 19.3353 3.94231 17.6467 5.92307 17.2442C6.85631 17.0528 7.58481 16.3803 7.8705 15.4427C8.15618 14.5052 7.92763 13.5234 7.26579 12.8215C5.86117 11.3292 6.08496 9.42957 6.92297 8.2073C7.76574 6.98504 9.43225 6.14565 11.2606 7.0194C12.1272 7.43173 13.0985 7.32865 13.8604 6.74451C14.627 6.16038 15.0031 5.22772 14.865 4.2558C14.5794 2.19906 15.8411 0.795169 17.2172 0.314117C18.5932 -0.166936 20.4216 0.166856 21.4025 1.98307C21.8643 2.8421 22.7214 3.3526 23.6642 3.33787C24.6165 3.32806 25.4497 2.80283 25.8973 1.93399C26.84 0.0981341 28.6589 -0.274927 30.0492 0.171765C31.4348 0.618456 32.7252 1.99289 32.4871 4.05945C32.3728 5.03628 32.768 5.95421 33.5441 6.52362C34.3203 7.09303 35.2963 7.17157 36.1486 6.7396C37.958 5.82658 39.6435 6.6267 40.5101 7.82933C41.3767 9.03196 41.6386 10.9267 40.2673 12.4484C39.6197 13.17 39.415 14.1517 39.7197 15.0844C40.0245 16.017 40.7672 16.6699 41.7052 16.8368C43.6908 17.1951 44.5954 18.8641 44.6145 20.3612C44.6335 21.8584 43.7622 23.5519 41.7814 23.9495C40.8482 24.1409 40.1197 24.8134 39.834 25.751C39.5483 26.6886 39.7769 27.6703 40.4387 28.3722C41.8433 29.8645 41.6195 31.7641 40.7815 32.9864C39.9435 34.2087 38.2722 35.0481 36.4439 34.1743C35.5773 33.762 34.6059 33.8651 33.8441 34.4492C33.0823 35.0333 32.7061 35.966 32.8394 36.9379C33.1251 38.9947 31.8634 40.3985 30.4873 40.8796C29.1112 41.3557 27.2829 41.0269 26.302 39.2106C25.8449 38.3614 25.0117 37.8558 24.0689 37.8558H24.0403C23.088 37.8657 22.2548 38.3909 21.8072 39.2597C21.0978 40.6391 19.8931 41.1938 18.7504 41.1938ZM12.6891 33.1975C13.3985 33.1975 14.0984 33.4233 14.7127 33.8749C15.7792 34.6554 16.322 35.9218 16.1649 37.257C15.9792 38.8621 17.0029 39.785 17.9409 40.0893C18.8789 40.3936 20.2312 40.2366 20.9644 38.8081C21.5739 37.6153 22.7214 36.8986 24.026 36.8839C25.3354 36.8839 26.4925 37.5613 27.1305 38.7394C27.8923 40.1531 29.2493 40.2758 30.1826 39.9519C31.111 39.6279 32.1205 38.6854 31.8967 37.0803C31.711 35.7451 32.23 34.4688 33.2775 33.6638C34.325 32.8588 35.6582 32.7164 36.8486 33.2858C38.2722 33.9681 39.4388 33.2466 40.0102 32.4219C40.5815 31.5972 40.8529 30.2228 39.7626 29.0595C38.8531 28.0924 38.5436 26.7475 38.9341 25.4614C39.3245 24.1753 40.3244 23.2525 41.6052 22.9923C43.1432 22.6781 43.6812 21.3872 43.6669 20.376C43.6574 19.3648 43.0956 18.0836 41.5481 17.8087C40.2625 17.578 39.2436 16.6797 38.8246 15.3985C38.4056 14.1174 38.6865 12.7675 39.5769 11.7808C40.6434 10.5929 40.3387 9.22831 39.7531 8.41347C39.1674 7.60353 37.9866 6.9065 36.5772 7.61826C35.4011 8.21221 34.0679 8.09931 33.0013 7.31883C31.9348 6.53835 31.392 5.2719 31.5491 3.93674C31.7348 2.33159 30.7111 1.40876 29.7731 1.10442C28.8398 0.804987 27.4828 0.957156 26.7496 2.38559C26.1401 3.5784 24.9926 4.29507 23.688 4.3098C22.3833 4.33434 21.2216 3.6324 20.5835 2.45431C19.8217 1.0406 18.4647 0.917887 17.5314 1.23695C16.603 1.56093 15.5935 2.5034 15.8173 4.10854C16.003 5.44371 15.484 6.71997 14.4365 7.52499C13.389 8.33002 12.051 8.47237 10.8654 7.90296C9.44177 7.22065 8.27522 7.94223 7.70385 8.7669C7.13247 9.59156 6.86107 10.966 7.95144 12.1294C8.86087 13.0964 9.17037 14.4413 8.77993 15.7274C8.38949 17.0135 7.38959 17.9363 6.10877 18.1965C4.57082 18.5107 4.03278 19.8016 4.04707 20.8128C4.06135 21.824 4.61844 23.1052 6.1659 23.3801C7.45149 23.6108 8.47044 24.5091 8.88944 25.7903C9.30845 27.0714 9.02752 28.4213 8.13714 29.408C7.07058 30.5959 7.37531 31.9605 7.96096 32.7753C8.54662 33.5902 9.72745 34.2823 11.1368 33.5705C11.6368 33.3202 12.1653 33.1926 12.6891 33.1926V33.1975Z" fill="#231F20"/>
<path d="M23.855 34.4395C16.4509 34.4395 10.4277 28.2299 10.4277 20.5969C10.4277 12.9639 16.4509 6.75439 23.855 6.75439C31.259 6.75439 37.2822 12.9639 37.2822 20.5969C37.2822 28.2299 31.259 34.4395 23.855 34.4395ZM23.855 8.227C17.2366 8.227 11.8562 13.7738 11.8562 20.5969C11.8562 27.42 17.2366 32.9668 23.855 32.9668C30.4734 32.9668 35.8538 27.42 35.8538 20.5969C35.8538 13.7738 30.4734 8.227 23.855 8.227Z" fill="#231F20"/>
<path d="M17.7598 21.0925H29.6872V22.8891H17.7598V21.0925ZM26.7446 27.1302V25.6134H18.4597V23.8169H28.9872V27.1302H26.7446ZM28.8444 16.1151H20.8452V16.7925H28.8444V18.2504H20.8452V18.9278H28.9872V20.3857H18.6025V14.6572H28.8444V16.1151Z" fill="#231F20"/>
</g>
<defs>
<clipPath id="clip0_1671_286">
<rect width="48" height="50" fill="white"/>
</clipPath>
</defs>
</svg>
