<svg width="24" height="24" viewBox="0 0 24 24" fill="none" xmlns="http://www.w3.org/2000/svg">
<path fill-rule="evenodd" clip-rule="evenodd" d="M16.89 0.0660343C16.112 -0.0638668 15.1021 -0.0306284 14.123 0.426952C13.2981 0.81247 12.5317 1.48262 11.9586 2.53372C11.7567 2.18133 11.5218 1.87199 11.2621 1.60262C10.2419 0.544459 8.92326 0.19262 8 0.19262C7.63181 0.19262 7.33333 0.492649 7.33333 0.862754C7.33333 1.23286 7.63181 1.53289 8 1.53289C8.6323 1.53289 9.58035 1.78417 10.3046 2.53537C10.9165 3.17003 11.4349 4.2313 11.3944 5.98677C10.2091 5.85671 9.37569 5.35836 8.60249 4.89599C7.61655 4.30642 6.72847 3.77536 5.33333 4.141C2.66667 4.83988 0 8.29395 0 11.1299C0 15.2098 2.49194 21.0926 6 23.4596C7.20152 24.2703 8.57923 24 9.9566 23.7297C10.6452 23.5946 11.3336 23.4596 12 23.4596C12.6664 23.4596 13.3548 23.5946 14.0434 23.7297C15.4208 24 16.7985 24.2703 18 23.4596C21.5081 21.0926 24 15.2098 24 11.1299C24 8.29395 21.3333 4.83988 18.6667 4.141C17.2715 3.77536 16.3834 4.30642 15.3975 4.89599C14.6512 5.34227 13.8488 5.82207 12.7281 5.97187C12.7346 5.60661 12.7203 5.26119 12.6872 4.93485C12.7106 4.93623 12.7341 4.93698 12.758 4.9371C14.3989 4.94526 17.0396 4.34299 17.8454 1.61141C18.0491 0.920608 17.6208 0.188058 16.89 0.0660343ZM12 22.1193C12.6242 22.1193 13.2328 22.2136 13.768 22.3123C13.9737 22.3502 14.1613 22.3871 14.3394 22.4221C14.6629 22.4857 14.9556 22.5432 15.2685 22.5896C16.1953 22.7271 16.7771 22.6705 17.2569 22.3467C18.7374 21.3478 20.1046 19.5206 21.1082 17.3682C22.1074 15.2253 22.6667 12.9295 22.6667 11.1299C22.6667 10.0986 22.1616 8.80665 21.2769 7.65177C20.3909 6.49519 19.2873 5.68872 18.3303 5.43791C17.5542 5.23451 17.101 5.43911 16.2077 5.97112L16.0549 6.06256C15.1505 6.60513 13.893 7.35954 12 7.35954C10.107 7.35954 8.84947 6.60513 7.9451 6.06256L7.79232 5.97112C6.89905 5.43911 6.44583 5.23451 5.66972 5.43791C4.71272 5.68872 3.60909 6.49519 2.72308 7.65177C1.83836 8.80665 1.33333 10.0986 1.33333 11.1299C1.33333 12.9295 1.8926 15.2253 2.89178 17.3682C3.89537 19.5206 5.26265 21.3478 6.7431 22.3467C7.22292 22.6705 7.8047 22.7271 8.73146 22.5896C9.0444 22.5432 9.33662 22.4858 9.66003 22.4222C9.83815 22.3872 10.0263 22.3502 10.232 22.3123C10.7672 22.2136 11.3758 22.1193 12 22.1193ZM16.5237 1.3668C15.9553 3.03517 14.3165 3.56474 12.9246 3.59548C13.3917 2.5177 14.0438 1.94198 14.6851 1.64229C15.3124 1.34913 15.9754 1.29938 16.5237 1.3668Z" fill="#787878"/>
</svg>
