<svg width="46" height="40" viewBox="0 0 46 40" fill="none" xmlns="http://www.w3.org/2000/svg">
<g clip-path="url(#clip0_1671_202)">
<path d="M17.4166 31.9955L9.8055 39.5345L9.6823 30.4961L1.14941 30.0351L10.6268 21.0293L15.6644 25.8116L17.4166 31.9955Z" fill="#FED175"/>
<path d="M18.4024 31.2084L10.157 39.6228L9.80566 35.2736L17.9963 27.2363L18.4024 31.2084Z" fill="#BB882C"/>
<path d="M4.64966 30.0909L0.834961 30.0583L10.2941 20.0933L10.3215 24.4146L4.64966 30.0909Z" fill="#BB882C"/>
<path d="M37.6408 22.4868L45.0284 30.2586L36.1715 30.3797L35.7243 39.0875L26.8994 29.4158L31.5857 24.2796L37.6408 22.4868Z" fill="#FED175"/>
<path d="M36.8692 21.481L45.1146 29.8954L40.8527 30.2586L32.9814 21.8954L36.8692 21.481Z" fill="#BB882C"/>
<path d="M35.7744 35.5203L35.747 39.4086L25.9775 29.7601L30.212 29.7275L35.7744 35.5203Z" fill="#BB882C"/>
<path d="M9.99279 40C9.91522 40 9.84221 39.986 9.7692 39.9534C9.55018 39.8603 9.40872 39.6414 9.40872 39.3993V31.1199L0.551862 30.5797C0.32371 30.5657 0.122936 30.4167 0.0408015 30.1932C-0.0413333 29.9744 0.0134232 29.7229 0.17313 29.5599L8.53718 21.0244L9.18057 21.681L1.33214 29.695L10.3213 30.2444V38.5983L18.4618 30.291L19.1052 30.9476L10.4035 39.8277C10.2894 39.9441 10.1434 40.0046 9.98823 40.0046L9.99279 40Z" fill="black"/>
<path d="M10.173 24.0635L4.32324 30.0332L4.96855 30.6917L10.8183 24.7221L10.173 24.0635Z" fill="black"/>
<path d="M15.5573 29.0426L9.54297 35.1802L10.1883 35.8387L16.2026 29.7011L15.5573 29.0426Z" fill="black"/>
<path d="M36.0021 39.9999C35.8515 39.9999 35.7009 39.9393 35.5868 39.8229L26.876 30.9335L27.5194 30.2769L35.6735 38.5983V30.2444L44.6627 29.6949L36.7686 21.639L37.412 20.9824L45.8217 29.5598C45.986 29.7275 46.0362 29.9743 45.954 30.1931C45.8719 30.412 45.6711 30.561 45.443 30.5796L36.5861 31.1198V39.3992C36.5861 39.6413 36.4447 39.8602 36.2256 39.9533C36.1526 39.9859 36.0751 39.9999 36.0021 39.9999Z" fill="black"/>
<path d="M35.868 24.1076L35.2227 24.7661L41.0272 30.6897L41.6725 30.0311L35.868 24.1076Z" fill="black"/>
<path d="M30.4432 29.0436L29.7979 29.7021L35.8122 35.8397L36.4575 35.1812L30.4432 29.0436Z" fill="black"/>
<path d="M22.9975 31.1992C31.3138 31.1992 38.0555 24.3193 38.0555 15.8325C38.0555 7.34573 31.3138 0.46582 22.9975 0.46582C14.6812 0.46582 7.93945 7.34573 7.93945 15.8325C7.93945 24.3193 14.6812 31.1992 22.9975 31.1992Z" fill="#FED175"/>
<path d="M22.9977 31.6647C14.442 31.6647 7.4834 24.5634 7.4834 15.8324C7.4834 7.10128 14.4466 0 22.9977 0C31.5489 0 38.5121 7.10128 38.5121 15.8324C38.5121 24.5634 31.5534 31.6647 22.9977 31.6647ZM22.9977 0.931315C14.9485 0.931315 8.39601 7.6135 8.39601 15.8324C8.39601 24.0512 14.9485 30.7334 22.9977 30.7334C31.0469 30.7334 37.5995 24.0466 37.5995 15.8324C37.5995 7.61816 31.0515 0.931315 22.9977 0.931315Z" fill="black"/>
<path d="M22.9978 28.0653C16.3906 28.0653 11.0107 22.5798 11.0107 15.8324C11.0107 9.08506 16.3906 3.59961 22.9978 3.59961C29.6051 3.59961 34.985 9.08506 34.985 15.8324C34.985 22.5798 29.6097 28.0653 22.9978 28.0653ZM22.9978 5.00124C17.1435 5.00124 12.3797 9.86271 12.3797 15.8371C12.3797 21.8115 17.1435 26.6729 22.9978 26.6729C28.8522 26.6729 33.616 21.8115 33.616 15.8371C33.616 9.86271 28.8522 5.00124 22.9978 5.00124Z" fill="#231F20"/>
<path d="M21.8754 10.8871H24.6679V12.5914H16.9336V10.8871H19.7262V9.44824H21.8754V10.8871ZM24.3394 17.4669C24.3394 18.184 24.2436 18.794 24.0519 19.2969C23.8603 19.7998 23.6002 20.2096 23.2808 20.5356C22.9568 20.8569 22.5781 21.0897 22.1491 21.234C21.7202 21.3784 21.2685 21.4482 20.7939 21.4482C20.3194 21.4482 19.8585 21.3737 19.4296 21.234C19.0052 21.0897 18.631 20.8569 18.3162 20.5356C17.9968 20.2142 17.7413 19.7998 17.5542 19.2969C17.3671 18.794 17.2713 18.184 17.2713 17.4669C17.2713 16.7498 17.3671 16.1491 17.5542 15.6415C17.7413 15.1339 17.9922 14.7241 18.3162 14.4028C18.6356 14.0862 19.0052 13.8534 19.4296 13.7044C19.8539 13.5553 20.3057 13.4808 20.7939 13.4808C21.2822 13.4808 21.7202 13.5553 22.1491 13.7044C22.5781 13.8534 22.9568 14.0862 23.2808 14.4028C23.6048 14.7195 23.8603 15.1339 24.0519 15.6415C24.2436 16.1491 24.3394 16.7591 24.3394 17.4669ZM19.4113 17.4669C19.4113 18.1933 19.53 18.7521 19.7672 19.1479C20.0045 19.5437 20.3467 19.7439 20.7939 19.7439C21.2411 19.7439 21.5605 19.5484 21.816 19.1572C22.067 18.7661 22.1948 18.198 22.1948 17.4529C22.1948 16.7078 22.067 16.1677 21.816 15.7765C21.5651 15.3854 21.2229 15.1898 20.7939 15.1898C20.365 15.1898 20.0045 15.3854 19.7672 15.7812C19.53 16.177 19.4113 16.7358 19.4113 17.4669ZM27.9533 14.1421H29.1443V15.8464H27.9533V21.4482H25.8041V9.76955H27.9533V14.1421Z" fill="#231F20"/>
</g>
<defs>
<clipPath id="clip0_1671_202">
<rect width="46" height="40" fill="white"/>
</clipPath>
</defs>
</svg>
