<svg width="46" height="40" viewBox="0 0 46 40" fill="none" xmlns="http://www.w3.org/2000/svg">
<g clip-path="url(#clip0_1671_230)">
<path d="M17.4166 31.7997L9.96521 39.8929L9.6823 30.3003L1.14941 29.8393L10.6268 20.8335L15.6644 25.6205L17.4166 31.7997Z" fill="#E5E6E6"/>
<path d="M18.4024 31.0126L10.157 39.427L9.80566 35.0778L17.9963 27.0405L18.4024 31.0126Z" fill="#A09F9F"/>
<path d="M4.64966 29.8951L0.834961 29.8672L10.2941 19.8975L10.3215 24.2188L4.64966 29.8951Z" fill="#A09F9F"/>
<path d="M37.7824 22.4072L45.713 30.0114L36.3131 30.3001L35.8659 39.0079L27.041 29.3362L31.7273 24.1954L37.7824 22.4072Z" fill="#E5E6E6"/>
<path d="M37.0108 21.4019L45.2607 29.8163L40.9943 30.1748L33.123 21.8163L37.0108 21.4019Z" fill="#A09F9F"/>
<path d="M35.916 35.4366L35.8886 39.3248L26.1191 29.6764L30.3536 29.6484L35.916 35.4366Z" fill="#A09F9F"/>
<path d="M9.99279 40C9.91522 40 9.84221 39.986 9.7692 39.9534C9.55018 39.8603 9.40872 39.6414 9.40872 39.3993V31.1199L0.551862 30.5797C0.32371 30.5657 0.122936 30.4167 0.0408015 30.1932C-0.0413333 29.9744 0.0134232 29.7229 0.17313 29.5599L8.53718 21.0244L9.18057 21.681L1.33214 29.695L10.3213 30.2444V38.5983L18.4618 30.291L19.1052 30.9476L10.4035 39.8277C10.294 39.9441 10.1434 40.0046 9.98823 40.0046L9.99279 40Z" fill="#231F20"/>
<path d="M10.173 24.0635L4.32324 30.0332L4.96855 30.6917L10.8183 24.7221L10.173 24.0635Z" fill="#231F20"/>
<path d="M15.5573 29.0426L9.54297 35.1802L10.1883 35.8387L16.2026 29.7011L15.5573 29.0426Z" fill="#231F20"/>
<path d="M36.0021 40.0001C35.8515 40.0001 35.7009 39.9396 35.5868 39.8232L26.876 30.9338L27.5194 30.2772L35.6735 38.5939V30.24L44.6627 29.6905L36.7686 21.6346L37.412 20.978L45.8172 29.5601C45.9814 29.7277 46.0316 29.9745 45.9495 30.1934C45.8673 30.4123 45.6666 30.5613 45.4384 30.5799L36.5816 31.1201V39.3994C36.5816 39.6416 36.4401 39.8605 36.2211 39.9536C36.1481 39.9862 36.0705 40.0001 35.9975 40.0001H36.0021Z" fill="#231F20"/>
<path d="M35.868 24.1125L35.2227 24.771L41.0272 30.6946L41.6725 30.036L35.868 24.1125Z" fill="#231F20"/>
<path d="M30.4432 29.0436L29.7979 29.7021L35.8122 35.8397L36.4575 35.1812L30.4432 29.0436Z" fill="#231F20"/>
<path d="M22.9975 31.1992C31.3138 31.1992 38.0555 24.3193 38.0555 15.8325C38.0555 7.34573 31.3138 0.46582 22.9975 0.46582C14.6812 0.46582 7.93945 7.34573 7.93945 15.8325C7.93945 24.3193 14.6812 31.1992 22.9975 31.1992Z" fill="#E5E6E6"/>
<path d="M22.9977 31.6647C14.442 31.6647 7.4834 24.5634 7.4834 15.8324C7.4834 7.10128 14.4466 0 22.9977 0C31.5489 0 38.5121 7.10128 38.5121 15.8324C38.5121 24.5634 31.5534 31.6647 22.9977 31.6647ZM22.9977 0.931315C14.9485 0.931315 8.39601 7.6135 8.39601 15.8324C8.39601 24.0512 14.9485 30.7334 22.9977 30.7334C31.0469 30.7334 37.5995 24.0466 37.5995 15.8324C37.5995 7.61816 31.0515 0.931315 22.9977 0.931315Z" fill="#231F20"/>
<path d="M22.9978 28.0653C16.3906 28.0653 11.0107 22.5798 11.0107 15.8324C11.0107 9.08506 16.3906 3.59961 22.9978 3.59961C29.6051 3.59961 34.985 9.08506 34.985 15.8324C34.985 22.5798 29.6097 28.0653 22.9978 28.0653ZM22.9978 5.00124C17.1435 5.00124 12.3797 9.86271 12.3797 15.8371C12.3797 21.8115 17.1435 26.6729 22.9978 26.6729C28.8522 26.6729 33.616 21.8115 33.616 15.8371C33.616 9.86271 28.8522 5.00124 22.9978 5.00124Z" fill="#231F20"/>
<path d="M17.207 14.8824H28.6374V16.5867H23.9968V17.355C25.311 17.4202 26.324 17.6298 27.0404 17.9837C27.7568 18.3376 28.1127 18.8964 28.1127 19.6601C28.1127 20.0978 27.9986 20.4656 27.7659 20.7637C27.5332 21.0617 27.1955 21.2992 26.7529 21.4808C26.3103 21.6624 25.7673 21.7928 25.1239 21.8766C24.4805 21.9604 23.7504 22.0023 22.9245 22.0023C22.0986 22.0023 21.3731 21.9604 20.7297 21.8766C20.0863 21.7928 19.5433 21.6624 19.1007 21.4808C18.6581 21.2992 18.3204 21.057 18.0877 20.7637C17.855 20.4656 17.7409 20.0978 17.7409 19.6601C17.7409 18.8964 18.0923 18.3376 18.7995 17.9837C19.5068 17.6298 20.5244 17.4202 21.8476 17.355V16.5867H17.207V14.8824ZM17.7409 12.9546C18.4527 12.8708 19.0551 12.7869 19.5479 12.7031C20.0407 12.6193 20.4468 12.5262 20.7662 12.4191C21.0856 12.312 21.3229 12.1909 21.4826 12.0605C21.6423 11.9301 21.7473 11.7765 21.8066 11.5995H18.0147V9.90918H27.8298V11.5995H23.9831C23.9649 11.674 23.9466 11.7439 23.933 11.8137C23.9193 11.8836 23.901 11.9534 23.8736 12.0279L28.0899 12.9918L27.4328 14.3888L22.8196 13.2992C22.3268 13.6251 21.7062 13.8812 20.9578 14.0675C20.2095 14.2538 19.3562 14.3888 18.398 14.4726L17.7409 12.9499V12.9546ZM22.9291 20.3027C23.9786 20.3027 24.7497 20.2561 25.238 20.163C25.7262 20.0698 25.9681 19.9022 25.9681 19.6601C25.9681 19.4179 25.7217 19.2503 25.238 19.1571C24.7497 19.064 23.9786 19.0174 22.9291 19.0174C21.8796 19.0174 21.1084 19.064 20.6247 19.1571C20.1365 19.2503 19.8947 19.4179 19.8947 19.6601C19.8947 19.9022 20.1365 20.0698 20.6247 20.163C21.113 20.2561 21.8796 20.3027 22.9291 20.3027Z" fill="#231F20"/>
</g>
<defs>
<clipPath id="clip0_1671_230">
<rect width="46" height="40" fill="white"/>
</clipPath>
</defs>
</svg>
