<svg width="328" height="215" viewBox="0 0 328 215" fill="none" xmlns="http://www.w3.org/2000/svg">
<path d="M0 1H328" stroke="#747474"/>
<rect y="1" width="328" height="26" fill="#B5B5B5"/>
<rect y="27" width="34" height="187" fill="#EEEEEE"/>
<path d="M0 27H328" stroke="#747474"/>
<path d="M0 89L328 89" stroke="#747474"/>
<path d="M34 1L34 214" stroke="#747474"/>
<path d="M276 1L276 214" stroke="#747474"/>
<path d="M34 58L328 58" stroke="#747474"/>
<path d="M34 136L328 136" stroke="#747474"/>
<path d="M34 183L328 183" stroke="#747474"/>
<path d="M0 214L328 214" stroke="#747474"/>
<path d="M9.52 10.33V11H15.17V10.33H9.52ZM8.5 14.21V14.89H16.67V14.21H8.5ZM12.15 14.66V18.79H12.98V14.66H12.15ZM14.78 10.33V11.11C14.78 12.02 14.78 13.07 14.43 14.53L15.25 14.64C15.59 13.11 15.59 12.05 15.59 11.11V10.33H14.78ZM17.1892 14.51V15.19H25.3792V14.51H17.1892ZM20.9292 14.85V16.93H21.7592V14.85H20.9292ZM18.2292 17.9V18.58H24.4692V17.9H18.2292ZM18.2292 16.13V18.16H19.0492V16.13H18.2292ZM18.2792 10.02V13.64H24.2992V10.02H23.4692V11.17H19.0992V10.02H18.2792ZM19.0992 11.82H23.4692V12.97H19.0992V11.82Z" fill="#3C3C3C"/>
<path d="M3.9 54.73V55.4H7.99V54.73H3.9ZM5.31 57.31V60.37H6.13V57.31H5.31ZM7.65 54.73V55.21C7.65 55.94 7.65 57.1 7.38 58.73L8.2 58.81C8.46 57.13 8.46 55.95 8.46 55.21V54.73H7.65ZM9.6 53.74V62.78H10.42V53.74H9.6ZM10.2 57.52V58.22H11.87V57.52H10.2ZM3.5 60.81C5.1 60.8 7.22 60.76 9.09 60.46L9.05 59.85C7.22 60.08 5.04 60.11 3.4 60.11L3.5 60.81ZM14.7292 54.07C13.3892 54.07 12.3992 54.89 12.3992 56.08C12.3992 57.26 13.3892 58.08 14.7292 58.08C16.0792 58.08 17.0692 57.26 17.0692 56.08C17.0692 54.89 16.0792 54.07 14.7292 54.07ZM14.7292 54.75C15.6092 54.75 16.2592 55.3 16.2592 56.08C16.2592 56.86 15.6092 57.4 14.7292 57.4C13.8592 57.4 13.1992 56.86 13.1992 56.08C13.1992 55.3 13.8592 54.75 14.7292 54.75ZM18.7692 53.74V58.37H19.6092V53.74H18.7692ZM13.7592 58.81V59.48H18.7892V60.39H13.7792V62.37H14.5892V61.01H19.6092V58.81H13.7592ZM13.7792 62V62.66H19.9092V62H13.7792ZM20.8884 59.12V59.8H29.0884V59.12H20.8884ZM23.0084 59.49V62.78H23.8484V59.49H23.0084ZM26.1184 59.49V62.78H26.9484V59.49H26.1184ZM21.8684 54.09V54.76H27.2584V55.78H21.8884V57.97H22.7284V56.42H28.0884V54.09H21.8684ZM21.8884 57.53V58.2H28.2984V57.53H21.8884Z" fill="#3C3C3C"/>
<path d="M5.34 157.05V157.52C5.34 158.99 4.64 160.56 3.41 161.28L3.91 161.91C5.23 161.12 5.98 159.31 5.98 157.52V157.05H5.34ZM5.49 157.05V157.52C5.49 159.26 6.27 160.97 7.6 161.71L8.07 161.09C6.86 160.43 6.13 158.95 6.13 157.52V157.05H5.49ZM3.64 156.42V157.1H7.83V156.42H3.64ZM5.34 155.06V156.93H6.14V155.06H5.34ZM10.41 154.74V163.78H11.2V154.74H10.41ZM8.98 158.38V159.08H10.72V158.38H8.98ZM8.44 154.93V163.33H9.22V154.93H8.44ZM12.1992 161.92V162.61H20.3892V161.92H12.1992ZM15.8392 159.73V162.15H16.6592V159.73H15.8392ZM15.8192 155.34V156.04C15.8192 157.53 14.1092 158.86 12.5192 159.15L12.8692 159.84C14.6892 159.46 16.5392 157.97 16.5392 156.04V155.34H15.8192ZM15.9692 155.34V156.04C15.9692 157.97 17.8192 159.46 19.6392 159.84L19.9992 159.15C18.4092 158.86 16.6892 157.54 16.6892 156.04V155.34H15.9692ZM20.8884 160.12V160.8H29.0884V160.12H20.8884ZM23.0084 160.49V163.78H23.8484V160.49H23.0084ZM26.1184 160.49V163.78H26.9484V160.49H26.1184ZM21.8684 155.09V155.76H27.2584V156.78H21.8884V158.97H22.7284V157.42H28.0884V155.09H21.8684ZM21.8884 158.53V159.2H28.2984V158.53H21.8884Z" fill="#3C3C3C"/>
<path d="M290.172 11.4V12.08H292.592V11.4H290.172ZM290.092 13.28V13.96H292.532V13.28H290.092ZM292.452 9.74V15.16H293.282V9.74H292.452ZM289.622 10.42V10.78C289.622 12.49 288.272 13.82 285.962 14.49L286.302 15.16C288.902 14.38 290.512 12.75 290.512 10.42H289.622ZM286.432 10.42V11.1H290.192V10.42H286.432ZM290.342 15.26C288.512 15.26 287.352 15.91 287.352 17C287.352 18.09 288.512 18.74 290.342 18.74C292.172 18.74 293.332 18.09 293.332 17C293.332 15.91 292.172 15.26 290.342 15.26ZM290.342 15.91C291.672 15.91 292.522 16.32 292.522 17C292.522 17.68 291.672 18.08 290.342 18.08C289.022 18.08 288.172 17.68 288.172 17C288.172 16.32 289.022 15.91 290.342 15.91ZM301.431 9.74V18.78H302.231V9.74H301.431ZM300.001 13.32V14H301.731V13.32H300.001ZM299.431 9.93V18.33H300.221V9.93H299.431ZM294.871 10.78V16.36H298.321V10.78H294.871ZM297.541 11.44V15.7H295.651V11.44H297.541ZM305.63 10.52V12.14C305.63 13.85 304.54 15.58 303.2 16.22L303.71 16.9C305.19 16.15 306.31 14.22 306.31 12.14V10.52H305.63ZM305.77 10.52V12.14C305.77 14.15 306.9 16.01 308.37 16.73L308.87 16.07C307.53 15.45 306.45 13.79 306.45 12.14V10.52H305.77ZM309.81 9.73V18.79H310.64V9.73H309.81ZM318.129 9.74V16.35H318.959V9.74H318.129ZM318.699 12.48V13.17H320.299V12.48H318.699ZM315.659 10.44V10.8C315.659 12.54 314.229 13.94 311.949 14.64L312.309 15.32C314.899 14.49 316.539 12.78 316.539 10.44H315.659ZM312.319 10.44V11.12H316.079V10.44H312.319ZM313.319 17.9V18.58H319.359V17.9H313.319ZM313.319 15.68V18.17H314.149V15.68H313.319Z" fill="#3C3C3C"/>
<path d="M161.17 14.54V16.1H161.99V14.54H161.17ZM157.49 14.1V14.78H165.66V14.1H157.49ZM158.25 10.02V10.7H164.89V10.02H158.25ZM158.29 12.59V13.27H164.85V12.59H158.29ZM159.62 10.32V13.03H160.45V10.32H159.62ZM162.7 10.32V13.03H163.52V10.32H162.7ZM158.49 15.83V18.66H164.66V15.83H158.49ZM163.85 16.49V17.99H159.31V16.49H163.85ZM167.239 10.11V13.19H173.319V10.11H167.239ZM172.499 10.78V12.52H168.049V10.78H172.499ZM166.189 14.32V14.99H174.359V14.32H166.189ZM169.869 13.01V14.57H170.689V13.01H169.869ZM167.099 15.92V16.6H172.519V18.78H173.349V15.92H167.099Z" fill="#3C3C3C"/>
<path d="M43.012 38.566V43.174H43.759V38.566H43.012ZM43.552 40.546V41.167H44.965V40.546H43.552ZM40.762 39.088V39.421C40.762 40.915 39.547 42.094 37.441 42.67L37.729 43.264C40.123 42.616 41.554 41.14 41.554 39.088H40.762ZM37.792 39.088V39.691H41.176V39.088H37.792ZM38.638 43.561V46.594H43.759V43.561H38.638ZM43.021 44.164V45.982H39.376V44.164H43.021ZM47.0703 41.77V43.435H47.8083V41.77H47.0703ZM49.7433 41.77V43.435H50.4903V41.77H49.7433ZM46.0353 38.89V39.493H51.2733V38.89H46.0353ZM45.0993 41.482V42.076H52.4703V41.482H45.0993ZM50.7873 38.89V39.412C50.7873 39.979 50.7873 40.672 50.5713 41.662L51.3003 41.734C51.5163 40.753 51.5163 39.988 51.5163 39.412V38.89H50.7873ZM45.9633 43.138V43.741H50.8053V44.578H45.9813V46.225H46.7283V45.118H51.5433V43.138H45.9633ZM45.9813 46.009V46.612H51.7503V46.009H45.9813ZM54.1842 45.1051L54.1363 45.4535C54.1043 45.7092 54.05 45.9755 53.9733 46.2525C53.8987 46.5316 53.821 46.7905 53.74 47.0291C53.6612 47.2678 53.5962 47.4574 53.545 47.598H52.8675C52.8952 47.4659 52.9335 47.2869 52.9825 47.0611C53.0315 46.8374 53.0795 46.587 53.1264 46.31C53.1732 46.033 53.2084 45.7507 53.2318 45.4631L53.2638 45.1051H54.1842ZM56.3577 45.073V45.694H63.7287V45.073H56.3577ZM59.6427 42.967V45.352H60.3897V42.967H59.6427ZM56.9967 39.34V39.952H63.0357V39.34H56.9967ZM57.0147 42.616V43.219H63.0267V42.616H57.0147ZM58.2657 39.835V42.724H59.0127V39.835H58.2657ZM61.0377 39.835V42.724H61.7757V39.835H61.0377ZM64.934 42.364V42.976H70.523V42.364H64.934ZM64.007 45.055V45.685H71.378V45.055H64.007ZM67.301 42.625V45.307H68.048V42.625H67.301ZM64.934 39.214V42.634H65.681V39.826H70.442V39.214H64.934ZM73.092 45.1051L73.044 45.4535C73.0121 45.7092 72.9577 45.9755 72.881 46.2525C72.8065 46.5316 72.7287 46.7905 72.6477 47.0291C72.5689 47.2678 72.5039 47.4574 72.4528 47.598H71.7752C71.8029 47.4659 71.8413 47.2869 71.8903 47.0611C71.9393 46.8374 71.9872 46.587 72.0341 46.31C72.081 46.033 72.1161 45.7507 72.1396 45.4631L72.1715 45.1051H73.092ZM75.2565 42.76V43.372H82.6095V42.76H75.2565ZM78.5685 41.545V42.949H79.3065V41.545H78.5685ZM76.0755 44.164V44.776H80.9535V46.702H81.7005V44.164H76.0755ZM76.2375 38.755V41.797H81.6555V38.755H80.9085V39.673H76.9755V38.755H76.2375ZM76.9755 40.258H80.9085V41.203H76.9755V40.258ZM86.2088 38.683V39.043C86.2088 40.078 84.7868 40.951 83.3288 41.149L83.5988 41.734C85.2728 41.482 86.8478 40.465 86.8478 39.043V38.683H86.2088ZM86.3258 38.683V39.043C86.3258 40.447 87.9098 41.482 89.5658 41.734L89.8448 41.149C88.4048 40.96 86.9648 40.06 86.9648 39.043V38.683H86.3258ZM86.2088 42.715V44.029H86.9468V42.715H86.2088ZM82.9058 42.346V42.958H90.2588V42.346H82.9058ZM86.5778 43.804C84.8318 43.804 83.7878 44.317 83.7878 45.244C83.7878 46.171 84.8318 46.693 86.5778 46.693C88.3238 46.693 89.3678 46.171 89.3678 45.244C89.3678 44.317 88.3238 43.804 86.5778 43.804ZM86.5778 44.38C87.8558 44.38 88.6118 44.695 88.6118 45.244C88.6118 45.802 87.8558 46.108 86.5778 46.108C85.3088 46.108 84.5438 45.802 84.5438 45.244C84.5438 44.695 85.3088 44.38 86.5778 44.38ZM92.7241 39.187C91.5271 39.187 90.6811 40.294 90.6811 42.022C90.6811 43.759 91.5271 44.866 92.7241 44.866C93.9211 44.866 94.7671 43.759 94.7671 42.022C94.7671 40.294 93.9211 39.187 92.7241 39.187ZM92.7241 39.862C93.5071 39.862 94.0561 40.708 94.0561 42.022C94.0561 43.345 93.5071 44.209 92.7241 44.209C91.9321 44.209 91.3921 43.345 91.3921 42.022C91.3921 40.708 91.9321 39.862 92.7241 39.862ZM96.0631 38.566V46.702H96.8191V38.566H96.0631ZM96.6391 41.815V42.445H98.1511V41.815H96.6391ZM99.649 45.1051L99.6011 45.4535C99.5691 45.7092 99.5148 45.9755 99.4381 46.2525C99.3635 46.5316 99.2857 46.7905 99.2048 47.0291C99.1259 47.2678 99.0609 47.4574 99.0098 47.598H98.3323C98.3599 47.4659 98.3983 47.2869 98.4473 47.0611C98.4963 46.8374 98.5443 46.587 98.5911 46.31C98.638 46.033 98.6732 45.7507 98.6966 45.4631L98.7286 45.1051H99.649ZM103.829 39.727V41.05C103.829 42.427 102.848 43.975 101.687 44.542L102.119 45.136C103.388 44.488 104.423 42.742 104.423 41.05V39.727H103.829ZM103.964 39.727V41.05C103.964 42.661 104.945 44.299 106.232 44.938L106.655 44.344C105.476 43.786 104.558 42.337 104.558 41.05V39.727H103.964ZM101.975 39.394V40.024H106.358V39.394H101.975ZM107.321 38.566V46.702H108.077V38.566H107.321ZM107.897 41.851V42.481H109.409V41.851H107.897ZM110.48 41.59V42.202H115.916V41.59H110.48ZM109.463 43.255V43.876H116.843V43.255H109.463ZM112.757 43.597V46.675H113.495V43.597H112.757ZM110.48 39.043V41.887H111.236V39.655H115.808V39.043H110.48ZM118.557 45.1051L118.509 45.4535C118.477 45.7092 118.423 45.9755 118.346 46.2525C118.271 46.5316 118.193 46.7905 118.113 47.0291C118.034 47.2678 117.969 47.4574 117.918 47.598H117.24C117.268 47.4659 117.306 47.2869 117.355 47.0611C117.404 46.8374 117.452 46.587 117.499 46.31C117.546 46.033 117.581 45.7507 117.604 45.4631L117.636 45.1051H118.557ZM122.755 39.898V40.249C122.755 41.32 121.936 42.265 120.73 42.634L121.09 43.219C122.449 42.778 123.367 41.644 123.367 40.249V39.898H122.755ZM122.89 39.898V40.249C122.89 41.554 123.781 42.652 125.14 43.075L125.491 42.481C124.294 42.13 123.502 41.239 123.502 40.249V39.898H122.89ZM120.955 39.52V40.123H125.293V39.52H120.955ZM122.755 38.53V39.763H123.502V38.53H122.755ZM126.292 38.566V43.381H127.039V38.566H126.292ZM126.832 40.618V41.248H128.245V40.618H126.832ZM121.927 43.759V46.594H127.039V43.759H121.927ZM126.31 44.353V45.991H122.656V44.353H126.31ZM130.63 42.634V44.488H131.386V42.634H130.63ZM131.017 39.088C129.748 39.088 128.83 39.871 128.83 41.005C128.83 42.139 129.748 42.922 131.017 42.922C132.286 42.922 133.195 42.139 133.195 41.005C133.195 39.871 132.286 39.088 131.017 39.088ZM131.017 39.736C131.854 39.736 132.466 40.249 132.466 41.005C132.466 41.761 131.854 42.283 131.017 42.283C130.171 42.283 129.559 41.761 129.559 41.005C129.559 40.249 130.171 39.736 131.017 39.736ZM134.257 38.557V46.711H135.004V38.557H134.257ZM128.524 44.947C129.973 44.947 131.962 44.938 133.789 44.587L133.726 44.038C131.953 44.317 129.901 44.326 128.416 44.326L128.524 44.947ZM137.464 45.1051L137.417 45.4535C137.385 45.7092 137.33 45.9755 137.254 46.2525C137.179 46.5316 137.101 46.7905 137.02 47.0291C136.941 47.2678 136.876 47.4574 136.825 47.598H136.148C136.175 47.4659 136.214 47.2869 136.263 47.0611C136.312 46.8374 136.36 46.587 136.407 46.31C136.453 46.033 136.489 45.7507 136.512 45.4631L136.544 45.1051H137.464ZM140.583 42.787V43.39H146.172V42.787H140.583ZM139.638 45.073V45.694H147.009V45.073H139.638ZM142.941 43.102V45.361H143.679V43.102H142.941ZM140.583 39.223V43.012H141.339V39.835H146.082V39.223H140.583ZM141.096 40.969V41.572H145.911V40.969H141.096ZM147.602 39.376V44.641H151.337V39.376H147.602ZM150.608 39.979V44.038H148.331V39.979H150.608ZM152.786 38.566V46.702H153.542V38.566H152.786ZM153.362 41.815V42.445H154.874V41.815H153.362ZM155.882 42.787V43.39H161.471V42.787H155.882ZM154.937 45.073V45.694H162.308V45.073H154.937ZM158.24 43.102V45.361H158.978V43.102H158.24ZM155.882 39.223V43.012H156.638V39.835H161.381V39.223H155.882ZM156.395 40.969V41.572H161.21V40.969H156.395ZM164.022 45.1051L163.974 45.4535C163.942 45.7092 163.887 45.9755 163.811 46.2525C163.736 46.5316 163.658 46.7905 163.577 47.0291C163.498 47.2678 163.433 47.4574 163.382 47.598H162.705C162.732 47.4659 162.771 47.2869 162.82 47.0611C162.869 46.8374 162.917 46.587 162.964 46.31C163.011 46.033 163.046 45.7507 163.069 45.4631L163.101 45.1051H164.022ZM171.91 38.566V42.769H172.657V38.566H171.91ZM172.306 40.339V40.951H173.71V40.339H172.306ZM167.338 43.138V43.732H171.919V44.551H167.365V46.333H168.094V45.109H172.657V43.138H167.338ZM167.365 46V46.594H172.954V46H167.365ZM166.483 41.707V42.31H166.843C167.365 42.31 167.968 42.31 168.724 42.139L168.652 41.527C167.941 41.689 167.32 41.707 166.843 41.707H166.483ZM166.483 39.079V41.959H167.203V39.691H168.535V39.079H166.483ZM168.994 41.68V42.292H169.39C170.227 42.292 170.785 42.283 171.487 42.112L171.415 41.509C170.749 41.662 170.191 41.68 169.39 41.68H168.994ZM168.994 39.079V41.959H169.705V39.691H171.136V39.079H168.994ZM179.766 38.566V46.702H180.513V38.566H179.766ZM177.381 39.439V39.565C177.381 41.725 176.292 43.453 173.943 44.587L174.339 45.19C177.057 43.858 178.119 41.797 178.119 39.439H177.381ZM174.312 39.439V40.051H177.705V39.439H174.312ZM182.929 45.1051L182.881 45.4535C182.849 45.7092 182.795 45.9755 182.718 46.2525C182.644 46.5316 182.566 46.7905 182.485 47.0291C182.406 47.2678 182.341 47.4574 182.29 47.598H181.612C181.64 47.4659 181.679 47.2869 181.728 47.0611C181.777 46.8374 181.824 46.587 181.871 46.31C181.918 46.033 181.953 45.7507 181.977 45.4631L182.009 45.1051H182.929ZM185.391 39.502V44.524H188.496V39.502H185.391ZM187.794 40.096V43.93H186.093V40.096H187.794ZM191.295 38.566V46.702H192.015V38.566H191.295ZM188.118 41.626V42.247H189.99V41.626H188.118ZM189.684 38.737V46.297H190.395V38.737H189.684ZM192.743 43.21V43.822H200.123V43.21H192.743ZM193.715 46.009V46.621H199.349V46.009H193.715ZM193.715 44.362V46.189H194.462V44.362H193.715ZM196.055 42.04V43.471H196.802V42.04H196.055ZM193.679 38.827V39.412H198.44V40.294H193.697V41.941H194.435V40.843H199.169V38.827H193.679ZM193.697 41.743V42.328H199.349V41.743H193.697Z" fill="#3C3C3C"/>
<path d="M39.439 70.268V71.726C39.439 73.211 38.512 74.777 37.333 75.371L37.792 75.965C39.079 75.281 40.051 73.526 40.051 71.726V70.268H39.439ZM39.574 70.268V71.726C39.574 73.472 40.519 75.137 41.779 75.812L42.238 75.218C41.086 74.642 40.177 73.157 40.177 71.726V70.268H39.574ZM42.949 69.566V77.702H43.705V69.566H42.949ZM43.525 72.86V73.49H45.037V72.86H43.525ZM45.4593 70.457V71.06H49.1403V70.457H45.4593ZM46.7283 72.779V75.533H47.4663V72.779H46.7283ZM48.8343 70.457V70.889C48.8343 71.546 48.8343 72.59 48.5913 74.057L49.3293 74.129C49.5633 72.617 49.5633 71.555 49.5633 70.889V70.457H48.8343ZM50.5893 69.566V77.702H51.3273V69.566H50.5893ZM51.1293 72.968V73.598H52.6323V72.968H51.1293ZM45.0993 75.929C46.5393 75.92 48.4473 75.884 50.1303 75.614L50.0943 75.065C48.4473 75.272 46.4853 75.299 45.0093 75.299L45.0993 75.929ZM54.1842 76.1051L54.1363 76.4535C54.1043 76.7092 54.05 76.9755 53.9733 77.2525C53.8987 77.5316 53.821 77.7905 53.74 78.0291C53.6612 78.2678 53.5962 78.4574 53.545 78.598H52.8675C52.8952 78.4659 52.9335 78.2869 52.9825 78.0611C53.0315 77.8374 53.0795 77.587 53.1264 77.31C53.1732 77.033 53.2084 76.7507 53.2318 76.4631L53.2638 76.1051H54.1842ZM56.6457 70.331V75.668H59.7507V70.331H59.0577V72.32H57.3567V70.331H56.6457ZM57.3567 72.923H59.0577V75.056H57.3567V72.923ZM62.5497 69.566V77.702H63.2697V69.566H62.5497ZM61.2447 72.788V73.4H62.8107V72.788H61.2447ZM60.7497 69.737V77.297H61.4607V69.737H60.7497ZM65.4427 76.1051L65.3947 76.4535C65.3628 76.7092 65.3085 76.9755 65.2317 77.2525C65.1572 77.5316 65.0794 77.7905 64.9984 78.0291C64.9196 78.2678 64.8546 78.4574 64.8035 78.598H64.1259C64.1536 78.4659 64.192 78.2869 64.241 78.0611C64.29 77.8374 64.3379 77.587 64.3848 77.31C64.4317 77.033 64.4668 76.7507 64.4903 76.4631L64.5222 76.1051H65.4427ZM73.1782 69.566V74.174H73.9252V69.566H73.1782ZM73.7182 71.546V72.167H75.1312V71.546H73.7182ZM70.9282 70.088V70.421C70.9282 71.915 69.7132 73.094 67.6072 73.67L67.8952 74.264C70.2892 73.616 71.7202 72.14 71.7202 70.088H70.9282ZM67.9582 70.088V70.691H71.3422V70.088H67.9582ZM68.8042 74.561V77.594H73.9252V74.561H68.8042ZM73.1872 75.164V76.982H69.5422V75.164H73.1872ZM76.7011 76.1051L76.6532 76.4535C76.6212 76.7092 76.5669 76.9755 76.4902 77.2525C76.4156 77.5316 76.3378 77.7905 76.2569 78.0291C76.178 78.2678 76.1131 78.4574 76.0619 78.598H75.3844C75.4121 78.4659 75.4504 78.2869 75.4994 78.0611C75.5484 77.8374 75.5964 77.587 75.6432 77.31C75.6901 77.033 75.7253 76.7507 75.7487 76.4631L75.7807 76.1051H76.7011ZM80.7556 74.597V77.702H81.5206V74.597H80.7556ZM83.5546 74.597V77.702H84.3196V74.597H83.5546ZM78.8656 74.192V74.813H86.2456V74.192H78.8656ZM82.5376 69.89C80.8456 69.89 79.6936 70.574 79.6936 71.663C79.6936 72.743 80.8456 73.436 82.5376 73.436C84.2386 73.436 85.3816 72.743 85.3816 71.663C85.3816 70.574 84.2386 69.89 82.5376 69.89ZM82.5376 70.493C83.7796 70.493 84.6166 70.952 84.6166 71.663C84.6166 72.374 83.7796 72.833 82.5376 72.833C81.2956 72.833 80.4496 72.374 80.4496 71.663C80.4496 70.952 81.2956 70.493 82.5376 70.493ZM88.5309 70.727V72.05C88.5309 73.427 87.5499 74.975 86.3889 75.542L86.8209 76.136C88.0899 75.488 89.1249 73.742 89.1249 72.05V70.727H88.5309ZM88.6659 70.727V72.05C88.6659 73.661 89.6469 75.299 90.9339 75.938L91.3569 75.344C90.1779 74.786 89.2599 73.337 89.2599 72.05V70.727H88.6659ZM86.6769 70.394V71.024H91.0599V70.394H86.6769ZM92.0229 69.566V77.702H92.7789V69.566H92.0229ZM92.5989 72.851V73.481H94.1109V72.851H92.5989ZM95.6089 76.1051L95.5609 76.4535C95.529 76.7092 95.4746 76.9755 95.3979 77.2525C95.3233 77.5316 95.2456 77.7905 95.1646 78.0291C95.0858 78.2678 95.0208 78.4574 94.9697 78.598H94.2921C94.3198 78.4659 94.3581 78.2869 94.4072 78.0611C94.4562 77.8374 94.5041 77.587 94.551 77.31C94.5978 77.033 94.633 76.7507 94.6564 76.4631L94.6884 76.1051H95.6089ZM101.067 69.854V70.304C101.067 71.465 99.6363 72.437 98.1513 72.662L98.4483 73.265C100.14 72.977 101.724 71.861 101.724 70.304V69.854H101.067ZM101.202 69.854V70.304C101.202 71.843 102.795 72.977 104.469 73.265L104.766 72.662C103.299 72.437 101.85 71.438 101.85 70.304V69.854H101.202ZM101.067 74.606V77.702H101.805V74.606H101.067ZM97.7823 74.147V74.768H105.135V74.147H97.7823ZM110.994 69.566V74.471H111.741V69.566H110.994ZM111.534 71.672V72.302H112.947V71.672H111.534ZM106.458 74.903V75.515H110.994V77.702H111.741V74.903H106.458ZM105.765 70.07V73.922H109.527V70.07H108.798V71.339H106.503V70.07H105.765ZM106.503 71.933H108.798V73.328H106.503V71.933ZM114.517 76.1051L114.469 76.4535C114.437 76.7092 114.382 76.9755 114.306 77.2525C114.231 77.5316 114.153 77.7905 114.072 78.0291C113.994 78.2678 113.929 78.4574 113.877 78.598H113.2C113.228 78.4659 113.266 78.2869 113.315 78.0611C113.364 77.8374 113.412 77.587 113.459 77.31C113.506 77.033 113.541 76.7507 113.564 76.4631L113.596 76.1051H114.517ZM119.975 69.854V70.304C119.975 71.465 118.544 72.437 117.059 72.662L117.356 73.265C119.048 72.977 120.632 71.861 120.632 70.304V69.854H119.975ZM120.11 69.854V70.304C120.11 71.843 121.703 72.977 123.377 73.265L123.674 72.662C122.207 72.437 120.758 71.438 120.758 70.304V69.854H120.11ZM119.975 74.606V77.702H120.713V74.606H119.975ZM116.69 74.147V74.768H124.043V74.147H116.69ZM130.252 69.566V73.931H131.008V69.566H130.252ZM125.761 74.336V77.594H131.008V74.336H130.27V75.326H126.499V74.336H125.761ZM126.499 75.92H130.27V76.991H126.499V75.92ZM126.643 69.953C125.41 69.953 124.519 70.718 124.519 71.825C124.519 72.941 125.41 73.706 126.643 73.706C127.876 73.706 128.758 72.941 128.758 71.825C128.758 70.718 127.876 69.953 126.643 69.953ZM126.643 70.574C127.453 70.574 128.038 71.087 128.038 71.825C128.038 72.563 127.453 73.076 126.643 73.076C125.833 73.076 125.248 72.563 125.248 71.825C125.248 71.087 125.833 70.574 126.643 70.574ZM132.349 70.457V71.06H136.03V70.457H132.349ZM133.618 72.779V75.533H134.356V72.779H133.618ZM135.724 70.457V70.889C135.724 71.546 135.724 72.59 135.481 74.057L136.219 74.129C136.453 72.617 136.453 71.555 136.453 70.889V70.457H135.724ZM137.479 69.566V77.702H138.217V69.566H137.479ZM138.019 72.968V73.598H139.522V72.968H138.019ZM131.989 75.929C133.429 75.92 135.337 75.884 137.02 75.614L136.984 75.065C135.337 75.272 133.375 75.299 131.899 75.299L131.989 75.929ZM141.915 69.863C140.709 69.863 139.818 70.601 139.818 71.672C139.818 72.734 140.709 73.472 141.915 73.472C143.13 73.472 144.021 72.734 144.021 71.672C144.021 70.601 143.13 69.863 141.915 69.863ZM141.915 70.475C142.707 70.475 143.292 70.97 143.292 71.672C143.292 72.374 142.707 72.86 141.915 72.86C141.132 72.86 140.538 72.374 140.538 71.672C140.538 70.97 141.132 70.475 141.915 70.475ZM145.551 69.566V73.733H146.307V69.566H145.551ZM141.042 74.129V74.732H145.569V75.551H141.06V77.333H141.789V76.109H146.307V74.129H141.042ZM141.06 77V77.594H146.577V77H141.06ZM148.723 76.1051L148.675 76.4535C148.643 76.7092 148.589 76.9755 148.512 77.2525C148.437 77.5316 148.36 77.7905 148.279 78.0291C148.2 78.2678 148.135 78.4574 148.084 78.598H147.406C147.434 78.4659 147.472 78.2869 147.521 78.0611C147.57 77.8374 147.618 77.587 147.665 77.31C147.712 77.033 147.747 76.7507 147.771 76.4631L147.802 76.1051H148.723ZM156.818 69.566V77.702H157.565V69.566H156.818ZM154.433 70.439V70.565C154.433 72.725 153.344 74.453 150.995 75.587L151.391 76.19C154.109 74.858 155.171 72.797 155.171 70.439H154.433ZM151.364 70.439V71.051H154.757V70.439H151.364ZM158.888 75.128V75.749H159.527C161.048 75.749 162.11 75.704 163.37 75.488L163.289 74.876C162.065 75.092 161.03 75.128 159.527 75.128H158.888ZM158.888 70.304V75.344H159.635V70.925H162.677V70.304H158.888ZM159.446 72.581V73.184H162.497V72.581H159.446ZM164.045 69.566V77.702H164.801V69.566H164.045ZM164.621 72.833V73.463H166.133V72.833H164.621ZM166.555 70.457V71.06H170.236V70.457H166.555ZM167.824 72.779V75.533H168.562V72.779H167.824ZM169.93 70.457V70.889C169.93 71.546 169.93 72.59 169.687 74.057L170.425 74.129C170.659 72.617 170.659 71.555 170.659 70.889V70.457H169.93ZM171.685 69.566V77.702H172.423V69.566H171.685ZM172.225 72.968V73.598H173.728V72.968H172.225ZM166.195 75.929C167.635 75.92 169.543 75.884 171.226 75.614L171.19 75.065C169.543 75.272 167.581 75.299 166.105 75.299L166.195 75.929ZM176.121 69.863C174.915 69.863 174.024 70.601 174.024 71.672C174.024 72.734 174.915 73.472 176.121 73.472C177.336 73.472 178.227 72.734 178.227 71.672C178.227 70.601 177.336 69.863 176.121 69.863ZM176.121 70.475C176.913 70.475 177.498 70.97 177.498 71.672C177.498 72.374 176.913 72.86 176.121 72.86C175.338 72.86 174.744 72.374 174.744 71.672C174.744 70.97 175.338 70.475 176.121 70.475ZM179.757 69.566V73.733H180.513V69.566H179.757ZM175.248 74.129V74.732H179.775V75.551H175.266V77.333H175.995V76.109H180.513V74.129H175.248ZM175.266 77V77.594H180.783V77H175.266Z" fill="#3C3C3C"/>
<path d="M39.421 100.989V101.817C39.421 103.059 38.629 104.157 37.405 104.607L37.801 105.21C39.16 104.679 40.042 103.383 40.042 101.817V100.989H39.421ZM39.556 100.989V101.871C39.556 103.284 40.447 104.49 41.752 104.976L42.148 104.391C40.978 103.986 40.168 102.969 40.168 101.871V100.989H39.556ZM43.012 100.566V105.498H43.759V100.566H43.012ZM43.552 102.663V103.293H44.965V102.663H43.552ZM41.167 105.723C39.502 105.723 38.494 106.272 38.494 107.208C38.494 108.144 39.502 108.684 41.167 108.684C42.832 108.684 43.84 108.144 43.84 107.208C43.84 106.272 42.832 105.723 41.167 105.723ZM41.167 106.317C42.373 106.317 43.111 106.641 43.111 107.208C43.111 107.775 42.373 108.099 41.167 108.099C39.961 108.099 39.223 107.775 39.223 107.208C39.223 106.641 39.961 106.317 41.167 106.317ZM48.4023 105.741V108.711H49.1403V105.741H48.4023ZM45.0993 105.48V106.101H52.4523V105.48H45.0993ZM48.3933 101.961V102.168C48.3933 103.185 47.0253 104.076 45.5583 104.274L45.8193 104.868C47.5293 104.607 49.0503 103.572 49.0503 102.168V101.961H48.3933ZM48.4923 101.961V102.168C48.4923 103.554 50.0043 104.616 51.7053 104.868L51.9753 104.274C50.5173 104.076 49.1403 103.176 49.1403 102.168V101.961H48.4923ZM45.8103 101.565V102.177H51.7413V101.565H45.8103ZM48.4023 100.566V101.781H49.1403V100.566H48.4023ZM54.1842 107.105L54.1363 107.453C54.1043 107.709 54.05 107.975 53.9733 108.252C53.8987 108.532 53.821 108.79 53.74 109.029C53.6612 109.268 53.5962 109.457 53.545 109.598H52.8675C52.8952 109.466 52.9335 109.287 52.9825 109.061C53.0315 108.837 53.0795 108.587 53.1264 108.31C53.1732 108.033 53.2084 107.751 53.2318 107.463L53.2638 107.105H54.1842ZM58.0947 100.728V101.295C58.0947 101.979 57.5547 102.861 56.5467 103.239L56.9157 103.788C58.0767 103.338 58.6707 102.258 58.6707 101.295V100.728H58.0947ZM58.2657 100.728V101.295C58.2657 102.222 58.8147 103.41 60.0207 103.878L60.3177 103.293C59.3457 102.888 58.8327 101.97 58.8327 101.295V100.728H58.2657ZM61.2177 100.728V101.295C61.2177 102.006 60.7047 102.897 59.7327 103.293L60.0207 103.878C61.2357 103.428 61.7937 102.267 61.7937 101.295V100.728H61.2177ZM61.3797 100.728V101.295C61.3797 102.339 61.9647 103.365 63.1347 103.788L63.5037 103.239C62.4867 102.888 61.9557 102.06 61.9557 101.295V100.728H61.3797ZM56.3487 104.364V104.976H63.7287V104.364H56.3487ZM57.1587 106.101V106.713H62.0277V108.702H62.7747V106.101H57.1587ZM59.6517 104.823V106.299H60.3987V104.823H59.6517ZM70.109 102.825V103.455H71.522V102.825H70.109ZM67.346 101.187V101.52C67.346 103.068 66.104 104.319 64.016 104.94L64.331 105.543C66.698 104.823 68.138 103.293 68.138 101.187H67.346ZM64.385 101.187V101.808H67.769V101.187H64.385ZM67.49 105.363V105.714C67.49 106.902 66.221 107.811 64.781 108.072L65.078 108.666C66.707 108.342 68.138 107.28 68.138 105.714V105.363H67.49ZM67.598 105.363V105.714C67.598 107.262 69.002 108.324 70.631 108.648L70.937 108.054C69.497 107.793 68.228 106.884 68.228 105.714V105.363H67.598ZM69.776 100.548V105.957H70.523V100.548H69.776ZM73.092 107.105L73.044 107.453C73.0121 107.709 72.9577 107.975 72.881 108.252C72.8065 108.532 72.7287 108.79 72.6477 109.029C72.5689 109.268 72.5039 109.457 72.4528 109.598H71.7752C71.8029 109.466 71.8413 109.287 71.8903 109.061C71.9393 108.837 71.9872 108.587 72.0341 108.31C72.081 108.033 72.1161 107.751 72.1396 107.463L72.1715 107.105H73.092ZM77.4075 101.268V102.726C77.4075 104.265 76.4265 105.822 75.2205 106.398L75.6795 107.01C77.0115 106.335 78.0195 104.598 78.0195 102.726V101.268H77.4075ZM77.5335 101.268V102.726C77.5335 104.535 78.5505 106.209 79.8735 106.857L80.3235 106.263C79.1175 105.705 78.1455 104.211 78.1455 102.726V101.268H77.5335ZM81.1695 100.557V108.711H81.9165V100.557H81.1695ZM83.8508 100.989V101.601H89.0888V100.989H83.8508ZM82.9148 103.986V104.598H90.2858V103.986H82.9148ZM88.6028 100.989V101.592C88.6028 102.267 88.6028 103.05 88.3328 104.166L89.0618 104.202C89.3318 103.077 89.3318 102.285 89.3318 101.592V100.989H88.6028ZM83.8148 105.705V108.594H89.3588V105.705H83.8148ZM88.6298 106.299V107.991H84.5438V106.299H88.6298ZM96.4771 100.566V108.702H97.2241V100.566H96.4771ZM92.8141 102.501V103.194C92.8141 104.616 91.9141 106.002 90.7081 106.56L91.1311 107.136C92.4361 106.506 93.4171 104.931 93.4171 103.194V102.501H92.8141ZM92.9581 102.501V103.194C92.9581 104.877 93.9571 106.398 95.2711 106.992L95.6941 106.407C94.4791 105.876 93.5521 104.553 93.5521 103.194V102.501H92.9581ZM90.9331 101.979V102.582H95.4151V101.979H90.9331ZM92.8141 100.71V102.312H93.5611V100.71H92.8141ZM99.649 107.105L99.6011 107.453C99.5691 107.709 99.5148 107.975 99.4381 108.252C99.3635 108.532 99.2857 108.79 99.2048 109.029C99.1259 109.268 99.0609 109.457 99.0098 109.598H98.3323C98.3599 109.466 98.3983 109.287 98.4473 109.061C98.4963 108.837 98.5443 108.587 98.5911 108.31C98.638 108.033 98.6732 107.751 98.6966 107.463L98.7286 107.105H99.649ZM103.982 101.187C102.785 101.187 101.939 102.294 101.939 104.022C101.939 105.759 102.785 106.866 103.982 106.866C105.179 106.866 106.025 105.759 106.025 104.022C106.025 102.294 105.179 101.187 103.982 101.187ZM103.982 101.862C104.765 101.862 105.314 102.708 105.314 104.022C105.314 105.345 104.765 106.209 103.982 106.209C103.19 106.209 102.65 105.345 102.65 104.022C102.65 102.708 103.19 101.862 103.982 101.862ZM107.321 100.566V108.702H108.077V100.566H107.321ZM107.897 103.815V104.445H109.409V103.815H107.897ZM112.766 104.886V106.29H113.504V104.886H112.766ZM109.463 104.517V105.129H116.816V104.517H109.463ZM110.282 106.083V106.686H115.16V108.702H115.907V106.083H110.282ZM113.144 100.755C111.38 100.755 110.282 101.34 110.282 102.321C110.282 103.302 111.38 103.887 113.144 103.887C114.899 103.887 116.006 103.302 116.006 102.321C116.006 101.34 114.899 100.755 113.144 100.755ZM113.144 101.349C114.431 101.349 115.241 101.709 115.241 102.321C115.241 102.942 114.431 103.293 113.144 103.293C111.848 103.293 111.047 102.942 111.047 102.321C111.047 101.709 111.848 101.349 113.144 101.349ZM118.557 107.105L118.509 107.453C118.477 107.709 118.423 107.975 118.346 108.252C118.271 108.532 118.193 108.79 118.113 109.029C118.034 109.268 117.969 109.457 117.918 109.598H117.24C117.268 109.466 117.306 109.287 117.355 109.061C117.404 108.837 117.452 108.587 117.499 108.31C117.546 108.033 117.581 107.751 117.604 107.463L117.636 107.105H118.557ZM124.537 101.538V102.141H126.85V101.538H124.537ZM124.537 103.221V103.815H126.85V103.221H124.537ZM122.944 100.836C121.729 100.836 120.847 101.601 120.847 102.699C120.847 103.779 121.729 104.544 122.944 104.544C124.159 104.544 125.041 103.779 125.041 102.699C125.041 101.601 124.159 100.836 122.944 100.836ZM122.944 101.457C123.745 101.457 124.33 101.97 124.33 102.699C124.33 103.419 123.745 103.932 122.944 103.932C122.143 103.932 121.567 103.419 121.567 102.699C121.567 101.97 122.143 101.457 122.944 101.457ZM126.67 100.566V104.733H127.417V100.566H126.67ZM122.179 105.147V105.741H126.679V106.551H122.197V108.333H122.926V107.109H127.417V105.147H122.179ZM122.197 108V108.594H127.714V108H122.197ZM128.371 105.291V105.903H135.751V105.291H128.371ZM131.665 105.66V108.702H132.403V105.66H131.665ZM129.307 101.016V104.193H134.797V101.016H129.307ZM134.068 101.619V103.59H130.045V101.619H134.068ZM137.464 107.105L137.417 107.453C137.385 107.709 137.33 107.975 137.254 108.252C137.179 108.532 137.101 108.79 137.02 109.029C136.941 109.268 136.876 109.457 136.825 109.598H136.148C136.175 109.466 136.214 109.287 136.263 109.061C136.312 108.837 136.36 108.587 136.407 108.31C136.453 108.033 136.489 107.751 136.512 107.463L136.544 107.105H137.464ZM141.663 101.952V102.303C141.663 103.401 140.853 104.391 139.656 104.778L140.016 105.363C141.375 104.904 142.275 103.716 142.275 102.303V101.952H141.663ZM141.798 101.952V102.303C141.798 103.635 142.734 104.733 144.102 105.156L144.444 104.571C143.247 104.22 142.41 103.311 142.41 102.303V101.952H141.798ZM139.863 101.547V102.15H144.201V101.547H139.863ZM141.663 100.53V101.763H142.41V100.53H141.663ZM143.958 102.879V103.5H145.794V102.879H143.958ZM145.578 100.566V105.489H146.325V100.566H145.578ZM143.652 105.705C141.96 105.705 140.934 106.254 140.934 107.199C140.934 108.135 141.96 108.684 143.652 108.684C145.335 108.684 146.361 108.135 146.361 107.199C146.361 106.254 145.335 105.705 143.652 105.705ZM143.652 106.29C144.876 106.29 145.623 106.623 145.623 107.199C145.623 107.766 144.876 108.099 143.652 108.099C142.419 108.099 141.681 107.766 141.681 107.199C141.681 106.623 142.419 106.29 143.652 106.29ZM151.175 102.06V102.672H153.353V102.06H151.175ZM151.103 103.752V104.364H153.299V103.752H151.103ZM153.227 100.566V105.444H153.974V100.566H153.227ZM150.68 101.178V101.502C150.68 103.041 149.465 104.238 147.386 104.841L147.692 105.444C150.032 104.742 151.481 103.275 151.481 101.178H150.68ZM147.809 101.178V101.79H151.193V101.178H147.809ZM151.328 105.534C149.681 105.534 148.637 106.119 148.637 107.1C148.637 108.081 149.681 108.666 151.328 108.666C152.975 108.666 154.019 108.081 154.019 107.1C154.019 106.119 152.975 105.534 151.328 105.534ZM151.328 106.119C152.525 106.119 153.29 106.488 153.29 107.1C153.29 107.712 152.525 108.072 151.328 108.072C150.14 108.072 149.375 107.712 149.375 107.1C149.375 106.488 150.14 106.119 151.328 106.119ZM156.593 102.645V103.068C156.593 104.391 155.963 105.804 154.856 106.452L155.306 107.019C156.494 106.308 157.169 104.679 157.169 103.068V102.645H156.593ZM156.728 102.645V103.068C156.728 104.634 157.43 106.173 158.627 106.839L159.05 106.281C157.961 105.687 157.304 104.355 157.304 103.068V102.645H156.728ZM155.063 102.078V102.69H158.834V102.078H155.063ZM156.593 100.854V102.537H157.313V100.854H156.593ZM161.156 100.566V108.702H161.867V100.566H161.156ZM159.869 103.842V104.472H161.435V103.842H159.869ZM159.383 100.737V108.297H160.085V100.737H159.383ZM164.022 107.105L163.974 107.453C163.942 107.709 163.887 107.975 163.811 108.252C163.736 108.532 163.658 108.79 163.577 109.029C163.498 109.268 163.433 109.457 163.382 109.598H162.705C162.732 109.466 162.771 109.287 162.82 109.061C162.869 108.837 162.917 108.587 162.964 108.31C163.011 108.033 163.046 107.751 163.069 107.463L163.101 107.105H164.022ZM172.108 100.566V108.702H172.855V100.566H172.108ZM168.445 102.501V103.194C168.445 104.616 167.545 106.002 166.339 106.56L166.762 107.136C168.067 106.506 169.048 104.931 169.048 103.194V102.501H168.445ZM168.589 102.501V103.194C168.589 104.877 169.588 106.398 170.902 106.992L171.325 106.407C170.11 105.876 169.183 104.553 169.183 103.194V102.501H168.589ZM166.564 101.979V102.582H171.046V101.979H166.564ZM168.445 100.71V102.312H169.192V100.71H168.445ZM177.219 101.412V101.493C177.219 103.716 176.355 105.525 173.844 106.785L174.267 107.361C177.129 105.921 177.939 103.761 177.939 101.412H177.219ZM174.285 101.412V102.015H177.669V101.412H174.285ZM177.174 103.428L173.871 103.644L173.997 104.292L177.174 103.995V103.428ZM179.784 100.566V108.702H180.531V100.566H179.784ZM177.921 103.824V104.445H180.144V103.824H177.921ZM187.416 100.557V108.711H188.163V100.557H187.416ZM181.962 106.128V106.749H182.637C184.032 106.749 185.256 106.695 186.732 106.452L186.651 105.84C185.211 106.074 183.996 106.128 182.637 106.128H181.962ZM181.944 101.322V101.934H184.95V103.617H181.962V106.362H182.709V104.229H185.706V101.322H181.944ZM190.579 107.105L190.531 107.453C190.499 107.709 190.444 107.975 190.368 108.252C190.293 108.532 190.215 108.79 190.134 109.029C190.055 109.268 189.99 109.457 189.939 109.598H189.262C189.289 109.466 189.328 109.287 189.377 109.061C189.426 108.837 189.474 108.587 189.521 108.31C189.568 108.033 189.603 107.751 189.626 107.463L189.658 107.105H190.579ZM198.692 100.566V104.706H199.439V100.566H198.692ZM196.775 102.366V102.978H199.043V102.366H196.775ZM194.966 100.836C193.751 100.836 192.869 101.592 192.869 102.69C192.869 103.77 193.751 104.535 194.966 104.535C196.181 104.535 197.063 103.77 197.063 102.69C197.063 101.592 196.181 100.836 194.966 100.836ZM194.966 101.457C195.758 101.457 196.343 101.97 196.343 102.69C196.343 103.41 195.758 103.923 194.966 103.923C194.174 103.923 193.589 103.41 193.589 102.69C193.589 101.97 194.174 101.457 194.966 101.457ZM194.201 105.147V105.741H198.701V106.551H194.219V108.333H194.948V107.109H199.439V105.147H194.201ZM194.219 108V108.594H199.736V108H194.219ZM205.963 100.566V104.706H206.71V100.566H205.963ZM206.503 102.384V103.005H207.916V102.384H206.503ZM203.704 100.962V101.358C203.704 102.726 202.525 103.815 200.41 104.283L200.689 104.904C203.047 104.346 204.514 103.005 204.514 100.962H203.704ZM200.761 100.962V101.574H204.145V100.962H200.761ZM201.544 105.075V105.669H205.981V106.515H201.562V108.36H202.3V107.091H206.71V105.075H201.544ZM201.562 108.027V108.621H207.007V108.027H201.562ZM213.955 100.557V108.711H214.702V100.557H213.955ZM210.409 101.187C209.212 101.187 208.348 102.294 208.348 104.022C208.348 105.759 209.212 106.866 210.409 106.866C211.615 106.866 212.479 105.759 212.479 104.022C212.479 102.294 211.615 101.187 210.409 101.187ZM210.409 101.862C211.21 101.862 211.759 102.708 211.759 104.022C211.759 105.345 211.21 106.209 210.409 106.209C209.617 106.209 209.059 105.345 209.059 104.022C209.059 102.708 209.617 101.862 210.409 101.862ZM217.136 107.105L217.088 107.453C217.056 107.709 217.001 107.975 216.925 108.252C216.85 108.532 216.772 108.79 216.691 109.029C216.612 109.268 216.548 109.457 216.496 109.598H215.819C215.847 109.466 215.885 109.287 215.934 109.061C215.983 108.837 216.031 108.587 216.078 108.31C216.125 108.033 216.16 107.751 216.183 107.463L216.215 107.105H217.136ZM225.492 100.566V108.702H226.212V100.566H225.492ZM224.115 103.824V104.445H225.681V103.824H224.115ZM223.647 100.746V108.288H224.349V100.746H223.647ZM219.597 106.074V106.695H220.128C221.352 106.695 222.171 106.659 223.143 106.452L223.071 105.831C222.126 106.029 221.316 106.074 220.128 106.074H219.597ZM219.597 101.556V106.353H220.335V102.168H222.621V101.556H219.597ZM227.057 101.439V102.051H231.584V101.439H227.057ZM226.94 106.695C228.371 106.695 230.306 106.668 232.007 106.389L231.962 105.831C230.288 106.038 228.317 106.056 226.85 106.056L226.94 106.695ZM227.93 101.898V106.227H228.659V101.898H227.93ZM229.982 101.898V106.227H230.711V101.898H229.982ZM232.457 100.566V108.702H233.213V100.566H232.457ZM233.033 103.815V104.445H234.545V103.815H233.033ZM236.043 107.105L235.995 107.453C235.963 107.709 235.909 107.975 235.832 108.252C235.758 108.532 235.68 108.79 235.599 109.029C235.52 109.268 235.455 109.457 235.404 109.598H234.727C234.754 109.466 234.793 109.287 234.842 109.061C234.891 108.837 234.939 108.587 234.985 108.31C235.032 108.033 235.067 107.751 235.091 107.463L235.123 107.105H236.043ZM239.954 101.16V101.646C239.954 102.186 239.396 102.933 238.451 103.239L238.766 103.797C239.909 103.419 240.521 102.456 240.521 101.646V101.16H239.954ZM240.152 101.16V101.601C240.152 102.348 240.719 103.32 241.88 103.689L242.123 103.122C241.232 102.825 240.692 102.096 240.692 101.601V101.16H240.152ZM243.077 101.16V101.601C243.077 102.132 242.537 102.834 241.646 103.122L241.88 103.689C243.041 103.329 243.617 102.375 243.617 101.601V101.16H243.077ZM243.257 101.16V101.646C243.257 102.537 243.86 103.437 244.994 103.797L245.318 103.239C244.364 102.96 243.815 102.267 243.815 101.646V101.16H243.257ZM238.685 100.863V101.466H241.727V100.863H238.685ZM242.042 100.863V101.466H245.084V100.863H242.042ZM238.208 104.598V105.201H245.588V104.598H238.208ZM241.511 103.77V105.066H242.258V103.77H241.511ZM239.018 106.065V106.668H243.887V108.702H244.634V106.065H239.018ZM245.965 101.439V102.051H250.492V101.439H245.965ZM245.848 106.695C247.279 106.695 249.214 106.668 250.915 106.389L250.87 105.831C249.196 106.038 247.225 106.056 245.758 106.056L245.848 106.695ZM246.838 101.898V106.227H247.567V101.898H246.838ZM248.89 101.898V106.227H249.619V101.898H248.89ZM251.365 100.566V108.702H252.121V100.566H251.365ZM251.941 103.815V104.445H253.453V103.815H251.941ZM254.337 108.061C254.163 108.061 254.012 107.999 253.887 107.875C253.761 107.75 253.698 107.598 253.698 107.422C253.698 107.247 253.761 107.098 253.887 106.974C254.012 106.848 254.163 106.786 254.337 106.786C254.512 106.786 254.662 106.848 254.788 106.974C254.914 107.098 254.977 107.247 254.977 107.422C254.977 107.539 254.947 107.646 254.887 107.744C254.83 107.84 254.753 107.917 254.657 107.974C254.561 108.032 254.455 108.061 254.337 108.061ZM258.017 101.043V101.655H263.21V101.043H258.017ZM257.081 104.301V104.922H264.452V104.301H257.081ZM262.769 101.043V101.682C262.769 102.411 262.769 103.275 262.508 104.481L263.237 104.562C263.498 103.32 263.498 102.429 263.498 101.682V101.043H262.769ZM258.044 107.901V108.522H263.741V107.901H258.044ZM258.044 105.822V107.991H258.791V105.822H258.044ZM270.913 100.566V108.702H271.633V100.566H270.913ZM269.536 103.824V104.445H271.102V103.824H269.536ZM269.068 100.746V108.288H269.77V100.746H269.068ZM265.018 106.074V106.695H265.549C266.773 106.695 267.592 106.659 268.564 106.452L268.492 105.831C267.547 106.029 266.737 106.074 265.549 106.074H265.018ZM265.018 101.556V106.353H265.756V102.168H268.042V101.556H265.018ZM273.815 107.105L273.767 107.453C273.735 107.709 273.681 107.975 273.604 108.252C273.529 108.532 273.452 108.79 273.371 109.029C273.292 109.268 273.227 109.457 273.176 109.598H272.498C272.526 109.466 272.564 109.287 272.613 109.061C272.662 108.837 272.71 108.587 272.757 108.31C272.804 108.033 272.839 107.751 272.862 107.463L272.894 107.105H273.815ZM37.441 120.634V121.246H44.794V120.634H37.441ZM40.753 119.473V120.877H41.491V119.473H40.753ZM38.422 116.737V119.734H43.84V116.737H43.093V117.637H39.16V116.737H38.422ZM39.16 118.213H43.093V119.131H39.16V118.213ZM38.341 121.984V124.594H43.894V121.984H38.341ZM43.165 122.587V123.991H39.079V122.587H43.165ZM45.0993 120.571V121.183H52.4523V120.571H45.0993ZM48.4023 119.266V120.823H49.1403V119.266H48.4023ZM46.0263 119.032V119.644H51.5973V119.032H46.0263ZM46.0263 116.935V119.392H46.7643V117.538H51.5343V116.935H46.0263ZM48.7623 121.768C47.0253 121.768 45.9723 122.299 45.9723 123.226C45.9723 124.171 47.0253 124.693 48.7623 124.693C50.4993 124.693 51.5523 124.171 51.5523 123.226C51.5523 122.299 50.4993 121.768 48.7623 121.768ZM48.7623 122.344C50.0403 122.344 50.7963 122.668 50.7963 123.226C50.7963 123.793 50.0403 124.108 48.7623 124.108C47.4933 124.108 46.7283 123.793 46.7283 123.226C46.7283 122.668 47.4933 122.344 48.7623 122.344ZM54.1842 123.105L54.1363 123.453C54.1043 123.709 54.05 123.975 53.9733 124.252C53.8987 124.532 53.821 124.79 53.74 125.029C53.6612 125.268 53.5962 125.457 53.545 125.598H52.8675C52.8952 125.466 52.9335 125.287 52.9825 125.061C53.0315 124.837 53.0795 124.587 53.1264 124.31C53.1732 124.033 53.2084 123.751 53.2318 123.463L53.2638 123.105H54.1842ZM62.4417 117.781V118.402H63.8547V117.781H62.4417ZM62.4417 119.509V120.13H63.8547V119.509H62.4417ZM58.6257 117.043C57.4017 117.043 56.5017 117.835 56.5017 118.969C56.5017 120.094 57.4017 120.877 58.6257 120.877C59.8497 120.877 60.7497 120.094 60.7497 118.969C60.7497 117.835 59.8497 117.043 58.6257 117.043ZM58.6257 117.673C59.4357 117.673 60.0207 118.204 60.0207 118.969C60.0207 119.734 59.4357 120.256 58.6257 120.256C57.8157 120.256 57.2307 119.734 57.2307 118.969C57.2307 118.204 57.8157 117.673 58.6257 117.673ZM61.9197 116.566V121.381H62.6667V116.566H61.9197ZM60.0747 121.642C58.4187 121.642 57.4017 122.209 57.4017 123.163C57.4017 124.126 58.4187 124.684 60.0747 124.684C61.7307 124.684 62.7477 124.126 62.7477 123.163C62.7477 122.209 61.7307 121.642 60.0747 121.642ZM60.0747 122.245C61.2807 122.245 62.0187 122.578 62.0187 123.163C62.0187 123.748 61.2807 124.09 60.0747 124.09C58.8687 124.09 58.1307 123.748 58.1307 123.163C58.1307 122.578 58.8687 122.245 60.0747 122.245ZM65.663 118.645V119.068C65.663 120.391 65.033 121.804 63.926 122.452L64.376 123.019C65.564 122.308 66.239 120.679 66.239 119.068V118.645H65.663ZM65.798 118.645V119.068C65.798 120.634 66.5 122.173 67.697 122.839L68.12 122.281C67.031 121.687 66.374 120.355 66.374 119.068V118.645H65.798ZM64.133 118.078V118.69H67.904V118.078H64.133ZM65.663 116.854V118.537H66.383V116.854H65.663ZM70.226 116.566V124.702H70.937V116.566H70.226ZM68.939 119.842V120.472H70.505V119.842H68.939ZM68.453 116.737V124.297H69.155V116.737H68.453ZM71.6473 121.408V122.02H79.0273V121.408H71.6473ZM73.5553 121.741V124.702H74.3113V121.741H73.5553ZM76.3543 121.741V124.702H77.1013V121.741H76.3543ZM72.5293 116.881V117.484H77.3803V118.402H72.5473V120.373H73.3033V118.978H78.1273V116.881H72.5293ZM72.5473 119.977V120.58H78.3163V119.977H72.5473ZM79.3056 120.436V121.057H86.6586V120.436H79.3056ZM80.2326 119.059V119.662H85.8036V119.059H80.2326ZM80.2326 116.89V119.347H80.9706V117.502H85.7406V116.89H80.2326ZM82.9686 121.759C81.2316 121.759 80.1786 122.29 80.1786 123.226C80.1786 124.162 81.2316 124.684 82.9686 124.684C84.7056 124.684 85.7586 124.162 85.7586 123.226C85.7586 122.29 84.7056 121.759 82.9686 121.759ZM82.9686 122.335C84.2466 122.335 85.0026 122.659 85.0026 123.226C85.0026 123.784 84.2466 124.099 82.9686 124.099C81.6996 124.099 80.9346 123.784 80.9346 123.226C80.9346 122.659 81.6996 122.335 82.9686 122.335Z" fill="#3C3C3C"/>
<path d="M43.651 147.566V152.867H44.362V147.566H43.651ZM42.373 149.654V150.275H43.903V149.654H42.373ZM41.986 147.719V152.183H42.688V147.719H41.986ZM38.818 148.169V148.223C38.818 149.699 38.503 150.644 37.495 151.562L38.053 151.976C39.196 150.905 39.493 149.735 39.493 148.169H38.818ZM37.639 148.169V148.772H39.286V148.169H37.639ZM40.717 148.169V148.223C40.717 149.771 40.456 150.986 39.376 152.093L39.979 152.471C41.14 151.22 41.392 149.798 41.392 148.169H40.717ZM39.709 148.169V148.772H41.167V148.169H39.709ZM41.302 152.516V152.876C41.302 153.947 39.979 154.856 38.548 155.081L38.836 155.675C40.474 155.378 41.932 154.325 41.932 152.876V152.516H41.302ZM41.41 152.516V152.876C41.41 154.325 42.877 155.378 44.515 155.675L44.803 155.081C43.372 154.856 42.049 153.947 42.049 152.876V152.516H41.41ZM51.0123 147.575V152.084H51.7593V147.575H51.0123ZM46.3863 152.552V153.155H51.8133V152.552H46.3863ZM46.3053 154.991V155.594H51.9033V154.991H46.3053ZM47.5023 152.723V155.225H48.2313V152.723H47.5023ZM49.9683 152.723V155.225H50.7063V152.723H49.9683ZM47.4033 148.007C46.1703 148.007 45.2793 148.781 45.2793 149.897C45.2793 151.022 46.1703 151.796 47.4033 151.796C48.6363 151.796 49.5183 151.022 49.5183 149.897C49.5183 148.781 48.6363 148.007 47.4033 148.007ZM47.4033 148.628C48.2133 148.628 48.7983 149.15 48.7983 149.897C48.7983 150.644 48.2133 151.166 47.4033 151.166C46.5933 151.166 46.0083 150.644 46.0083 149.897C46.0083 149.15 46.5933 148.628 47.4033 148.628ZM54.1842 154.105L54.1363 154.453C54.1043 154.709 54.05 154.975 53.9733 155.252C53.8987 155.532 53.821 155.79 53.74 156.029C53.6612 156.268 53.5962 156.457 53.545 156.598H52.8675C52.8952 156.466 52.9335 156.287 52.9825 156.061C53.0315 155.837 53.0795 155.587 53.1264 155.31C53.1732 155.033 53.2084 154.751 53.2318 154.463L53.2638 154.105H54.1842ZM56.8167 148.358V153.659H60.5607V148.358H56.8167ZM59.8317 148.961V153.056H57.5457V148.961H59.8317ZM62.2617 147.557V155.711H63.0087V147.557H62.2617ZM70.055 150.806V151.436H71.558V150.806H70.055ZM69.506 147.557V155.702H70.262V147.557H69.506ZM64.322 148.358V153.398H65.069V148.358H64.322ZM64.322 153.011V153.641H64.97C66.203 153.641 67.454 153.56 68.84 153.272L68.75 152.651C67.409 152.93 66.176 153.011 64.97 153.011H64.322ZM77.5783 147.557V155.711H78.3253V147.557H77.5783ZM72.1243 153.128V153.749H72.7993C74.1943 153.749 75.4183 153.695 76.8943 153.452L76.8133 152.84C75.3733 153.074 74.1583 153.128 72.7993 153.128H72.1243ZM72.1063 148.322V148.934H75.1123V150.617H72.1243V153.362H72.8713V151.229H75.8683V148.322H72.1063ZM80.7413 154.105L80.6933 154.453C80.6614 154.709 80.607 154.975 80.5303 155.252C80.4558 155.532 80.378 155.79 80.297 156.029C80.2182 156.268 80.1532 156.457 80.1021 156.598H79.4245C79.4522 156.466 79.4906 156.287 79.5396 156.061C79.5886 155.837 79.6365 155.587 79.6834 155.31C79.7303 155.033 79.7654 154.751 79.7889 154.463L79.8208 154.105H80.7413ZM82.9058 152.381V152.993H90.2858V152.381H82.9058ZM86.1998 152.669V155.702H86.9378V152.669H86.1998ZM83.8328 147.89V151.409H89.3408V147.89H88.6028V149.006H84.5798V147.89H83.8328ZM84.5798 149.609H88.6028V150.806H84.5798V149.609ZM93.8671 152.741V155.711H94.6051V152.741H93.8671ZM90.5641 152.48V153.101H97.9171V152.48H90.5641ZM93.8581 148.961V149.168C93.8581 150.185 92.4901 151.076 91.0231 151.274L91.2841 151.868C92.9941 151.607 94.5151 150.572 94.5151 149.168V148.961H93.8581ZM93.9571 148.961V149.168C93.9571 150.554 95.4691 151.616 97.1701 151.868L97.4401 151.274C95.9821 151.076 94.6051 150.176 94.6051 149.168V148.961H93.9571ZM91.2751 148.565V149.177H97.2061V148.565H91.2751ZM93.8671 147.566V148.781H94.6051V147.566H93.8671ZM99.649 154.105L99.6011 154.453C99.5691 154.709 99.5148 154.975 99.4381 155.252C99.3635 155.532 99.2857 155.79 99.2048 156.029C99.1259 156.268 99.0609 156.457 99.0098 156.598H98.3323C98.3599 156.466 98.3983 156.287 98.4473 156.061C98.4963 155.837 98.5443 155.587 98.5911 155.31C98.638 155.033 98.6732 154.751 98.6966 154.463L98.7286 154.105H99.649ZM107.78 147.557V155.711H108.518V147.557H107.78ZM105.629 150.581V151.193H107.996V150.581H105.629ZM102.146 148.205V153.668H105.881V148.205H105.143V150.32H102.884V148.205H102.146ZM102.884 150.914H105.143V153.047H102.884V150.914ZM115.421 147.566V153.218H116.168V147.566H115.421ZM113.162 152.66V152.885C113.162 153.974 111.866 154.847 110.426 155.081L110.714 155.675C112.361 155.387 113.801 154.343 113.801 152.885V152.66H113.162ZM113.288 152.66V152.885C113.288 154.379 114.728 155.378 116.375 155.675L116.672 155.081C115.214 154.856 113.927 154.001 113.927 152.885V152.66H113.288ZM113.648 149.231V149.852H115.574V149.231H113.648ZM111.497 147.971V148.826C111.497 150.068 110.714 151.166 109.481 151.616L109.877 152.21C111.236 151.679 112.109 150.392 112.109 148.826V147.971H111.497ZM111.623 147.971V148.862C111.623 150.293 112.496 151.526 113.81 152.021L114.206 151.436C113.027 151.013 112.226 149.978 112.226 148.862V147.971H111.623ZM118.557 154.105L118.509 154.453C118.477 154.709 118.423 154.975 118.346 155.252C118.271 155.532 118.193 155.79 118.113 156.029C118.034 156.268 117.969 156.457 117.918 156.598H117.24C117.268 156.466 117.306 156.287 117.355 156.061C117.404 155.837 117.452 155.587 117.499 155.31C117.546 155.033 117.581 154.751 117.604 154.463L117.636 154.105H118.557ZM126.292 147.566V152.174H127.039V147.566H126.292ZM126.832 149.546V150.167H128.245V149.546H126.832ZM124.042 148.088V148.421C124.042 149.915 122.827 151.094 120.721 151.67L121.009 152.264C123.403 151.616 124.834 150.14 124.834 148.088H124.042ZM121.072 148.088V148.691H124.456V148.088H121.072ZM121.918 152.561V155.594H127.039V152.561H121.918ZM126.301 153.164V154.982H122.656V153.164H126.301ZM130.387 148.727V150.05C130.387 151.427 129.406 152.975 128.245 153.542L128.677 154.136C129.946 153.488 130.981 151.742 130.981 150.05V148.727H130.387ZM130.522 148.727V150.05C130.522 151.661 131.503 153.299 132.79 153.938L133.213 153.344C132.034 152.786 131.116 151.337 131.116 150.05V148.727H130.522ZM128.533 148.394V149.024H132.916V148.394H128.533ZM133.879 147.566V155.702H134.635V147.566H133.879ZM134.455 150.851V151.481H135.967V150.851H134.455ZM137.464 154.105L137.417 154.453C137.385 154.709 137.33 154.975 137.254 155.252C137.179 155.532 137.101 155.79 137.02 156.029C136.941 156.268 136.876 156.457 136.825 156.598H136.148C136.175 156.466 136.214 156.287 136.263 156.061C136.312 155.837 136.36 155.587 136.407 155.31C136.453 155.033 136.489 154.751 136.512 154.463L136.544 154.105H137.464ZM140.412 148.376V148.997H145.65V148.376H140.412ZM139.638 153.947V154.568H146.991V153.947H139.638ZM142.491 151.04V154.253H143.238V151.04H142.491ZM145.371 148.376V149.186C145.371 150.158 145.371 151.301 145.065 152.858L145.812 152.957C146.109 151.31 146.109 150.194 146.109 149.186V148.376H145.371ZM148.205 148.097V148.7H153.29V148.097H148.205ZM147.287 151.589V152.201H154.64V151.589H147.287ZM150.572 151.994V155.711H151.319V151.994H150.572ZM152.939 148.097V148.799C152.939 149.618 152.939 150.563 152.624 151.877L153.362 151.976C153.668 150.599 153.668 149.645 153.668 148.799V148.097H152.939ZM155.252 148.376V153.641H158.987V148.376H155.252ZM158.258 148.979V153.038H155.981V148.979H158.258ZM160.436 147.566V155.702H161.192V147.566H160.436ZM161.012 150.815V151.445H162.524V150.815H161.012ZM164.022 154.105L163.974 154.453C163.942 154.709 163.887 154.975 163.811 155.252C163.736 155.532 163.658 155.79 163.577 156.029C163.498 156.268 163.433 156.457 163.382 156.598H162.705C162.732 156.466 162.771 156.287 162.82 156.061C162.869 155.837 162.917 155.587 162.964 155.31C163.011 155.033 163.046 154.751 163.069 154.463L163.101 154.105H164.022ZM171.766 147.566V152.399H172.513V147.566H171.766ZM172.297 149.681V150.302H173.71V149.681H172.297ZM169.912 152.57C168.265 152.57 167.239 153.155 167.239 154.136C167.239 155.117 168.265 155.693 169.912 155.693C171.559 155.693 172.585 155.117 172.585 154.136C172.585 153.155 171.559 152.57 169.912 152.57ZM169.912 153.182C171.118 153.182 171.856 153.524 171.856 154.136C171.856 154.73 171.118 155.081 169.912 155.081C168.706 155.081 167.968 154.73 167.968 154.136C167.968 153.524 168.706 153.182 169.912 153.182ZM166.555 151.148V151.76H167.185C168.904 151.76 169.867 151.706 170.992 151.481L170.902 150.869C169.813 151.094 168.868 151.148 167.185 151.148H166.555ZM166.555 148.187V151.544H167.293V148.799H170.146V148.187H166.555ZM174.78 148.043V148.655H179.973V148.043H174.78ZM173.844 151.301V151.922H181.215V151.301H173.844ZM179.532 148.043V148.682C179.532 149.411 179.532 150.275 179.271 151.481L180 151.562C180.261 150.32 180.261 149.429 180.261 148.682V148.043H179.532ZM174.807 154.901V155.522H180.504V154.901H174.807ZM174.807 152.822V154.991H175.554V152.822H174.807ZM181.964 152.283C181.964 151.482 182.07 150.745 182.28 150.072C182.491 149.398 182.799 148.777 183.204 148.208H184.08C183.922 148.419 183.775 148.678 183.639 148.985C183.502 149.292 183.383 149.629 183.281 149.995C183.179 150.359 183.099 150.738 183.041 151.13C182.984 151.52 182.955 151.904 182.955 152.283C182.955 152.79 183.005 153.304 183.105 153.824C183.205 154.344 183.34 154.826 183.511 155.272C183.681 155.717 183.871 156.08 184.08 156.362H183.204C182.799 155.793 182.491 155.172 182.28 154.498C182.07 153.825 181.964 153.087 181.964 152.283ZM186.542 147.863C185.336 147.863 184.445 148.601 184.445 149.672C184.445 150.734 185.336 151.472 186.542 151.472C187.757 151.472 188.648 150.734 188.648 149.672C188.648 148.601 187.757 147.863 186.542 147.863ZM186.542 148.475C187.334 148.475 187.919 148.97 187.919 149.672C187.919 150.374 187.334 150.86 186.542 150.86C185.759 150.86 185.165 150.374 185.165 149.672C185.165 148.97 185.759 148.475 186.542 148.475ZM190.178 147.566V151.733H190.934V147.566H190.178ZM185.669 152.129V152.732H190.196V153.551H185.687V155.333H186.416V154.109H190.934V152.129H185.669ZM185.687 155V155.594H191.204V155H185.687ZM197.476 147.575V153.542H198.223V147.575H197.476ZM197.989 150.032V150.653H199.429V150.032H197.989ZM193.156 154.91V155.522H198.592V154.91H193.156ZM193.156 152.966V155.054H193.903V152.966H193.156ZM192.247 148.151V152.183H196.009V148.151H195.28V149.51H192.985V148.151H192.247ZM192.985 150.095H195.28V151.58H192.985V150.095ZM201.594 152.283C201.594 153.087 201.488 153.825 201.277 154.498C201.066 155.172 200.758 155.793 200.354 156.362H199.478C199.636 156.151 199.783 155.892 199.919 155.585C200.055 155.278 200.175 154.942 200.277 154.578C200.379 154.212 200.459 153.832 200.517 153.44C200.574 153.048 200.603 152.663 200.603 152.283C200.603 151.778 200.553 151.266 200.453 150.746C200.353 150.226 200.217 149.744 200.047 149.298C199.876 148.853 199.687 148.49 199.478 148.208H200.354C200.758 148.777 201.066 149.398 201.277 150.072C201.488 150.745 201.594 151.482 201.594 152.283ZM203.771 154.105L203.723 154.453C203.691 154.709 203.636 154.975 203.56 155.252C203.485 155.532 203.407 155.79 203.326 156.029C203.247 156.268 203.183 156.457 203.131 156.598H202.454C202.482 156.466 202.52 156.287 202.569 156.061C202.618 155.837 202.666 155.587 202.713 155.31C202.76 155.033 202.795 154.751 202.818 154.463L202.85 154.105H203.771ZM212.028 148.781V149.402H213.441V148.781H212.028ZM212.028 150.509V151.13H213.441V150.509H212.028ZM208.212 148.043C206.988 148.043 206.088 148.835 206.088 149.969C206.088 151.094 206.988 151.877 208.212 151.877C209.436 151.877 210.336 151.094 210.336 149.969C210.336 148.835 209.436 148.043 208.212 148.043ZM208.212 148.673C209.022 148.673 209.607 149.204 209.607 149.969C209.607 150.734 209.022 151.256 208.212 151.256C207.402 151.256 206.817 150.734 206.817 149.969C206.817 149.204 207.402 148.673 208.212 148.673ZM211.506 147.566V152.381H212.253V147.566H211.506ZM209.661 152.642C208.005 152.642 206.988 153.209 206.988 154.163C206.988 155.126 208.005 155.684 209.661 155.684C211.317 155.684 212.334 155.126 212.334 154.163C212.334 153.209 211.317 152.642 209.661 152.642ZM209.661 153.245C210.867 153.245 211.605 153.578 211.605 154.163C211.605 154.748 210.867 155.09 209.661 155.09C208.455 155.09 207.717 154.748 207.717 154.163C207.717 153.578 208.455 153.245 209.661 153.245ZM213.881 148.331V153.668H216.986V148.331H216.293V150.32H214.592V148.331H213.881ZM214.592 150.923H216.293V153.056H214.592V150.923ZM219.785 147.566V155.702H220.505V147.566H219.785ZM218.48 150.788V151.4H220.046V150.788H218.48ZM217.985 147.737V155.297H218.696V147.737H217.985ZM224.546 152.741V155.711H225.284V152.741H224.546ZM221.243 152.48V153.101H228.596V152.48H221.243ZM224.537 148.961V149.168C224.537 150.185 223.169 151.076 221.702 151.274L221.963 151.868C223.673 151.607 225.194 150.572 225.194 149.168V148.961H224.537ZM224.636 148.961V149.168C224.636 150.554 226.148 151.616 227.849 151.868L228.119 151.274C226.661 151.076 225.284 150.176 225.284 149.168V148.961H224.636ZM221.954 148.565V149.177H227.885V148.565H221.954ZM224.546 147.566V148.781H225.284V147.566H224.546ZM230.328 154.105L230.28 154.453C230.248 154.709 230.193 154.975 230.117 155.252C230.042 155.532 229.964 155.79 229.883 156.029C229.805 156.268 229.74 156.457 229.688 156.598H229.011C229.039 156.466 229.077 156.287 229.126 156.061C229.175 155.837 229.223 155.587 229.27 155.31C229.317 155.033 229.352 154.751 229.375 154.463L229.407 154.105H230.328ZM235.795 152.165V154.19H236.542V152.165H235.795ZM236.173 148.097C234.454 148.097 233.212 148.934 233.212 150.23C233.212 151.526 234.454 152.363 236.173 152.363C237.892 152.363 239.125 151.526 239.125 150.23C239.125 148.934 237.892 148.097 236.173 148.097ZM236.173 148.691C237.46 148.691 238.405 149.303 238.405 150.23C238.405 151.157 237.46 151.769 236.173 151.769C234.877 151.769 233.932 151.157 233.932 150.23C233.932 149.303 234.877 148.691 236.173 148.691ZM232.501 154.046V154.667H239.872V154.046H232.501ZM246.054 147.557V155.711H246.801V147.557H246.054ZM242.508 148.187C241.311 148.187 240.447 149.294 240.447 151.022C240.447 152.759 241.311 153.866 242.508 153.866C243.714 153.866 244.578 152.759 244.578 151.022C244.578 149.294 243.714 148.187 242.508 148.187ZM242.508 148.862C243.309 148.862 243.858 149.708 243.858 151.022C243.858 152.345 243.309 153.209 242.508 153.209C241.716 153.209 241.158 152.345 241.158 151.022C241.158 149.708 241.716 148.862 242.508 148.862ZM249.235 154.105L249.187 154.453C249.155 154.709 249.101 154.975 249.024 155.252C248.95 155.532 248.872 155.79 248.791 156.029C248.712 156.268 248.647 156.457 248.596 156.598H247.919C247.946 156.466 247.985 156.287 248.034 156.061C248.083 155.837 248.131 155.587 248.177 155.31C248.224 155.033 248.259 154.751 248.283 154.463L248.315 154.105H249.235ZM251.769 148.754V149.366H258.375V148.754H251.769ZM251.409 154.136V154.757H258.78V154.136H251.409ZM254.712 152.849V154.379H255.45V152.849H254.712ZM255.072 149.915C253.434 149.915 252.417 150.482 252.417 151.463C252.417 152.444 253.434 153.011 255.072 153.011C256.719 153.011 257.736 152.444 257.736 151.463C257.736 150.482 256.719 149.915 255.072 149.915ZM255.072 150.5C256.26 150.5 256.98 150.86 256.98 151.463C256.98 152.066 256.26 152.417 255.072 152.417C253.893 152.417 253.164 152.066 253.164 151.463C253.164 150.86 253.893 150.5 255.072 150.5ZM254.712 147.701V149.132H255.45V147.701H254.712ZM264.62 147.566V152.471H265.367V147.566H264.62ZM265.16 149.672V150.302H266.573V149.672H265.16ZM260.084 152.903V153.515H264.62V155.702H265.367V152.903H260.084ZM259.391 148.07V151.922H263.153V148.07H262.424V149.339H260.129V148.07H259.391ZM260.129 149.933H262.424V151.328H260.129V149.933ZM268.143 154.105L268.095 154.453C268.063 154.709 268.009 154.975 267.932 155.252C267.858 155.532 267.78 155.79 267.699 156.029C267.62 156.268 267.555 156.457 267.504 156.598H266.826C266.854 156.466 266.892 156.287 266.941 156.061C266.99 155.837 267.038 155.587 267.085 155.31C267.132 155.033 267.167 154.751 267.191 154.463L267.223 154.105H268.143ZM43.372 163.566V171.702H44.119V163.566H43.372ZM37.648 164.439V165.051H42.256V164.439H37.648ZM37.522 169.695C39.007 169.686 40.96 169.659 42.715 169.38L42.67 168.831C40.942 169.038 38.944 169.056 37.432 169.056L37.522 169.695ZM38.548 164.898V169.227H39.268V164.898H38.548ZM40.627 164.898V169.227H41.356V164.898H40.627ZM45.4323 164.178V167.679H49.1673V164.178H45.4323ZM48.4383 164.781V167.085H46.1613V164.781H48.4383ZM50.6613 163.566V168.372H51.4083V163.566H50.6613ZM51.2013 165.582V166.212H52.6143V165.582H51.2013ZM48.8163 168.651C47.1603 168.651 46.1433 169.218 46.1433 170.172C46.1433 171.135 47.1603 171.693 48.8163 171.693C50.4723 171.693 51.4893 171.135 51.4893 170.172C51.4893 169.218 50.4723 168.651 48.8163 168.651ZM48.8163 169.254C50.0223 169.254 50.7603 169.587 50.7603 170.172C50.7603 170.757 50.0223 171.099 48.8163 171.099C47.6103 171.099 46.8723 170.757 46.8723 170.172C46.8723 169.587 47.6103 169.254 48.8163 169.254ZM54.1842 170.105L54.1363 170.453C54.1043 170.709 54.05 170.975 53.9733 171.252C53.8987 171.532 53.821 171.79 53.74 172.029C53.6612 172.268 53.5962 172.457 53.545 172.598H52.8675C52.8952 172.466 52.9335 172.287 52.9825 172.061C53.0315 171.837 53.0795 171.587 53.1264 171.31C53.1732 171.033 53.2084 170.751 53.2318 170.463L53.2638 170.105H54.1842ZM57.1317 164.376V164.997H62.3697V164.376H57.1317ZM56.3577 169.947V170.568H63.7107V169.947H56.3577ZM59.2107 167.04V170.253H59.9577V167.04H59.2107ZM62.0907 164.376V165.186C62.0907 166.158 62.0907 167.301 61.7847 168.858L62.5317 168.957C62.8287 167.31 62.8287 166.194 62.8287 165.186V164.376H62.0907ZM67.31 168.741V171.711H68.048V168.741H67.31ZM64.007 168.48V169.101H71.36V168.48H64.007ZM67.301 164.961V165.168C67.301 166.185 65.933 167.076 64.466 167.274L64.727 167.868C66.437 167.607 67.958 166.572 67.958 165.168V164.961H67.301ZM67.4 164.961V165.168C67.4 166.554 68.912 167.616 70.613 167.868L70.883 167.274C69.425 167.076 68.048 166.176 68.048 165.168V164.961H67.4ZM64.718 164.565V165.177H70.649V164.565H64.718ZM67.31 163.566V164.781H68.048V163.566H67.31ZM73.092 170.105L73.044 170.453C73.0121 170.709 72.9577 170.975 72.881 171.252C72.8065 171.532 72.7287 171.79 72.6477 172.029C72.5689 172.268 72.5039 172.457 72.4528 172.598H71.7752C71.8029 172.466 71.8413 172.287 71.8903 172.061C71.9393 171.837 71.9872 171.587 72.0341 171.31C72.081 171.033 72.1161 170.751 72.1396 170.463L72.1715 170.105H73.092ZM81.3495 164.781V165.402H82.7625V164.781H81.3495ZM81.3495 166.509V167.13H82.7625V166.509H81.3495ZM77.5335 164.043C76.3095 164.043 75.4095 164.835 75.4095 165.969C75.4095 167.094 76.3095 167.877 77.5335 167.877C78.7575 167.877 79.6575 167.094 79.6575 165.969C79.6575 164.835 78.7575 164.043 77.5335 164.043ZM77.5335 164.673C78.3435 164.673 78.9285 165.204 78.9285 165.969C78.9285 166.734 78.3435 167.256 77.5335 167.256C76.7235 167.256 76.1385 166.734 76.1385 165.969C76.1385 165.204 76.7235 164.673 77.5335 164.673ZM80.8275 163.566V168.381H81.5745V163.566H80.8275ZM78.9825 168.642C77.3265 168.642 76.3095 169.209 76.3095 170.163C76.3095 171.126 77.3265 171.684 78.9825 171.684C80.6385 171.684 81.6555 171.126 81.6555 170.163C81.6555 169.209 80.6385 168.642 78.9825 168.642ZM78.9825 169.245C80.1885 169.245 80.9265 169.578 80.9265 170.163C80.9265 170.748 80.1885 171.09 78.9825 171.09C77.7765 171.09 77.0385 170.748 77.0385 170.163C77.0385 169.578 77.7765 169.245 78.9825 169.245ZM83.0138 164.439V165.051H87.5408V164.439H83.0138ZM82.8968 169.695C84.3278 169.695 86.2628 169.668 87.9638 169.389L87.9188 168.831C86.2448 169.038 84.2738 169.056 82.8068 169.056L82.8968 169.695ZM83.8868 164.898V169.227H84.6158V164.898H83.8868ZM85.9388 164.898V169.227H86.6678V164.898H85.9388ZM88.4138 163.566V171.702H89.1698V163.566H88.4138ZM88.9898 166.815V167.445H90.5018V166.815H88.9898ZM91.9997 170.105L91.9518 170.453C91.9198 170.709 91.8655 170.975 91.7888 171.252C91.7142 171.532 91.6364 171.79 91.5555 172.029C91.4766 172.268 91.4116 172.457 91.3605 172.598H90.683C90.7107 172.466 90.749 172.287 90.798 172.061C90.847 171.837 90.895 171.587 90.9418 171.31C90.9887 171.033 91.0239 170.751 91.0473 170.463L91.0793 170.105H91.9997ZM100.095 163.566V171.702H100.842V163.566H100.095ZM97.7102 164.439V164.565C97.7102 166.725 96.6212 168.453 94.2722 169.587L94.6682 170.19C97.3862 168.858 98.4482 166.797 98.4482 164.439H97.7102ZM94.6412 164.439V165.051H98.0342V164.439H94.6412ZM102.164 169.128V169.749H102.803C104.324 169.749 105.386 169.704 106.646 169.488L106.565 168.876C105.341 169.092 104.306 169.128 102.803 169.128H102.164ZM102.164 164.304V169.344H102.911V164.925H105.953V164.304H102.164ZM102.722 166.581V167.184H105.773V166.581H102.722ZM107.321 163.566V171.702H108.077V163.566H107.321ZM107.897 166.833V167.463H109.409V166.833H107.897ZM111.128 165.645V166.068C111.128 167.391 110.498 168.804 109.391 169.452L109.841 170.019C111.029 169.308 111.704 167.679 111.704 166.068V165.645H111.128ZM111.263 165.645V166.068C111.263 167.634 111.965 169.173 113.162 169.839L113.585 169.281C112.496 168.687 111.839 167.355 111.839 166.068V165.645H111.263ZM109.598 165.078V165.69H113.369V165.078H109.598ZM111.128 163.854V165.537H111.848V163.854H111.128ZM115.691 163.566V171.702H116.402V163.566H115.691ZM114.404 166.842V167.472H115.97V166.842H114.404ZM113.918 163.737V171.297H114.62V163.737H113.918ZM117.121 170.028V170.649H124.492V170.028H117.121ZM120.397 168.057V170.235H121.135V168.057H120.397ZM120.379 164.106V164.736C120.379 166.077 118.84 167.274 117.409 167.535L117.724 168.156C119.362 167.814 121.027 166.473 121.027 164.736V164.106H120.379ZM120.514 164.106V164.736C120.514 166.473 122.179 167.814 123.817 168.156L124.141 167.535C122.71 167.274 121.162 166.086 121.162 164.736V164.106H120.514Z" fill="#3C3C3C"/>
<path d="M38.395 198.949V199.552H43.984V198.949H38.395ZM37.45 201.037V201.658H44.821V201.037H37.45ZM38.395 195.259V199.138H39.151V195.871H43.894V195.259H38.395ZM38.908 197.077V197.671H43.723V197.077H38.908ZM51.0393 194.575V199.543H51.7863V194.575H51.0393ZM49.5273 196.519V197.131H51.2823V196.519H49.5273ZM46.3413 200.002V200.614H51.0393V202.711H51.7863V200.002H46.3413ZM45.4323 198.517V199.129H46.0533C47.4573 199.129 48.4833 199.093 49.7523 198.895L49.6893 198.283C48.4563 198.481 47.4303 198.517 46.0533 198.517H45.4323ZM45.4143 195.052V195.664H48.2853V196.753H45.4323V198.94H46.1703V197.329H49.0233V195.052H45.4143ZM58.3106 194.557V200.452H59.0576V194.557H58.3106ZM58.8326 196.978V197.599H60.2636V196.978H58.8326ZM53.1176 198.4V199.021H53.7476C55.4576 199.021 56.4206 198.967 57.5366 198.733L57.4556 198.13C56.3666 198.355 55.4216 198.4 53.7476 198.4H53.1176ZM53.1176 195.259V198.733H53.8556V195.88H56.7086V195.259H53.1176ZM53.9906 201.91V202.522H59.4266V201.91H53.9906ZM53.9906 199.867V202.189H54.7376V199.867H53.9906ZM63.0529 194.944C61.8469 194.944 60.9829 195.619 60.9829 196.618C60.9829 197.608 61.8469 198.301 63.0529 198.301C64.2679 198.301 65.1319 197.608 65.1319 196.618C65.1319 195.619 64.2679 194.944 63.0529 194.944ZM63.0529 195.565C63.8449 195.565 64.4119 195.997 64.4119 196.618C64.4119 197.248 63.8449 197.671 63.0529 197.671C62.2609 197.671 61.6939 197.248 61.6939 196.618C61.6939 195.997 62.2609 195.565 63.0529 195.565ZM62.7199 199.201V202.45H63.4669V199.201H62.7199ZM66.3199 194.566V202.711H67.0579V194.566H66.3199ZM60.4789 199.606C61.9639 199.606 63.9619 199.579 65.7979 199.246L65.7439 198.688C63.9529 198.958 61.8919 198.976 60.3799 198.976L60.4789 199.606ZM72.8838 198.82V199.648H69.9818V198.82H72.8838ZM75.0779 199.291V199.903H82.4579V199.291H75.0779ZM78.3719 199.66V202.702H79.1099V199.66H78.3719ZM76.0139 195.016V198.193H81.5039V195.016H76.0139ZM80.7749 195.619V197.59H76.7519V195.619H80.7749ZM84.1718 201.105L84.1239 201.453C84.0919 201.709 84.0376 201.975 83.9609 202.252C83.8863 202.532 83.8085 202.79 83.7276 203.029C83.6487 203.268 83.5838 203.457 83.5326 203.598H82.8551C82.8828 203.466 82.9211 203.287 82.9701 203.061C83.0191 202.837 83.0671 202.587 83.1139 202.31C83.1608 202.033 83.196 201.751 83.2194 201.463L83.2514 201.105H84.1718ZM86.6333 195.331V200.668H89.7383V195.331H89.0453V197.32H87.3443V195.331H86.6333ZM87.3443 197.923H89.0453V200.056H87.3443V197.923ZM92.5373 194.566V202.702H93.2573V194.566H92.5373ZM91.2323 197.788V198.4H92.7983V197.788H91.2323ZM90.7373 194.737V202.297H91.4483V194.737H90.7373ZM97.2976 199.741V202.711H98.0356V199.741H97.2976ZM93.9946 199.48V200.101H101.348V199.48H93.9946ZM97.2886 195.961V196.168C97.2886 197.185 95.9206 198.076 94.4536 198.274L94.7146 198.868C96.4246 198.607 97.9456 197.572 97.9456 196.168V195.961H97.2886ZM97.3876 195.961V196.168C97.3876 197.554 98.8996 198.616 100.601 198.868L100.871 198.274C99.4126 198.076 98.0356 197.176 98.0356 196.168V195.961H97.3876ZM94.7056 195.565V196.177H100.637V195.565H94.7056ZM97.2976 194.566V195.781H98.0356V194.566H97.2976ZM103.08 201.105L103.032 201.453C103 201.709 102.945 201.975 102.869 202.252C102.794 202.532 102.716 202.79 102.635 203.029C102.556 203.268 102.491 203.457 102.44 203.598H101.763C101.79 203.466 101.829 203.287 101.878 203.061C101.927 202.837 101.975 202.587 102.022 202.31C102.069 202.033 102.104 201.751 102.127 201.463L102.159 201.105H103.08ZM110.815 194.566V198.706H111.562V194.566H110.815ZM111.238 196.312V196.933H112.759V196.312H111.238ZM106.396 199.093V199.687H110.833V200.524H106.414V202.306H107.152V201.091H111.562V199.093H106.396ZM106.414 201.991V202.594H111.859V201.991H106.414ZM107.494 194.854C106.288 194.854 105.397 195.601 105.397 196.663C105.397 197.734 106.288 198.481 107.494 198.481C108.718 198.481 109.6 197.734 109.6 196.663C109.6 195.601 108.718 194.854 107.494 194.854ZM107.494 195.466C108.295 195.466 108.88 195.961 108.88 196.663C108.88 197.374 108.295 197.869 107.494 197.869C106.711 197.869 106.126 197.374 106.126 196.663C106.126 195.961 106.711 195.466 107.494 195.466ZM113.244 200.128V200.749H113.883C115.404 200.749 116.466 200.704 117.726 200.488L117.645 199.876C116.421 200.092 115.386 200.128 113.883 200.128H113.244ZM113.244 195.304V200.344H113.991V195.925H117.033V195.304H113.244ZM113.802 197.581V198.184H116.853V197.581H113.802ZM118.401 194.566V202.702H119.157V194.566H118.401ZM118.977 197.833V198.463H120.489V197.833H118.977ZM126.474 194.557V202.711H127.221V194.557H126.474ZM121.02 200.128V200.749H121.695C123.09 200.749 124.314 200.695 125.79 200.452L125.709 199.84C124.269 200.074 123.054 200.128 121.695 200.128H121.02ZM121.002 195.322V195.934H124.008V197.617H121.02V200.362H121.767V198.229H124.764V195.322H121.002Z" fill="#3C3C3C"/>
<path d="M295.908 46.1087C295.403 46.1065 294.972 45.9734 294.614 45.7092C294.256 45.445 293.982 45.0604 293.793 44.5554C293.603 44.0504 293.508 43.4421 293.508 42.7305C293.508 42.021 293.603 41.4148 293.793 40.9119C293.984 40.4091 294.259 40.0256 294.617 39.7614C294.977 39.4972 295.408 39.3651 295.908 39.3651C296.409 39.3651 296.838 39.4982 297.196 39.7646C297.554 40.0288 297.828 40.4123 298.018 40.9151C298.21 41.4158 298.305 42.021 298.305 42.7305C298.305 43.4442 298.211 44.0536 298.021 44.5586C297.831 45.0614 297.558 45.446 297.2 45.7124C296.842 45.9766 296.411 46.1087 295.908 46.1087ZM295.908 45.2553C296.352 45.2553 296.698 45.0391 296.947 44.6065C297.199 44.174 297.324 43.5487 297.324 42.7305C297.324 42.1871 297.267 41.728 297.152 41.353C297.039 40.9759 296.876 40.6903 296.663 40.4964C296.452 40.3004 296.2 40.2024 295.908 40.2024C295.467 40.2024 295.121 40.4197 294.87 40.8544C294.618 41.2891 294.491 41.9144 294.489 42.7305C294.489 43.2759 294.546 43.7372 294.659 44.1143C294.774 44.4893 294.937 44.7738 295.148 44.9677C295.359 45.1594 295.612 45.2553 295.908 45.2553ZM298.809 46V45.2841L301.024 42.9893C301.261 42.7401 301.455 42.5217 301.609 42.3342C301.764 42.1445 301.881 41.9645 301.957 41.794C302.034 41.6236 302.072 41.4425 302.072 41.2507C302.072 41.0334 302.021 40.8459 301.919 40.6882C301.817 40.5284 301.677 40.4059 301.5 40.3207C301.323 40.2333 301.124 40.1896 300.903 40.1896C300.668 40.1896 300.464 40.2376 300.289 40.3335C300.114 40.4293 299.98 40.5646 299.886 40.7393C299.792 40.9141 299.746 41.1186 299.746 41.353H298.803C298.803 40.9545 298.894 40.6062 299.078 40.3079C299.261 40.0096 299.512 39.7784 299.832 39.6143C300.152 39.4482 300.515 39.3651 300.922 39.3651C301.333 39.3651 301.695 39.4471 302.008 39.6112C302.324 39.7731 302.57 39.9947 302.747 40.2759C302.924 40.555 303.012 40.8704 303.012 41.2219C303.012 41.4648 302.966 41.7024 302.875 41.9347C302.785 42.1669 302.628 42.4258 302.405 42.7113C302.181 42.9947 301.87 43.3388 301.471 43.7436L300.171 45.1051V45.1531H303.117V46H298.809ZM304.341 45.1882C304.166 45.1882 304.016 45.1264 303.89 45.0028C303.765 44.8771 303.702 44.7259 303.702 44.549C303.702 44.3743 303.765 44.2251 303.89 44.1016C304.016 43.9759 304.166 43.913 304.341 43.913C304.516 43.913 304.666 43.9759 304.792 44.1016C304.917 44.2251 304.98 44.3743 304.98 44.549C304.98 44.6662 304.95 44.7738 304.891 44.8718C304.833 44.9677 304.757 45.0444 304.661 45.1019C304.565 45.1594 304.458 45.1882 304.341 45.1882ZM304.341 41.9091C304.166 41.9091 304.016 41.8473 303.89 41.7237C303.765 41.598 303.702 41.4467 303.702 41.2699C303.702 41.0952 303.765 40.946 303.89 40.8224C304.016 40.6967 304.166 40.6339 304.341 40.6339C304.516 40.6339 304.666 40.6967 304.792 40.8224C304.917 40.946 304.98 41.0952 304.98 41.2699C304.98 41.3871 304.95 41.4947 304.891 41.5927C304.833 41.6886 304.757 41.7653 304.661 41.8228C304.565 41.8803 304.458 41.9091 304.341 41.9091ZM307.896 46.0895C307.457 46.0895 307.065 46.0138 306.72 45.8626C306.377 45.7113 306.105 45.5014 305.905 45.233C305.707 44.9624 305.601 44.6491 305.586 44.2933H306.589C306.602 44.4872 306.667 44.6555 306.784 44.7983C306.903 44.9389 307.059 45.0476 307.251 45.1243C307.442 45.201 307.656 45.2393 307.89 45.2393C308.148 45.2393 308.376 45.1946 308.574 45.1051C308.774 45.0156 308.931 44.891 309.044 44.7312C309.157 44.5692 309.213 44.3828 309.213 44.1719C309.213 43.9524 309.157 43.7596 309.044 43.5934C308.933 43.4251 308.77 43.293 308.555 43.1971C308.342 43.1012 308.084 43.0533 307.781 43.0533H307.228V42.2479H307.781C308.024 42.2479 308.237 42.2042 308.42 42.1168C308.606 42.0295 308.751 41.908 308.855 41.7525C308.96 41.5948 309.012 41.4105 309.012 41.1996C309.012 40.9972 308.966 40.8214 308.874 40.6722C308.785 40.521 308.657 40.4027 308.491 40.3175C308.327 40.2322 308.133 40.1896 307.909 40.1896C307.696 40.1896 307.497 40.229 307.311 40.3079C307.128 40.3846 306.979 40.4954 306.864 40.6403C306.749 40.783 306.687 40.9545 306.679 41.1548H305.723C305.734 40.8011 305.838 40.4901 306.036 40.2216C306.237 39.9531 306.501 39.7433 306.829 39.592C307.157 39.4407 307.521 39.3651 307.922 39.3651C308.342 39.3651 308.704 39.4471 309.009 39.6112C309.315 39.7731 309.552 39.9893 309.718 40.2599C309.886 40.5305 309.969 40.8267 309.967 41.1484C309.969 41.5149 309.867 41.826 309.661 42.0817C309.456 42.3374 309.183 42.5089 308.842 42.5962V42.6474C309.277 42.7134 309.614 42.886 309.852 43.1651C310.093 43.4442 310.212 43.7905 310.21 44.2038C310.212 44.5639 310.112 44.8867 309.91 45.1722C309.71 45.4577 309.436 45.6825 309.088 45.8466C308.741 46.0085 308.344 46.0895 307.896 46.0895ZM313.067 46.1087C312.562 46.1065 312.131 45.9734 311.773 45.7092C311.415 45.445 311.141 45.0604 310.951 44.5554C310.762 44.0504 310.667 43.4421 310.667 42.7305C310.667 42.021 310.762 41.4148 310.951 40.9119C311.143 40.4091 311.418 40.0256 311.776 39.7614C312.136 39.4972 312.566 39.3651 313.067 39.3651C313.568 39.3651 313.997 39.4982 314.355 39.7646C314.713 40.0288 314.987 40.4123 315.176 40.9151C315.368 41.4158 315.464 42.021 315.464 42.7305C315.464 43.4442 315.369 44.0536 315.18 44.5586C314.99 45.0614 314.716 45.446 314.358 45.7124C314 45.9766 313.57 46.1087 313.067 46.1087ZM313.067 45.2553C313.51 45.2553 313.857 45.0391 314.106 44.6065C314.357 44.174 314.483 43.5487 314.483 42.7305C314.483 42.1871 314.425 41.728 314.31 41.353C314.197 40.9759 314.034 40.6903 313.821 40.4964C313.61 40.3004 313.359 40.2024 313.067 40.2024C312.626 40.2024 312.28 40.4197 312.028 40.8544C311.777 41.2891 311.65 41.9144 311.648 42.7305C311.648 43.2759 311.705 43.7372 311.817 44.1143C311.933 44.4893 312.096 44.7738 312.306 44.9677C312.517 45.1594 312.771 45.2553 313.067 45.2553Z" fill="#3C3C3C"/>
<path d="M294.908 77.1087C294.403 77.1065 293.972 76.9734 293.614 76.7092C293.256 76.445 292.982 76.0604 292.793 75.5554C292.603 75.0504 292.508 74.4421 292.508 73.7305C292.508 73.021 292.603 72.4148 292.793 71.9119C292.984 71.4091 293.259 71.0256 293.617 70.7614C293.977 70.4972 294.408 70.3651 294.908 70.3651C295.409 70.3651 295.838 70.4982 296.196 70.7646C296.554 71.0288 296.828 71.4123 297.018 71.9151C297.21 72.4158 297.305 73.021 297.305 73.7305C297.305 74.4442 297.211 75.0536 297.021 75.5586C296.831 76.0614 296.558 76.446 296.2 76.7124C295.842 76.9766 295.411 77.1087 294.908 77.1087ZM294.908 76.2553C295.352 76.2553 295.698 76.0391 295.947 75.6065C296.199 75.174 296.324 74.5487 296.324 73.7305C296.324 73.1871 296.267 72.728 296.152 72.353C296.039 71.9759 295.876 71.6903 295.663 71.4964C295.452 71.3004 295.2 71.2024 294.908 71.2024C294.467 71.2024 294.121 71.4197 293.87 71.8544C293.618 72.2891 293.491 72.9144 293.489 73.7305C293.489 74.2759 293.546 74.7372 293.659 75.1143C293.774 75.4893 293.937 75.7738 294.148 75.9677C294.359 76.1594 294.612 76.2553 294.908 76.2553ZM299.986 70.3651C300.278 70.3672 300.565 70.4205 300.849 70.5249C301.132 70.6293 301.388 70.7997 301.616 71.0362C301.846 71.2727 302.029 71.5923 302.165 71.995C302.304 72.3956 302.374 72.8942 302.376 73.4908C302.376 74.0639 302.319 74.5742 302.204 75.0217C302.089 75.467 301.924 75.843 301.708 76.1499C301.495 76.4567 301.236 76.69 300.932 76.8498C300.627 77.0096 300.284 77.0895 299.903 77.0895C299.513 77.0895 299.166 77.0128 298.864 76.8594C298.561 76.706 298.315 76.494 298.126 76.2234C297.936 75.9506 297.818 75.6374 297.771 75.2837H298.746C298.81 75.565 298.94 75.793 299.136 75.9677C299.334 76.1403 299.589 76.2266 299.903 76.2266C300.382 76.2266 300.756 76.0178 301.024 75.6001C301.293 75.1804 301.428 74.5945 301.43 73.8423H301.379C301.268 74.0256 301.13 74.1832 300.964 74.3153C300.8 74.4474 300.615 74.5497 300.411 74.6222C300.206 74.6946 299.988 74.7308 299.756 74.7308C299.378 74.7308 299.035 74.6381 298.726 74.4528C298.417 74.2674 298.171 74.0128 297.988 73.6889C297.805 73.3651 297.713 72.9954 297.713 72.5799C297.713 72.1665 297.807 71.7915 297.995 71.4549C298.184 71.1183 298.448 70.8519 298.787 70.6559C299.128 70.4577 299.528 70.3608 299.986 70.3651ZM299.989 71.196C299.74 71.196 299.515 71.2578 299.315 71.3814C299.116 71.5028 298.96 71.668 298.845 71.8768C298.73 72.0835 298.672 72.3136 298.672 72.5671C298.672 72.8207 298.728 73.0508 298.838 73.2575C298.951 73.462 299.105 73.625 299.299 73.7464C299.495 73.8658 299.718 73.9254 299.97 73.9254C300.157 73.9254 300.332 73.8892 300.494 73.8168C300.656 73.7443 300.797 73.6442 300.919 73.5163C301.04 73.3864 301.135 73.2393 301.203 73.0753C301.272 72.9112 301.306 72.7386 301.306 72.5575C301.306 72.3168 301.248 72.093 301.133 71.8864C301.02 71.6797 300.865 71.5135 300.666 71.3878C300.468 71.2599 300.242 71.196 299.989 71.196ZM303.543 76.1882C303.369 76.1882 303.218 76.1264 303.093 76.0028C302.967 75.8771 302.904 75.7259 302.904 75.549C302.904 75.3743 302.967 75.2251 303.093 75.1016C303.218 74.9759 303.369 74.913 303.543 74.913C303.718 74.913 303.868 74.9759 303.994 75.1016C304.12 75.2251 304.182 75.3743 304.182 75.549C304.182 75.6662 304.153 75.7738 304.093 75.8718C304.035 75.9677 303.959 76.0444 303.863 76.1019C303.767 76.1594 303.66 76.1882 303.543 76.1882ZM303.543 72.9091C303.369 72.9091 303.218 72.8473 303.093 72.7237C302.967 72.598 302.904 72.4467 302.904 72.2699C302.904 72.0952 302.967 71.946 303.093 71.8224C303.218 71.6967 303.369 71.6339 303.543 71.6339C303.718 71.6339 303.868 71.6967 303.994 71.8224C304.12 71.946 304.182 72.0952 304.182 72.2699C304.182 72.3871 304.153 72.4947 304.093 72.5927C304.035 72.6886 303.959 72.7653 303.863 72.8228C303.767 72.8803 303.66 72.9091 303.543 72.9091ZM307.098 77.1087C306.593 77.1065 306.162 76.9734 305.804 76.7092C305.446 76.445 305.172 76.0604 304.983 75.5554C304.793 75.0504 304.698 74.4421 304.698 73.7305C304.698 73.021 304.793 72.4148 304.983 71.9119C305.174 71.4091 305.449 71.0256 305.807 70.7614C306.167 70.4972 306.598 70.3651 307.098 70.3651C307.599 70.3651 308.029 70.4982 308.386 70.7646C308.744 71.0288 309.018 71.4123 309.208 71.9151C309.4 72.4158 309.495 73.021 309.495 73.7305C309.495 74.4442 309.401 75.0536 309.211 75.5586C309.021 76.0614 308.748 76.446 308.39 76.7124C308.032 76.9766 307.601 77.1087 307.098 77.1087ZM307.098 76.2553C307.542 76.2553 307.888 76.0391 308.137 75.6065C308.389 75.174 308.514 74.5487 308.514 73.7305C308.514 73.1871 308.457 72.728 308.342 72.353C308.229 71.9759 308.066 71.6903 307.853 71.4964C307.642 71.3004 307.39 71.2024 307.098 71.2024C306.657 71.2024 306.311 71.4197 306.06 71.8544C305.808 72.2891 305.682 72.9144 305.679 73.7305C305.679 74.2759 305.736 74.7372 305.849 75.1143C305.964 75.4893 306.127 75.7738 306.338 75.9677C306.549 76.1594 306.802 76.2553 307.098 76.2553ZM312.278 77.1087C311.773 77.1065 311.342 76.9734 310.984 76.7092C310.626 76.445 310.352 76.0604 310.162 75.5554C309.973 75.0504 309.878 74.4421 309.878 73.7305C309.878 73.021 309.973 72.4148 310.162 71.9119C310.354 71.4091 310.629 71.0256 310.987 70.7614C311.347 70.4972 311.777 70.3651 312.278 70.3651C312.779 70.3651 313.208 70.4982 313.566 70.7646C313.924 71.0288 314.198 71.4123 314.387 71.9151C314.579 72.4158 314.675 73.021 314.675 73.7305C314.675 74.4442 314.58 75.0536 314.391 75.5586C314.201 76.0614 313.927 76.446 313.569 76.7124C313.211 76.9766 312.781 77.1087 312.278 77.1087ZM312.278 76.2553C312.721 76.2553 313.067 76.0391 313.317 75.6065C313.568 75.174 313.694 74.5487 313.694 73.7305C313.694 73.1871 313.636 72.728 313.521 72.353C313.408 71.9759 313.245 71.6903 313.032 71.4964C312.821 71.3004 312.57 71.2024 312.278 71.2024C311.837 71.2024 311.491 71.4197 311.239 71.8544C310.988 72.2891 310.861 72.9144 310.859 73.7305C310.859 74.2759 310.915 74.7372 311.028 75.1143C311.143 75.4893 311.306 75.7738 311.517 75.9677C311.728 76.1594 311.982 76.2553 312.278 76.2553Z" fill="#3C3C3C"/>
<path d="M293.63 115V114.284L295.844 111.989C296.081 111.74 296.276 111.522 296.429 111.334C296.585 111.145 296.701 110.964 296.778 110.794C296.854 110.624 296.893 110.442 296.893 110.251C296.893 110.033 296.842 109.846 296.739 109.688C296.637 109.528 296.498 109.406 296.321 109.321C296.144 109.233 295.945 109.19 295.723 109.19C295.489 109.19 295.284 109.238 295.109 109.333C294.935 109.429 294.8 109.565 294.707 109.739C294.613 109.914 294.566 110.119 294.566 110.353H293.623C293.623 109.955 293.715 109.606 293.898 109.308C294.081 109.01 294.333 108.778 294.652 108.614C294.972 108.448 295.335 108.365 295.742 108.365C296.153 108.365 296.516 108.447 296.829 108.611C297.144 108.773 297.39 108.995 297.567 109.276C297.744 109.555 297.832 109.87 297.832 110.222C297.832 110.465 297.787 110.702 297.695 110.935C297.605 111.167 297.449 111.426 297.225 111.711C297.001 111.995 296.69 112.339 296.292 112.744L294.991 114.105V114.153H297.938V115H293.63ZM300.798 115.109C300.293 115.107 299.861 114.973 299.504 114.709C299.146 114.445 298.872 114.06 298.682 113.555C298.493 113.05 298.398 112.442 298.398 111.73C298.398 111.021 298.493 110.415 298.682 109.912C298.874 109.409 299.149 109.026 299.507 108.761C299.867 108.497 300.297 108.365 300.798 108.365C301.299 108.365 301.728 108.498 302.086 108.765C302.444 109.029 302.718 109.412 302.907 109.915C303.099 110.416 303.195 111.021 303.195 111.73C303.195 112.444 303.1 113.054 302.91 113.559C302.721 114.061 302.447 114.446 302.089 114.712C301.731 114.977 301.301 115.109 300.798 115.109ZM300.798 114.255C301.241 114.255 301.587 114.039 301.837 113.607C302.088 113.174 302.214 112.549 302.214 111.73C302.214 111.187 302.156 110.728 302.041 110.353C301.928 109.976 301.765 109.69 301.552 109.496C301.341 109.3 301.09 109.202 300.798 109.202C300.357 109.202 300.011 109.42 299.759 109.854C299.508 110.289 299.381 110.914 299.379 111.73C299.379 112.276 299.435 112.737 299.548 113.114C299.663 113.489 299.826 113.774 300.037 113.968C300.248 114.159 300.502 114.255 300.798 114.255ZM304.341 114.188C304.166 114.188 304.016 114.126 303.89 114.003C303.765 113.877 303.702 113.726 303.702 113.549C303.702 113.374 303.765 113.225 303.89 113.102C304.016 112.976 304.166 112.913 304.341 112.913C304.516 112.913 304.666 112.976 304.792 113.102C304.917 113.225 304.98 113.374 304.98 113.549C304.98 113.666 304.95 113.774 304.891 113.872C304.833 113.968 304.757 114.044 304.661 114.102C304.565 114.159 304.458 114.188 304.341 114.188ZM304.341 110.909C304.166 110.909 304.016 110.847 303.89 110.724C303.765 110.598 303.702 110.447 303.702 110.27C303.702 110.095 303.765 109.946 303.89 109.822C304.016 109.697 304.166 109.634 304.341 109.634C304.516 109.634 304.666 109.697 304.792 109.822C304.917 109.946 304.98 110.095 304.98 110.27C304.98 110.387 304.95 110.495 304.891 110.593C304.833 110.689 304.757 110.765 304.661 110.823C304.565 110.88 304.458 110.909 304.341 110.909ZM307.896 115.089C307.457 115.089 307.065 115.014 306.72 114.863C306.377 114.711 306.105 114.501 305.905 114.233C305.707 113.962 305.601 113.649 305.586 113.293H306.589C306.602 113.487 306.667 113.656 306.784 113.798C306.903 113.939 307.059 114.048 307.251 114.124C307.442 114.201 307.656 114.239 307.89 114.239C308.148 114.239 308.376 114.195 308.574 114.105C308.774 114.016 308.931 113.891 309.044 113.731C309.157 113.569 309.213 113.383 309.213 113.172C309.213 112.952 309.157 112.76 309.044 112.593C308.933 112.425 308.77 112.293 308.555 112.197C308.342 112.101 308.084 112.053 307.781 112.053H307.228V111.248H307.781C308.024 111.248 308.237 111.204 308.42 111.117C308.606 111.029 308.751 110.908 308.855 110.752C308.96 110.595 309.012 110.411 309.012 110.2C309.012 109.997 308.966 109.821 308.874 109.672C308.785 109.521 308.657 109.403 308.491 109.317C308.327 109.232 308.133 109.19 307.909 109.19C307.696 109.19 307.497 109.229 307.311 109.308C307.128 109.385 306.979 109.495 306.864 109.64C306.749 109.783 306.687 109.955 306.679 110.155H305.723C305.734 109.801 305.838 109.49 306.036 109.222C306.237 108.953 306.501 108.743 306.829 108.592C307.157 108.441 307.521 108.365 307.922 108.365C308.342 108.365 308.704 108.447 309.009 108.611C309.315 108.773 309.552 108.989 309.718 109.26C309.886 109.531 309.969 109.827 309.967 110.148C309.969 110.515 309.867 110.826 309.661 111.082C309.456 111.337 309.183 111.509 308.842 111.596V111.647C309.277 111.713 309.614 111.886 309.852 112.165C310.093 112.444 310.212 112.79 310.21 113.204C310.212 113.564 310.112 113.887 309.91 114.172C309.71 114.458 309.436 114.683 309.088 114.847C308.741 115.009 308.344 115.089 307.896 115.089ZM313.067 115.109C312.562 115.107 312.131 114.973 311.773 114.709C311.415 114.445 311.141 114.06 310.951 113.555C310.762 113.05 310.667 112.442 310.667 111.73C310.667 111.021 310.762 110.415 310.951 109.912C311.143 109.409 311.418 109.026 311.776 108.761C312.136 108.497 312.566 108.365 313.067 108.365C313.568 108.365 313.997 108.498 314.355 108.765C314.713 109.029 314.987 109.412 315.176 109.915C315.368 110.416 315.464 111.021 315.464 111.73C315.464 112.444 315.369 113.054 315.18 113.559C314.99 114.061 314.716 114.446 314.358 114.712C314 114.977 313.57 115.109 313.067 115.109ZM313.067 114.255C313.51 114.255 313.857 114.039 314.106 113.607C314.357 113.174 314.483 112.549 314.483 111.73C314.483 111.187 314.425 110.728 314.31 110.353C314.197 109.976 314.034 109.69 313.821 109.496C313.61 109.3 313.359 109.202 313.067 109.202C312.626 109.202 312.28 109.42 312.028 109.854C311.777 110.289 311.65 110.914 311.648 111.73C311.648 112.276 311.705 112.737 311.817 113.114C311.933 113.489 312.096 113.774 312.306 113.968C312.517 114.159 312.771 114.255 313.067 114.255Z" fill="#3C3C3C"/>
<path d="M293.63 162V161.284L295.844 158.989C296.081 158.74 296.276 158.522 296.429 158.334C296.585 158.145 296.701 157.964 296.778 157.794C296.854 157.624 296.893 157.442 296.893 157.251C296.893 157.033 296.842 156.846 296.739 156.688C296.637 156.528 296.498 156.406 296.321 156.321C296.144 156.233 295.945 156.19 295.723 156.19C295.489 156.19 295.284 156.238 295.109 156.333C294.935 156.429 294.8 156.565 294.707 156.739C294.613 156.914 294.566 157.119 294.566 157.353H293.623C293.623 156.955 293.715 156.606 293.898 156.308C294.081 156.01 294.333 155.778 294.652 155.614C294.972 155.448 295.335 155.365 295.742 155.365C296.153 155.365 296.516 155.447 296.829 155.611C297.144 155.773 297.39 155.995 297.567 156.276C297.744 156.555 297.832 156.87 297.832 157.222C297.832 157.465 297.787 157.702 297.695 157.935C297.605 158.167 297.449 158.426 297.225 158.711C297.001 158.995 296.69 159.339 296.292 159.744L294.991 161.105V161.153H297.938V162H293.63ZM300.798 162.109C300.293 162.107 299.861 161.973 299.504 161.709C299.146 161.445 298.872 161.06 298.682 160.555C298.493 160.05 298.398 159.442 298.398 158.73C298.398 158.021 298.493 157.415 298.682 156.912C298.874 156.409 299.149 156.026 299.507 155.761C299.867 155.497 300.297 155.365 300.798 155.365C301.299 155.365 301.728 155.498 302.086 155.765C302.444 156.029 302.718 156.412 302.907 156.915C303.099 157.416 303.195 158.021 303.195 158.73C303.195 159.444 303.1 160.054 302.91 160.559C302.721 161.061 302.447 161.446 302.089 161.712C301.731 161.977 301.301 162.109 300.798 162.109ZM300.798 161.255C301.241 161.255 301.587 161.039 301.837 160.607C302.088 160.174 302.214 159.549 302.214 158.73C302.214 158.187 302.156 157.728 302.041 157.353C301.928 156.976 301.765 156.69 301.552 156.496C301.341 156.3 301.09 156.202 300.798 156.202C300.357 156.202 300.011 156.42 299.759 156.854C299.508 157.289 299.381 157.914 299.379 158.73C299.379 159.276 299.435 159.737 299.548 160.114C299.663 160.489 299.826 160.774 300.037 160.968C300.248 161.159 300.502 161.255 300.798 161.255ZM304.341 161.188C304.166 161.188 304.016 161.126 303.89 161.003C303.765 160.877 303.702 160.726 303.702 160.549C303.702 160.374 303.765 160.225 303.89 160.102C304.016 159.976 304.166 159.913 304.341 159.913C304.516 159.913 304.666 159.976 304.792 160.102C304.917 160.225 304.98 160.374 304.98 160.549C304.98 160.666 304.95 160.774 304.891 160.872C304.833 160.968 304.757 161.044 304.661 161.102C304.565 161.159 304.458 161.188 304.341 161.188ZM304.341 157.909C304.166 157.909 304.016 157.847 303.89 157.724C303.765 157.598 303.702 157.447 303.702 157.27C303.702 157.095 303.765 156.946 303.89 156.822C304.016 156.697 304.166 156.634 304.341 156.634C304.516 156.634 304.666 156.697 304.792 156.822C304.917 156.946 304.98 157.095 304.98 157.27C304.98 157.387 304.95 157.495 304.891 157.593C304.833 157.689 304.757 157.765 304.661 157.823C304.565 157.88 304.458 157.909 304.341 157.909ZM307.896 162.089C307.457 162.089 307.065 162.014 306.72 161.863C306.377 161.711 306.105 161.501 305.905 161.233C305.707 160.962 305.601 160.649 305.586 160.293H306.589C306.602 160.487 306.667 160.656 306.784 160.798C306.903 160.939 307.059 161.048 307.251 161.124C307.442 161.201 307.656 161.239 307.89 161.239C308.148 161.239 308.376 161.195 308.574 161.105C308.774 161.016 308.931 160.891 309.044 160.731C309.157 160.569 309.213 160.383 309.213 160.172C309.213 159.952 309.157 159.76 309.044 159.593C308.933 159.425 308.77 159.293 308.555 159.197C308.342 159.101 308.084 159.053 307.781 159.053H307.228V158.248H307.781C308.024 158.248 308.237 158.204 308.42 158.117C308.606 158.029 308.751 157.908 308.855 157.752C308.96 157.595 309.012 157.411 309.012 157.2C309.012 156.997 308.966 156.821 308.874 156.672C308.785 156.521 308.657 156.403 308.491 156.317C308.327 156.232 308.133 156.19 307.909 156.19C307.696 156.19 307.497 156.229 307.311 156.308C307.128 156.385 306.979 156.495 306.864 156.64C306.749 156.783 306.687 156.955 306.679 157.155H305.723C305.734 156.801 305.838 156.49 306.036 156.222C306.237 155.953 306.501 155.743 306.829 155.592C307.157 155.441 307.521 155.365 307.922 155.365C308.342 155.365 308.704 155.447 309.009 155.611C309.315 155.773 309.552 155.989 309.718 156.26C309.886 156.531 309.969 156.827 309.967 157.148C309.969 157.515 309.867 157.826 309.661 158.082C309.456 158.337 309.183 158.509 308.842 158.596V158.647C309.277 158.713 309.614 158.886 309.852 159.165C310.093 159.444 310.212 159.79 310.21 160.204C310.212 160.564 310.112 160.887 309.91 161.172C309.71 161.458 309.436 161.683 309.088 161.847C308.741 162.009 308.344 162.089 307.896 162.089ZM313.067 162.109C312.562 162.107 312.131 161.973 311.773 161.709C311.415 161.445 311.141 161.06 310.951 160.555C310.762 160.05 310.667 159.442 310.667 158.73C310.667 158.021 310.762 157.415 310.951 156.912C311.143 156.409 311.418 156.026 311.776 155.761C312.136 155.497 312.566 155.365 313.067 155.365C313.568 155.365 313.997 155.498 314.355 155.765C314.713 156.029 314.987 156.412 315.176 156.915C315.368 157.416 315.464 158.021 315.464 158.73C315.464 159.444 315.369 160.054 315.18 160.559C314.99 161.061 314.716 161.446 314.358 161.712C314 161.977 313.57 162.109 313.067 162.109ZM313.067 161.255C313.51 161.255 313.857 161.039 314.106 160.607C314.357 160.174 314.483 159.549 314.483 158.73C314.483 158.187 314.425 157.728 314.31 157.353C314.197 156.976 314.034 156.69 313.821 156.496C313.61 156.3 313.359 156.202 313.067 156.202C312.626 156.202 312.28 156.42 312.028 156.854C311.777 157.289 311.65 157.914 311.648 158.73C311.648 159.276 311.705 159.737 311.817 160.114C311.933 160.489 312.096 160.774 312.306 160.968C312.517 161.159 312.771 161.255 313.067 161.255Z" fill="#3C3C3C"/>
<path d="M292.63 202V201.284L294.844 198.989C295.081 198.74 295.276 198.522 295.429 198.334C295.585 198.145 295.701 197.964 295.778 197.794C295.854 197.624 295.893 197.442 295.893 197.251C295.893 197.033 295.842 196.846 295.739 196.688C295.637 196.528 295.498 196.406 295.321 196.321C295.144 196.233 294.945 196.19 294.723 196.19C294.489 196.19 294.284 196.238 294.109 196.333C293.935 196.429 293.8 196.565 293.707 196.739C293.613 196.914 293.566 197.119 293.566 197.353H292.623C292.623 196.955 292.715 196.606 292.898 196.308C293.081 196.01 293.333 195.778 293.652 195.614C293.972 195.448 294.335 195.365 294.742 195.365C295.153 195.365 295.516 195.447 295.829 195.611C296.144 195.773 296.39 195.995 296.567 196.276C296.744 196.555 296.832 196.87 296.832 197.222C296.832 197.465 296.787 197.702 296.695 197.935C296.605 198.167 296.449 198.426 296.225 198.711C296.001 198.995 295.69 199.339 295.292 199.744L293.991 201.105V201.153H296.938V202H292.63ZM299.798 202.109C299.293 202.107 298.861 201.973 298.504 201.709C298.146 201.445 297.872 201.06 297.682 200.555C297.493 200.05 297.398 199.442 297.398 198.73C297.398 198.021 297.493 197.415 297.682 196.912C297.874 196.409 298.149 196.026 298.507 195.761C298.867 195.497 299.297 195.365 299.798 195.365C300.299 195.365 300.728 195.498 301.086 195.765C301.444 196.029 301.718 196.412 301.907 196.915C302.099 197.416 302.195 198.021 302.195 198.73C302.195 199.444 302.1 200.054 301.91 200.559C301.721 201.061 301.447 201.446 301.089 201.712C300.731 201.977 300.301 202.109 299.798 202.109ZM299.798 201.255C300.241 201.255 300.587 201.039 300.837 200.607C301.088 200.174 301.214 199.549 301.214 198.73C301.214 198.187 301.156 197.728 301.041 197.353C300.928 196.976 300.765 196.69 300.552 196.496C300.341 196.3 300.09 196.202 299.798 196.202C299.357 196.202 299.011 196.42 298.759 196.854C298.508 197.289 298.381 197.914 298.379 198.73C298.379 199.276 298.435 199.737 298.548 200.114C298.663 200.489 298.826 200.774 299.037 200.968C299.248 201.159 299.502 201.255 299.798 201.255ZM303.341 201.188C303.166 201.188 303.016 201.126 302.89 201.003C302.765 200.877 302.702 200.726 302.702 200.549C302.702 200.374 302.765 200.225 302.89 200.102C303.016 199.976 303.166 199.913 303.341 199.913C303.516 199.913 303.666 199.976 303.792 200.102C303.917 200.225 303.98 200.374 303.98 200.549C303.98 200.666 303.95 200.774 303.891 200.872C303.833 200.968 303.757 201.044 303.661 201.102C303.565 201.159 303.458 201.188 303.341 201.188ZM303.341 197.909C303.166 197.909 303.016 197.847 302.89 197.724C302.765 197.598 302.702 197.447 302.702 197.27C302.702 197.095 302.765 196.946 302.89 196.822C303.016 196.697 303.166 196.634 303.341 196.634C303.516 196.634 303.666 196.697 303.792 196.822C303.917 196.946 303.98 197.095 303.98 197.27C303.98 197.387 303.95 197.495 303.891 197.593C303.833 197.689 303.757 197.765 303.661 197.823C303.565 197.88 303.458 197.909 303.341 197.909ZM306.896 202.089C306.457 202.089 306.065 202.014 305.72 201.863C305.377 201.711 305.105 201.501 304.905 201.233C304.707 200.962 304.601 200.649 304.586 200.293H305.589C305.602 200.487 305.667 200.656 305.784 200.798C305.903 200.939 306.059 201.048 306.251 201.124C306.442 201.201 306.656 201.239 306.89 201.239C307.148 201.239 307.376 201.195 307.574 201.105C307.774 201.016 307.931 200.891 308.044 200.731C308.157 200.569 308.213 200.383 308.213 200.172C308.213 199.952 308.157 199.76 308.044 199.593C307.933 199.425 307.77 199.293 307.555 199.197C307.342 199.101 307.084 199.053 306.781 199.053H306.228V198.248H306.781C307.024 198.248 307.237 198.204 307.42 198.117C307.606 198.029 307.751 197.908 307.855 197.752C307.96 197.595 308.012 197.411 308.012 197.2C308.012 196.997 307.966 196.821 307.874 196.672C307.785 196.521 307.657 196.403 307.491 196.317C307.327 196.232 307.133 196.19 306.909 196.19C306.696 196.19 306.497 196.229 306.311 196.308C306.128 196.385 305.979 196.495 305.864 196.64C305.749 196.783 305.687 196.955 305.679 197.155H304.723C304.734 196.801 304.838 196.49 305.036 196.222C305.237 195.953 305.501 195.743 305.829 195.592C306.157 195.441 306.521 195.365 306.922 195.365C307.342 195.365 307.704 195.447 308.009 195.611C308.315 195.773 308.552 195.989 308.718 196.26C308.886 196.531 308.969 196.827 308.967 197.148C308.969 197.515 308.867 197.826 308.661 198.082C308.456 198.337 308.183 198.509 307.842 198.596V198.647C308.277 198.713 308.614 198.886 308.852 199.165C309.093 199.444 309.212 199.79 309.21 200.204C309.212 200.564 309.112 200.887 308.91 201.172C308.71 201.458 308.436 201.683 308.088 201.847C307.741 202.009 307.344 202.089 306.896 202.089ZM312.067 202.109C311.562 202.107 311.131 201.973 310.773 201.709C310.415 201.445 310.141 201.06 309.951 200.555C309.762 200.05 309.667 199.442 309.667 198.73C309.667 198.021 309.762 197.415 309.951 196.912C310.143 196.409 310.418 196.026 310.776 195.761C311.136 195.497 311.566 195.365 312.067 195.365C312.568 195.365 312.997 195.498 313.355 195.765C313.713 196.029 313.987 196.412 314.176 196.915C314.368 197.416 314.464 198.021 314.464 198.73C314.464 199.444 314.369 200.054 314.18 200.559C313.99 201.061 313.716 201.446 313.358 201.712C313 201.977 312.57 202.109 312.067 202.109ZM312.067 201.255C312.51 201.255 312.857 201.039 313.106 200.607C313.357 200.174 313.483 199.549 313.483 198.73C313.483 198.187 313.425 197.728 313.31 197.353C313.197 196.976 313.034 196.69 312.821 196.496C312.61 196.3 312.359 196.202 312.067 196.202C311.626 196.202 311.28 196.42 311.028 196.854C310.777 197.289 310.65 197.914 310.648 198.73C310.648 199.276 310.705 199.737 310.817 200.114C310.933 200.489 311.096 200.774 311.306 200.968C311.517 201.159 311.771 201.255 312.067 201.255Z" fill="#3C3C3C"/>
</svg>
