<svg width="86" height="75" viewBox="0 0 86 75" fill="none" xmlns="http://www.w3.org/2000/svg">
<path d="M0.735352 4.20922V70.4714L2.35519 74.182H83.0187L85.2547 72.0374V10.0644L83.0187 8.91729L32.1879 8.34873L29.6538 7.91982L23.095 1.49609H2.35519L0.735352 4.20922Z" fill="#B7B7B7"/>
<path d="M9.22266 21.2463V16.4584L11.6077 14.0645H74.632L76.7486 17.0569L75.8543 21.2463H9.22266Z" fill="white"/>
<path d="M82.4423 7.55087H31.8798C31.3034 7.55087 30.7569 7.33143 30.3594 6.93244L24.4564 1.04735C23.7906 0.37904 22.8565 0 21.8925 0H3.55766C1.59002 0 0 1.53611 0 3.41136V71.5886C0 73.4739 1.59996 75 3.55766 75H82.4423C84.41 75 86 73.4639 86 71.5886V10.9622C86 9.077 84.4 7.55087 82.4423 7.55087ZM3.55766 1.49621H21.8925C22.4689 1.49621 23.0155 1.71565 23.413 2.11464L29.3159 7.99973C29.9817 8.66804 30.9159 9.04708 31.8798 9.04708H82.4423C83.5851 9.04708 84.5094 9.90491 84.5094 10.9622V20.917H77.5133V17.2762C77.5133 14.8524 75.9133 12.8874 73.9556 12.8874H12.0245C10.0568 12.8874 8.46682 14.8623 8.46682 17.2762V20.917H1.49064V3.41136C1.49064 2.35404 2.42478 1.49621 3.55766 1.49621ZM76.0226 20.917H9.94753V17.2762C9.94753 15.7102 10.8916 14.3836 12.0146 14.3836H73.9457C75.0686 14.3836 76.0127 15.7102 76.0127 17.2762V20.917H76.0226ZM82.4423 73.5138H3.55766C2.41484 73.5138 1.49064 72.6559 1.49064 71.5986V22.4132H84.5193V71.5986C84.5193 72.6559 83.5852 73.5138 82.4523 73.5138H82.4423Z" fill="#333333"/>
</svg>
